<?xml version="1.0" encoding="utf-8"?>
<!-- Generator: Adobe Illustrator 16.0.0, SVG Export Plug-In . SVG Version: 6.00 Build 0)  -->
<!DOCTYPE svg PUBLIC "-//W3C//DTD SVG 1.1//EN" "http://www.w3.org/Graphics/SVG/1.1/DTD/svg11.dtd">
<svg version="1.1" id="Layer_1" xmlns="http://www.w3.org/2000/svg" xmlns:xlink="http://www.w3.org/1999/xlink" x="0px" y="0px"
	 width="624.723px" height="639px" viewBox="0 0 624.723 639" enable-background="new 0 0 624.723 639" xml:space="preserve">
<g>
	<path fill="#00374D" d="M111.175,12.388h48.195c28.567,0,42.851,11.24,42.851,33.717c0,11.143-4.892,20.405-14.672,27.79
		c14.187,6.155,21.28,17.135,21.28,32.94c0,12.114-4.178,21.766-12.535,28.956c-4.081,3.434-8.454,5.83-13.118,7.19
		s-10.948,2.041-18.851,2.041h-7.482v-34.106h6.705c3.951,0,6.736-0.501,8.356-1.506c1.619-1.003,2.429-2.769,2.429-5.295
		c0-4.275-3.304-6.413-9.911-6.413h-7.579V62.333c7.254,0,10.883-2.493,10.883-7.482c0-4.599-3.272-6.899-9.814-6.899h-7.288v97.071
		h-39.45V12.388z"/>
	<path fill="#00374D" d="M222.044,12.388h39.45v78.803c0,6.155,0.987,10.251,2.963,12.292c1.976,2.04,5.879,3.061,11.709,3.061
		h2.041v38.479h-10.494c-14.381,0-25.588-4.193-33.62-12.583c-8.033-8.389-12.049-20.032-12.049-34.932V12.388z"/>
	<path fill="#00374D" d="M384.703,12.388v85.994c0,15.158-4.519,27.272-13.555,36.341c-9.037,9.07-21.07,13.604-36.098,13.604
		c-14.964,0-26.415-4.404-34.349-13.215c-7.936-8.809-11.903-21.474-11.903-37.993v-84.73h39.45v84.633
		c0,8.098,2.882,12.146,8.648,12.146c5.57,0,8.356-4.048,8.356-12.146V12.388H384.703z"/>
	<path fill="#00374D" d="M479.442,63.984v29.539h-25.75c-3.498,0-5.976,0.519-7.434,1.555c-1.457,1.037-2.186,2.786-2.186,5.247
		c0,2.786,0.744,4.615,2.235,5.49c1.489,0.874,4.534,1.312,9.134,1.312h26.527v37.896h-30.997c-14.575,0-25.718-3.481-33.426-10.445
		c-7.709-6.963-11.563-17.02-11.563-30.171V52.421c0-12.696,3.644-22.543,10.931-29.539c7.288-6.996,17.539-10.494,30.754-10.494
		h34.3v38.09h-25.167c-6.802,0-10.203,2.203-10.203,6.607c0,2.592,0.809,4.389,2.429,5.393c1.619,1.005,4.501,1.506,8.648,1.506
		H479.442z"/>
</g>
<path fill-rule="evenodd" clip-rule="evenodd" fill="#25539F" d="M-318.535,115.254c-7.71-0.681-9.526-2.606-9.576-10.16
	c-0.362-52.892-38.249-96.267-90.174-103.935c-50.97-7.525-99.12,22.178-115.799,71.816c-1.843,5.481-4.002,8.179-9.513,8.702
	c8.392,10.081,15.104,21.892,19.556,35.141c2.04,6.07,4.424,8.753,11.375,8.817c37.582,0.346,64.898,26.036,68.14,64.081
	c0.561,6.578,2.261,9.114,8.981,10.96c26.294,7.225,40.692,31.047,37.353,59.893c25.709,0.039,51.417,0.03,77.123-0.214
	c34.585-0.328,64.417-25.716,69.797-58.202C-243.886,157.557-273.191,119.263-318.535,115.254z"/>
<path fill-rule="evenodd" clip-rule="evenodd" fill="#2B9FD8" d="M-601.937,310.897c-47.346,0-94.695,0.337-142.036-0.112
	c-34.586-0.329-64.416-25.717-69.796-58.202c-7.387-44.596,21.917-82.891,67.263-86.899c7.709-0.682,9.525-2.606,9.576-10.16
	c0.362-52.892,38.25-96.267,90.175-103.935c50.969-7.526,99.119,22.178,115.799,71.815c2.04,6.07,4.425,8.754,11.376,8.817
	c37.582,0.347,64.897,26.036,68.14,64.081c0.561,6.578,2.261,9.114,8.981,10.96c26.381,7.248,40.797,31.2,37.331,60.172
	c-2.805,23.438-24.965,43.061-50.624,43.298c-48.724,0.449-97.455,0.13-146.183,0.13
	C-601.937,310.875-601.937,310.886-601.937,310.897z"/>
<g>
	<path fill="#17A6DF" d="M111.175,185.384h48.195c28.567,0,42.851,11.24,42.851,33.717c0,11.143-4.892,20.405-14.672,27.79
		c14.187,6.155,21.28,17.135,21.28,32.94c0,12.114-4.178,21.766-12.535,28.956c-4.081,3.434-8.454,5.83-13.118,7.19
		s-10.948,2.041-18.851,2.041h-7.482v-34.106h6.705c3.951,0,6.736-0.501,8.356-1.506c1.619-1.003,2.429-2.769,2.429-5.295
		c0-4.275-3.304-6.413-9.911-6.413h-7.579v-35.369c7.254,0,10.883-2.493,10.883-7.482c0-4.599-3.272-6.899-9.814-6.899h-7.288
		v97.071h-39.45V185.384z"/>
	<path fill="#17A6DF" d="M222.044,185.384h39.45v78.803c0,6.155,0.987,10.251,2.963,12.292c1.976,2.04,5.879,3.061,11.709,3.061
		h2.041v38.479h-10.494c-14.381,0-25.588-4.193-33.62-12.583c-8.033-8.389-12.049-20.032-12.049-34.932V185.384z"/>
	<path fill="#17A6DF" d="M384.703,185.384v85.994c0,15.158-4.519,27.272-13.555,36.341c-9.037,9.07-21.07,13.604-36.098,13.604
		c-14.964,0-26.415-4.404-34.349-13.215c-7.936-8.809-11.903-21.474-11.903-37.993v-84.73h39.45v84.633
		c0,8.098,2.882,12.146,8.648,12.146c5.57,0,8.356-4.048,8.356-12.146v-84.633H384.703z"/>
	<path fill="#17A6DF" d="M479.442,236.98v29.539h-25.75c-3.498,0-5.976,0.519-7.434,1.555c-1.457,1.037-2.186,2.786-2.186,5.247
		c0,2.786,0.744,4.615,2.235,5.49c1.489,0.874,4.534,1.312,9.134,1.312h26.527v37.896h-30.997c-14.575,0-25.718-3.481-33.426-10.445
		c-7.709-6.963-11.563-17.02-11.563-30.171v-51.985c0-12.696,3.644-22.543,10.931-29.539c7.288-6.996,17.539-10.494,30.754-10.494
		h34.3v38.09h-25.167c-6.802,0-10.203,2.203-10.203,6.607c0,2.592,0.809,4.389,2.429,5.393c1.619,1.005,4.501,1.506,8.648,1.506
		H479.442z"/>
</g>
<g>
	<path fill="#3EC6EE" d="M111.175,358.878h48.195c28.567,0,42.851,11.24,42.851,33.717c0,11.143-4.892,20.405-14.672,27.79
		c14.187,6.155,21.28,17.135,21.28,32.94c0,12.114-4.178,21.766-12.535,28.956c-4.081,3.434-8.454,5.83-13.118,7.19
		s-10.948,2.041-18.851,2.041h-7.482v-34.106h6.705c3.951,0,6.736-0.501,8.356-1.506c1.619-1.003,2.429-2.769,2.429-5.295
		c0-4.275-3.304-6.413-9.911-6.413h-7.579v-35.369c7.254,0,10.883-2.493,10.883-7.482c0-4.599-3.272-6.899-9.814-6.899h-7.288
		v97.071h-39.45V358.878z"/>
	<path fill="#3EC6EE" d="M222.044,358.878h39.45v78.803c0,6.155,0.987,10.251,2.963,12.292c1.976,2.04,5.879,3.061,11.709,3.061
		h2.041v38.479h-10.494c-14.381,0-25.588-4.193-33.62-12.583c-8.033-8.389-12.049-20.032-12.049-34.932V358.878z"/>
	<path fill="#3EC6EE" d="M384.703,358.878v85.994c0,15.158-4.519,27.272-13.555,36.341c-9.037,9.07-21.07,13.604-36.098,13.604
		c-14.964,0-26.415-4.404-34.349-13.215c-7.936-8.809-11.903-21.474-11.903-37.993v-84.73h39.45v84.633
		c0,8.098,2.882,12.146,8.648,12.146c5.57,0,8.356-4.048,8.356-12.146v-84.633H384.703z"/>
	<path fill="#3EC6EE" d="M479.442,410.474v29.539h-25.75c-3.498,0-5.976,0.519-7.434,1.555c-1.457,1.037-2.186,2.786-2.186,5.247
		c0,2.786,0.744,4.615,2.235,5.49c1.489,0.874,4.534,1.312,9.134,1.312h26.527v37.896h-30.997c-14.575,0-25.718-3.481-33.426-10.445
		c-7.709-6.963-11.563-17.02-11.563-30.171v-51.985c0-12.696,3.644-22.543,10.931-29.539c7.288-6.996,17.539-10.494,30.754-10.494
		h34.3v38.09h-25.167c-6.802,0-10.203,2.203-10.203,6.607c0,2.592,0.809,4.389,2.429,5.393c1.619,1.005,4.501,1.506,8.648,1.506
		H479.442z"/>
</g>
<g>
	<path fill="#00374D" d="M48.827,534.689H81.28c19.236,0,28.854,7.568,28.854,22.704c0,7.503-3.294,13.74-9.88,18.713
		c9.553,4.145,14.329,11.538,14.329,22.181c0,8.157-2.813,14.656-8.44,19.498c-2.748,2.313-5.692,3.926-8.833,4.842
		C94.17,623.543,89.938,624,84.617,624h-5.038v-22.965h4.515c2.66,0,4.536-0.337,5.627-1.014c1.09-0.676,1.636-1.865,1.636-3.566
		c0-2.879-2.225-4.318-6.674-4.318h-5.104V568.32c4.885,0,7.328-1.679,7.328-5.038c0-3.097-2.203-4.646-6.608-4.646h-4.907V624
		H48.827V534.689z"/>
	<path fill="#00374D" d="M157.702,579.181v23.555h-7.655V624h-26.564v-56.792c0-10.992,2.999-19.531,8.997-25.616
		c5.997-6.085,14.427-9.127,25.289-9.127c10.469,0,18.211,2.759,23.228,8.277c5.016,5.519,7.524,14.035,7.524,25.55V624h-26.564
		v-55.942c0-3.489-0.415-5.91-1.243-7.263c-0.829-1.352-2.313-2.028-4.449-2.028c-4.145,0-6.216,3.098-6.216,9.291v11.123H157.702z"
		/>
	<path fill="#00374D" d="M267.362,534.689v57.905c0,10.207-3.042,18.364-9.127,24.471c-6.085,6.107-14.188,9.16-24.307,9.16
		c-10.076,0-17.787-2.965-23.129-8.898c-5.344-5.932-8.015-14.46-8.015-25.583v-57.055h26.564v56.989
		c0,5.453,1.94,8.179,5.823,8.179c3.751,0,5.627-2.726,5.627-8.179v-56.989H267.362z"/>
	<path fill="#00374D" d="M317.481,566.619v23.555h-7.394V624h-26.564v-89.311h26.564v31.93H317.481z M348.561,534.689V624h-26.564
		v-89.311H348.561z"/>
	<path fill="#00374D" d="M398.811,579.181v23.555h-7.655V624h-26.564v-56.792c0-10.992,2.999-19.531,8.997-25.616
		c5.997-6.085,14.427-9.127,25.289-9.127c10.469,0,18.211,2.759,23.228,8.277c5.016,5.519,7.524,14.035,7.524,25.55V624h-26.564
		v-55.942c0-3.489-0.415-5.91-1.243-7.263c-0.829-1.352-2.313-2.028-4.449-2.028c-4.145,0-6.216,3.098-6.216,9.291v11.123H398.811z"
		/>
	<path fill="#00374D" d="M508.471,534.689v57.905c0,10.207-3.042,18.364-9.127,24.471c-6.085,6.107-14.188,9.16-24.307,9.16
		c-10.076,0-17.787-2.965-23.129-8.898c-5.344-5.932-8.015-14.46-8.015-25.583v-57.055h26.564v56.989
		c0,5.453,1.94,8.179,5.823,8.179c3.751,0,5.627-2.726,5.627-8.179v-56.989H508.471z"/>
	<path fill="#00374D" d="M566.572,534.296v25.452c-1.92-0.654-3.402-0.981-4.449-0.981c-2.007,0-3.729,0.742-5.169,2.225
		c-1.439,1.483-2.159,3.271-2.159,5.365c0,1.789,0.785,4.057,2.355,6.805l2.028,3.533c3.664,6.369,5.496,12.52,5.496,18.451
		c0,8.681-3.086,16.03-9.258,22.05c-6.173,6.019-13.708,9.029-22.606,9.029c-4.275,0-8.506-0.98-12.693-2.943v-25.845
		c2.529,1.614,4.776,2.421,6.739,2.421c2.312,0,4.242-0.665,5.791-1.996c1.548-1.33,2.323-2.999,2.323-5.005
		c0-1.309-1.243-4.165-3.729-8.571c-3.97-6.979-5.954-13.958-5.954-20.938c0-8.418,2.999-15.67,8.997-21.755
		c5.997-6.085,13.162-9.127,21.494-9.127C559.44,532.464,563.039,533.076,566.572,534.296z"/>
</g>
</svg>
