<?xml version="1.0" encoding="utf-8"?>
<!-- Generator: Adobe Illustrator 16.0.0, SVG Export Plug-In . SVG Version: 6.00 Build 0)  -->
<!DOCTYPE svg PUBLIC "-//W3C//DTD SVG 1.1//EN" "http://www.w3.org/Graphics/SVG/1.1/DTD/svg11.dtd">
<svg version="1.1" id="Layer_1" xmlns="http://www.w3.org/2000/svg" xmlns:xlink="http://www.w3.org/1999/xlink" x="0px" y="0px"
	 width="624.723px" height="639px" viewBox="0 0 624.723 639" enable-background="new 0 0 624.723 639" xml:space="preserve">
<g>
	<path fill="#00374D" d="M132.137,420.024h49.872c29.561,0,44.342,11.63,44.342,34.89c0,11.53-5.062,21.115-15.183,28.756
		c14.68,6.369,22.02,17.731,22.02,34.086c0,12.535-4.323,22.522-12.97,29.963c-4.223,3.554-8.748,6.033-13.574,7.441
		s-11.329,2.111-19.506,2.111h-7.742v-35.292h6.938c4.088,0,6.971-0.519,8.647-1.559c1.675-1.039,2.514-2.866,2.514-5.48
		c0-4.424-3.418-6.636-10.256-6.636h-7.843v-36.599c7.507,0,11.262-2.58,11.262-7.742c0-4.759-3.386-7.139-10.155-7.139h-7.542
		v100.447h-40.822V420.024z"/>
	<path fill="#00374D" d="M246.861,420.024h40.823v81.544c0,6.369,1.021,10.608,3.066,12.72c2.044,2.111,6.083,3.167,12.116,3.167
		h2.111v39.817h-10.859c-14.881,0-26.479-4.339-34.79-13.021c-8.313-8.68-12.468-20.729-12.468-36.147V420.024z"/>
	<path fill="#00374D" d="M415.178,420.024v88.985c0,15.685-4.675,28.221-14.026,37.604c-9.351,9.386-21.803,14.077-37.354,14.077
		c-15.484,0-27.333-4.558-35.543-13.674c-8.212-9.115-12.317-22.221-12.317-39.314v-87.678h40.823v87.577
		c0,8.38,2.981,12.568,8.949,12.568c5.764,0,8.647-4.188,8.647-12.568v-87.577H415.178z"/>
	<path fill="#00374D" d="M513.212,473.415v30.567h-26.645c-3.62,0-6.184,0.537-7.692,1.608c-1.508,1.073-2.262,2.883-2.262,5.43
		c0,2.883,0.77,4.776,2.313,5.681c1.541,0.905,4.691,1.357,9.452,1.357h27.449v39.213h-32.075c-15.082,0-26.612-3.603-34.588-10.809
		c-7.978-7.205-11.965-17.611-11.965-31.22V461.45c0-13.137,3.771-23.327,11.312-30.566c7.541-7.24,18.148-10.859,31.823-10.859
		h35.493v39.415h-26.042c-7.038,0-10.557,2.28-10.557,6.837c0,2.682,0.837,4.542,2.514,5.581c1.675,1.04,4.658,1.558,8.949,1.558
		H513.212z"/>
</g>
<path fill-rule="evenodd" clip-rule="evenodd" fill="#3EC6EE" d="M531.788,180.198c-7.895-0.73-9.754-2.794-9.805-10.895
	c-0.371-56.718-39.163-103.23-92.33-111.453c-52.188-8.07-101.489,23.782-118.567,77.011c-1.887,5.877-4.098,8.771-9.741,9.331
	c8.592,10.81,15.465,23.476,20.024,37.683c2.088,6.509,4.53,9.387,11.646,9.456c38.48,0.371,66.449,27.919,69.769,68.716
	c0.574,7.054,2.315,9.774,9.196,11.753c26.923,7.747,41.665,33.293,38.246,64.225c26.324,0.042,52.646,0.032,78.967-0.229
	c35.412-0.352,65.957-27.577,71.465-62.412C608.221,225.561,578.215,184.497,531.788,180.198z"/>
<path fill-rule="evenodd" clip-rule="evenodd" fill="#17A6DF" d="M241.612,389.993c-48.477,0-96.958,0.362-145.431-0.12
	c-35.413-0.352-65.956-27.577-71.464-62.412c-7.563-47.822,22.441-88.887,68.87-93.185c7.894-0.731,9.753-2.794,9.805-10.895
	c0.371-56.718,39.164-103.231,92.33-111.453c52.187-8.071,101.488,23.783,118.567,77.01c2.089,6.509,4.531,9.387,11.648,9.456
	c38.48,0.372,66.448,27.919,69.769,68.716c0.574,7.054,2.315,9.773,9.195,11.753c27.012,7.771,41.772,33.457,38.223,64.524
	c-2.872,25.134-25.562,46.176-51.834,46.43c-49.888,0.481-99.784,0.139-149.677,0.139
	C241.612,389.97,241.612,389.981,241.612,389.993z"/>
<text transform="matrix(1 0 0 1 800.8208 44.2832)" fill="#00374D" font-family="'Bauhaus93'" font-size="205.9216">BLUE</text>
</svg>
