<?xml version="1.0" encoding="utf-8"?>
<!-- Generator: Adobe Illustrator 16.0.0, SVG Export Plug-In . SVG Version: 6.00 Build 0)  -->
<!DOCTYPE svg PUBLIC "-//W3C//DTD SVG 1.1//EN" "http://www.w3.org/Graphics/SVG/1.1/DTD/svg11.dtd">
<svg version="1.1" id="Layer_1" xmlns="http://www.w3.org/2000/svg" xmlns:xlink="http://www.w3.org/1999/xlink" x="0px" y="0px"
	 width="624.723px" height="639px" viewBox="0 0 624.723 639" enable-background="new 0 0 624.723 639" xml:space="preserve">
<g>
	<path fill="#FFFFFF" d="M484.909,536.109v-58.25c0-34.527,9.527-51.791,28.582-51.791c9.445,0,17.298,5.913,23.558,17.733
		c5.217-17.146,14.524-25.719,27.922-25.719c10.269,0,18.451,5.05,24.546,15.15c2.911,4.932,4.942,10.217,6.095,15.854
		c1.153,5.637,1.73,13.232,1.73,22.783v9.043h-28.912v-8.104c0-4.774-0.425-8.142-1.276-10.1c-0.851-1.956-2.348-2.936-4.489-2.936
		c-3.625,0-5.437,3.993-5.437,11.979v9.16h-29.982c0-8.768-2.113-13.153-6.342-13.153c-3.898,0-5.848,3.955-5.848,11.861v8.808
		h82.287v47.68H484.909z"/>
	<path fill="#FFFFFF" d="M484.909,402.111v-47.681h66.801c5.217,0,8.69-1.192,10.419-3.582c1.73-2.388,2.595-7.105,2.595-14.151
		v-2.466h32.618v12.683c0,17.381-3.555,30.927-10.667,40.634c-7.11,9.709-16.98,14.563-29.611,14.563H484.909z"/>
	<path fill="#FFFFFF" d="M484.909,205.518h72.896c12.85,0,23.119,5.461,30.806,16.383c7.688,10.922,11.532,25.466,11.532,43.628
		c0,18.086-3.734,31.925-11.203,41.515c-7.467,9.591-18.203,14.386-32.206,14.386h-71.826V273.75h71.743
		c6.865,0,10.296-3.482,10.296-10.452c0-6.732-3.431-10.1-10.296-10.1h-71.743V205.518z"/>
	<path fill="#FFFFFF" d="M528.646,91.015h25.04v31.122c0,4.228,0.44,7.222,1.318,8.984c0.879,1.762,2.362,2.643,4.448,2.643
		c2.362,0,3.913-0.899,4.654-2.701c0.741-1.8,1.112-5.479,1.112-11.04V87.961h32.124v37.463c0,17.616-2.951,31.083-8.854,40.399
		c-5.902,9.318-14.428,13.976-25.576,13.976h-44.067c-10.762,0-19.11-4.404-25.04-13.212c-5.931-8.808-8.896-21.198-8.896-37.169
		V87.961h32.289v30.417c0,8.221,1.868,12.331,5.601,12.331c2.197,0,3.721-0.978,4.571-2.936c0.852-1.956,1.277-5.44,1.277-10.452
		V91.015z"/>
</g>
<path fill="#FFFFFF" d="M254.39,469.103c-14.98,13.407-34.579,21.518-56.026,21.518c-1.635,0-3.258-0.051-4.868-0.141h-0.012
	c-41.744-2.417-75.463-35.589-79.906-77.767c-0.338-3.108-0.5-6.28-0.5-9.479c0-26.25,11.298-49.803,29.187-65.819
	c15.004-13.432,34.629-21.568,56.1-21.568c7.216,0,14.232,0.921,20.936,2.661c2.396,0.614,4.756,1.343,7.065,2.174
	c-1.748,2.379-3.383,4.861-4.919,7.446c-1.348,2.251-2.621,4.58-3.806,6.972c-2.885,5.82-5.244,12-7.029,18.485
	c-10.573,0.192-20.522,2.993-29.261,7.804l-0.012,0.012c-2.298,1.267-4.507,2.674-6.63,4.209
	c-15.154,10.963-25.49,28.464-27.076,48.497c-0.15,1.791-0.225,3.607-0.225,5.437c0,24.74,13.295,46.296,32.957,57.579
	c9.288,5.335,20.011,8.38,31.421,8.38c16.292,0,31.184-6.205,42.519-16.452h0.013C254.341,469.077,254.365,469.09,254.39,469.103z"
	/>
<path fill="#FFFFFF" d="M89.042,161.138c-39.742,40.65-64.241,96.261-64.241,157.591c0,22.202,3.206,43.642,9.19,63.907
	c22.282,75.529,83.063,134.548,159.635,154.345c9.03,2.337,18.261,4.114,27.693,5.316c0.641-0.013,1.269-0.027,1.91-0.027
	c4.368,0,8.616,0.495,12.69,1.417c13.959,3.153,25.982,11.395,34.024,22.656c0.027,0.027,0.041,0.053,0.054,0.066
	c0.08,0.121,0.173,0.24,0.253,0.361c0.188,0.267,0.361,0.521,0.534,0.775c0.027,0.04,0.041,0.066,0.067,0.093
	c0.16,0.227,0.307,0.454,0.454,0.694c0.161,0.227,0.321,0.455,0.468,0.681c0.026,0.041,0.04,0.067,0.066,0.094
	c17.1,24.299,45.365,40.168,77.345,40.168c0-30.03-13.985-56.787-35.8-74.112c-16.137-12.825-36.563-20.479-58.777-20.479v-0.014
	c0.321,0.014,0.642,0.014,0.962,0.014c30.857,0,58.27-14.775,75.529-37.645c11.956-15.83,19.049-35.548,19.049-56.921
	c-0.321-0.013-0.641-0.013-0.962-0.013c-28.186,0-53.487,12.33-70.813,31.9c-2.592,4.021-5.491,7.828-8.656,11.381
	c-2.565,2.886-5.304,5.597-8.216,8.135c-16.03,14-37.003,22.47-59.954,22.47c-1.75,0-3.486-0.054-5.21-0.147h-0.013
	c-44.671-2.524-80.753-37.164-85.508-81.207c-0.361-3.246-0.535-6.559-0.535-9.898c0-27.412,12.09-52.005,31.232-68.73
	c16.057-14.026,37.058-22.522,60.034-22.522c7.722,0,15.229,0.961,22.403,2.779c2.565,0.641,5.089,1.402,7.561,2.271
	c-1.87,2.485-3.62,5.076-5.263,7.775c-1.442,2.351-2.805,4.783-4.074,7.28c-3.086,6.078-5.611,12.531-7.522,19.303
	c-2.017,7.201-3.339,14.748-3.847,22.536c4.716,0.575,9.525,0.869,14.441,0.869c9.965,0,19.557-1.216,28.574-3.487
	c1.923-0.481,3.821-1.015,5.705-1.59c0.788-0.24,1.576-0.494,2.35-0.761c7.16-2.377,13.853-5.451,19.971-9.097
	c2.658-1.563,5.21-3.246,7.628-5.05c3.607-2.645,6.946-5.517,9.992-8.589c9.444,5.757,19.41,10.82,29.803,15.096
	c4.074,1.683,8.215,3.245,12.41,4.675c16.631,5.677,34.211,9.431,52.459,10.954c5.544,0.468,11.141,0.722,16.805,0.762
	c4.635-1.229,9.111-2.846,13.399-4.809c29.135-13.345,49.373-42.761,49.373-76.918c0-4.382-0.334-8.683-0.975-12.878
	c-0.107-0.734-0.241-1.483-0.374-2.217C454.172,174.163,361.637,93.317,250.213,93.317c-0.494,0-0.975,0-1.47,0.013
	c-6.786-5.437-13.972-10.393-21.52-14.801c-1.282-0.761-2.578-1.497-3.887-2.218c-25.809-14.281-55.492-22.402-87.071-22.402
	c-10.914,0-21.587,0.975-31.967,2.832c10.059,12.33,16.097,28.066,16.097,45.219c0,16.778-5.784,32.207-15.469,44.417
	C104.926,146.377,96.861,153.75,89.042,161.138z M352.566,296.126c-2.564,3.393-6.625,5.57-11.193,5.57
	c-7.735,0-14.027-6.279-14.027-14.026c0-1.39,0.2-2.726,0.573-3.994c1.724-5.798,7.107-10.033,13.454-10.033
	c7.747,0,14.026,6.279,14.026,14.027C355.399,290.85,354.344,293.775,352.566,296.126z"/>
<path fill="#FFFFFF" d="M421.842,375.308c-20.837,14.018-48.233,22.532-78.238,22.532c-32.182,0-61.337-9.78-82.644-25.636
	c0.769-0.234,1.538-0.482,2.294-0.743c6.989-2.32,13.522-5.32,19.494-8.88c2.595-1.525,5.085-3.168,7.446-4.929
	c3.521-2.581,6.78-5.385,9.753-8.384c9.219,5.62,18.946,10.562,29.092,14.735c3.977,1.643,8.019,3.167,12.114,4.564
	c16.234,5.542,33.394,9.205,51.206,10.692c5.412,0.457,10.875,0.705,16.403,0.744C413.288,378.802,417.657,377.224,421.842,375.308z
	"/>
<text transform="matrix(0 -1.4258 1 0 983.3423 552.1187)" fill="#002C3D" font-family="'Bauhaus93'" font-size="168.6917">BLUE</text>
</svg>
