<?xml version="1.0" encoding="utf-8"?>
<!-- Generator: Adobe Illustrator 16.0.0, SVG Export Plug-In . SVG Version: 6.00 Build 0)  -->
<!DOCTYPE svg PUBLIC "-//W3C//DTD SVG 1.1//EN" "http://www.w3.org/Graphics/SVG/1.1/DTD/svg11.dtd">
<svg version="1.1" id="Layer_1" xmlns="http://www.w3.org/2000/svg" xmlns:xlink="http://www.w3.org/1999/xlink" x="0px" y="0px"
	 width="624.723px" height="639px" viewBox="0 0 624.723 639" enable-background="new 0 0 624.723 639" xml:space="preserve">
<text transform="matrix(1 0 0 1 683.3613 87.5)" fill="#155448" font-family="'ArialRoundedMTBold'" font-size="97">GREEN</text>
<g>
	<path fill-rule="evenodd" clip-rule="evenodd" fill="#979797" d="M253.394,495.999c3.583-12.964,7.773-27.013,13.632-39.693
		c4.348-9.413,9.445-16.078,16.893-26.379c21.325,6.56,39.865,13.843,59.087,17.885c63.096,13.264,111.529-9.933,147.298-62.161
		c23.616-34.484,37.392-73.207,47.542-113.3c9.07-35.833,14.638-72.306,17.337-109.189c0.211-2.873,0.027-5.773,0.027-9.887
		c-13.727,0.747-27.29,1.151-40.791,2.284c-37.365,3.135-74.354,8.759-110.475,19.016c-38.341,10.888-75,25.499-105.741,51.888
		c-35.924,30.836-52.351,69.82-46.282,117.014c2.498,19.419,7.732,38.486,13.077,57.881
		c64.075-57.536,127.742-113.742,198.55-161.499c-1.691,1.589-3.315,3.258-5.082,4.756
		c-52.122,44.205-102.783,89.984-149.84,139.613c-20.133,21.231-38.379,43.939-52.715,69.605
		C245.245,472.936,245,475.892,253.394,495.999z"/>
	<path fill-rule="evenodd" clip-rule="evenodd" fill="#C4C4C4" d="M238.739,323.624c2.478-61.885,36.958-102.231,89.054-131.533
		c-45.939-70.066-111.599-115.617-183.39-156.617c-8.237,22.229-16.86,43.195-23.795,64.707
		c-13.817,42.858-24.108,86.494-25.1,131.864c-0.584,26.652,1.342,52.916,10.27,78.321c14.826,42.198,44.192,69.564,86.392,82.674
		c17.662,5.489,36.24,8.033,55.114,10.774c-25.416-82.858-49.736-164.816-64.143-249.323c17.65,56.495,35.298,112.99,52.946,169.484
		C236.972,323.857,237.855,323.74,238.739,323.624z"/>
</g>
<g>
	<path fill="#070707" d="M202.359,564.271v13.309c0,1.769-0.174,3.182-0.521,4.239c-0.348,1.059-0.987,2.013-1.918,2.866
		c-0.932,0.853-2.124,1.674-3.576,2.463c-4.2,2.273-8.241,3.931-12.125,4.973s-8.115,1.563-12.693,1.563
		c-5.336,0-10.199-0.821-14.588-2.463c-4.389-1.642-8.131-4.026-11.225-7.152c-3.095-3.126-5.47-6.915-7.128-11.367
		c-1.657-4.452-2.486-9.425-2.486-14.919c0-5.399,0.805-10.341,2.416-14.825c1.61-4.483,3.979-8.289,7.104-11.415
		s6.931-5.518,11.415-7.175c4.483-1.658,9.567-2.487,15.251-2.487c4.673,0,8.81,0.624,12.409,1.871
		c3.6,1.248,6.52,2.818,8.762,4.713c2.242,1.895,3.931,3.9,5.068,6.015c1.137,2.116,1.705,3.995,1.705,5.636
		c0,1.769-0.656,3.276-1.966,4.523c-1.311,1.248-2.881,1.871-4.712,1.871c-1.011,0-1.982-0.237-2.913-0.71
		c-0.932-0.474-1.713-1.137-2.345-1.989c-1.737-2.715-3.205-4.768-4.405-6.157c-1.2-1.389-2.818-2.558-4.855-3.505
		c-2.036-0.947-4.634-1.421-7.791-1.421c-3.252,0-6.157,0.561-8.715,1.682c-2.558,1.121-4.745,2.747-6.56,4.878
		c-1.816,2.132-3.206,4.745-4.168,7.839c-0.964,3.095-1.445,6.521-1.445,10.278c0,8.146,1.871,14.415,5.613,18.803
		c3.741,4.389,8.959,6.583,15.653,6.583c3.252,0,6.307-0.426,9.165-1.279c2.857-0.853,5.754-2.068,8.691-3.647v-11.272h-10.894
		c-2.621,0-4.603-0.395-5.944-1.184c-1.343-0.789-2.013-2.131-2.013-4.026c0-1.547,0.56-2.826,1.681-3.836
		c1.121-1.01,2.645-1.516,4.571-1.516h15.961c1.958,0,3.615,0.174,4.973,0.521c1.357,0.348,2.455,1.121,3.292,2.321
		C201.94,560.072,202.359,561.872,202.359,564.271z"/>
	<path fill="#070707" d="M234.661,562.803h-4.926v22.308c0,2.937-0.647,5.1-1.942,6.489c-1.295,1.389-2.984,2.084-5.068,2.084
		c-2.242,0-3.979-0.727-5.21-2.179s-1.847-3.583-1.847-6.394v-53.426c0-3.031,0.679-5.226,2.037-6.583
		c1.357-1.357,3.552-2.037,6.583-2.037h22.876c3.157,0,5.857,0.135,8.099,0.402c2.242,0.269,4.263,0.813,6.063,1.634
		c2.179,0.916,4.104,2.226,5.778,3.931c1.673,1.705,2.944,3.687,3.813,5.944c0.868,2.258,1.303,4.649,1.303,7.175
		c0,5.179-1.461,9.315-4.381,12.409c-2.921,3.095-7.35,5.289-13.286,6.583c2.494,1.326,4.878,3.284,7.152,5.873
		c2.273,2.589,4.302,5.345,6.086,8.265c1.784,2.921,3.174,5.558,4.168,7.91c0.995,2.353,1.492,3.971,1.492,4.854
		c0,0.916-0.292,1.823-0.876,2.724c-0.585,0.899-1.382,1.61-2.392,2.131c-1.011,0.521-2.179,0.782-3.505,0.782
		c-1.579,0-2.905-0.372-3.979-1.113c-1.074-0.742-1.998-1.682-2.771-2.818c-0.774-1.137-1.823-2.81-3.149-5.021l-5.636-9.378
		c-2.021-3.441-3.829-6.063-5.423-7.862c-1.595-1.8-3.213-3.031-4.854-3.694C239.223,563.135,237.155,562.803,234.661,562.803z
		 M242.712,533.627h-12.978v19.087h12.599c3.378,0,6.22-0.292,8.525-0.876c2.305-0.584,4.065-1.579,5.281-2.984
		c1.215-1.404,1.824-3.339,1.824-5.802c0-1.926-0.49-3.623-1.468-5.092c-0.979-1.468-2.337-2.565-4.073-3.292
		C250.78,533.975,247.543,533.627,242.712,533.627z"/>
	<path fill="#070707" d="M331.282,533.912h-31.686v17.051h29.176c2.147,0,3.749,0.482,4.807,1.445
		c1.058,0.963,1.587,2.234,1.587,3.813c0,1.579-0.521,2.865-1.563,3.86c-1.042,0.994-2.652,1.492-4.831,1.492h-29.176v19.75h32.775
		c2.21,0,3.875,0.514,4.997,1.539c1.121,1.027,1.682,2.392,1.682,4.097c0,1.642-0.561,2.977-1.682,4.002
		c-1.121,1.026-2.787,1.539-4.997,1.539h-38.222c-3.063,0-5.266-0.679-6.607-2.037c-1.342-1.357-2.013-3.552-2.013-6.583v-52.194
		c0-2.021,0.3-3.671,0.9-4.949c0.6-1.279,1.54-2.21,2.818-2.795c1.279-0.583,2.913-0.876,4.902-0.876h37.133
		c2.242,0,3.907,0.497,4.997,1.492c1.089,0.994,1.634,2.297,1.634,3.907c0,1.642-0.545,2.96-1.634,3.955
		C335.189,533.414,333.523,533.912,331.282,533.912z"/>
	<path fill="#070707" d="M395.98,533.912h-31.686v17.051h29.176c2.147,0,3.749,0.482,4.807,1.445
		c1.058,0.963,1.587,2.234,1.587,3.813c0,1.579-0.521,2.865-1.563,3.86c-1.042,0.994-2.652,1.492-4.831,1.492h-29.176v19.75h32.775
		c2.21,0,3.875,0.514,4.997,1.539c1.121,1.027,1.682,2.392,1.682,4.097c0,1.642-0.561,2.977-1.682,4.002
		c-1.121,1.026-2.787,1.539-4.997,1.539h-38.222c-3.063,0-5.266-0.679-6.607-2.037c-1.342-1.357-2.013-3.552-2.013-6.583v-52.194
		c0-2.021,0.3-3.671,0.9-4.949c0.6-1.279,1.54-2.21,2.818-2.795c1.279-0.583,2.913-0.876,4.902-0.876h37.133
		c2.242,0,3.907,0.497,4.997,1.492c1.089,0.994,1.634,2.297,1.634,3.907c0,1.642-0.545,2.96-1.634,3.955
		C399.887,533.414,398.222,533.912,395.98,533.912z"/>
	<path fill="#070707" d="M433.255,530.312l27.044,40.922v-41.301c0-2.684,0.576-4.696,1.729-6.039
		c1.152-1.342,2.708-2.013,4.666-2.013c2.021,0,3.615,0.671,4.784,2.013c1.168,1.342,1.752,3.355,1.752,6.039v54.61
		c0,6.094-2.526,9.141-7.578,9.141c-1.263,0-2.4-0.182-3.41-0.544c-1.011-0.364-1.958-0.939-2.842-1.729
		c-0.884-0.789-1.705-1.712-2.463-2.771c-0.758-1.057-1.516-2.139-2.273-3.244l-26.381-40.448v40.685
		c0,2.652-0.616,4.658-1.847,6.015s-2.811,2.037-4.736,2.037c-1.989,0-3.584-0.687-4.784-2.06c-1.2-1.374-1.8-3.371-1.8-5.992
		v-53.568c0-2.273,0.252-4.057,0.758-5.352c0.6-1.421,1.594-2.582,2.984-3.481c1.389-0.9,2.889-1.35,4.5-1.35
		c1.263,0,2.345,0.206,3.244,0.616c0.9,0.411,1.689,0.963,2.368,1.658c0.679,0.695,1.374,1.595,2.084,2.7
		C431.763,527.96,432.497,529.112,433.255,530.312z"/>
</g>
</svg>
