<?xml version="1.0" standalone="no"?>
<!DOCTYPE svg PUBLIC "-//W3C//DTD SVG 20010904//EN"
 "http://www.w3.org/TR/2001/REC-SVG-20010904/DTD/svg10.dtd">
<svg version="1.0" xmlns="http://www.w3.org/2000/svg"
 width="512.000000pt" height="512.000000pt" viewBox="0 0 512.000000 512.000000"
 preserveAspectRatio="xMidYMid meet">

<g transform="translate(0.000000,512.000000) scale(0.100000,-0.100000)"
fill="#ffffff" stroke="none">
<path d="M2659 4587 c-157 -74 -223 -110 -334 -184 -104 -69 -130 -92 -119
-102 5 -4 43 -33 85 -64 160 -119 282 -274 331 -422 19 -58 23 -90 22 -185 0
-103 -4 -125 -34 -214 -60 -177 -164 -326 -385 -554 -138 -143 -139 -144 -76
-103 35 22 68 41 73 41 4 0 8 -24 8 -52 0 -59 18 -137 43 -185 l17 -32 -37
-10 c-21 -6 -116 -30 -210 -55 l-173 -44 0 24 c0 32 24 89 56 133 18 26 12 21
-24 -16 -69 -72 -102 -142 -102 -215 0 -82 28 -135 112 -213 182 -168 593
-298 1074 -340 l72 -6 50 118 c95 226 170 475 209 698 14 79 17 158 18 376 l0
276 165 47 c312 87 648 159 808 173 61 5 72 9 72 24 0 29 -189 219 -287 289
-211 150 -501 254 -897 321 l-140 24 -38 60 c-57 89 -134 248 -172 355 -18 52
-38 96 -42 97 -5 2 -70 -25 -145 -60z m137 -34 c5 -15 19 -46 72 -157 9 -19
-341 23 -361 43 -12 12 86 66 180 101 92 34 102 35 109 13z m-228 -172 c111
-28 238 -51 284 -51 34 0 39 -2 29 -14 -17 -20 -175 -96 -199 -96 -33 0 -187
125 -214 174 -9 16 -8 18 7 13 9 -4 51 -16 93 -26z m-129 -36 c18 -25 44 -53
57 -61 40 -27 28 -36 -38 -31 -67 4 -140 28 -146 46 -4 12 70 91 85 91 5 0 24
-20 42 -45z m518 -110 c53 -71 56 -67 -58 -63 -57 2 -117 10 -134 17 l-30 12
57 23 c31 13 71 32 89 43 19 11 37 18 40 14 3 -3 19 -24 36 -46z m-500 -30
c47 -14 52 -18 77 -74 14 -32 29 -74 33 -92 l6 -34 -40 50 c-22 28 -68 76
-102 108 -68 62 -64 69 26 42z m294 -61 c144 -23 144 -23 60 -78 -40 -25 -94
-67 -121 -92 l-49 -46 -11 44 c-6 24 -21 78 -34 120 l-23 77 46 -5 c25 -3 85
-12 132 -20z m182 -111 c20 -186 21 -217 4 -210 -8 3 -62 20 -119 38 -57 18
-107 36 -113 41 -13 12 66 91 145 144 36 24 68 44 71 44 4 0 9 -26 12 -57z
m237 42 c52 -9 114 -21 138 -27 l43 -11 -71 -39 c-80 -42 -137 -80 -221 -145
l-57 -43 -12 88 c-6 48 -15 111 -19 140 l-8 52 56 0 c31 0 99 -7 151 -15z
m230 -79 c0 -8 -12 -53 -26 -102 -30 -104 -91 -227 -108 -217 -6 4 -31 21 -55
37 -25 16 -71 40 -104 51 l-60 22 54 43 c78 61 128 95 211 140 81 44 88 46 88
26z m225 -38 c122 -36 237 -80 228 -88 -4 -4 -53 -22 -108 -40 -110 -36 -330
-129 -384 -163 -33 -20 -34 -20 -26 -1 43 100 78 208 87 268 l12 73 61 -14
c33 -7 92 -23 130 -35z m278 -159 c-14 -25 -210 -288 -298 -401 l-19 -25 -47
67 c-26 37 -78 94 -114 127 -77 70 -83 59 60 118 93 39 400 144 423 144 10 1
8 -7 -5 -30z m-1105 -7 c52 -15 93 -30 93 -35 -1 -10 -201 -191 -205 -186 -3
2 -6 59 -8 127 -2 104 -1 122 12 121 8 0 57 -13 108 -27z m1226 -17 c82 -49
178 -127 236 -193 27 -31 50 -59 50 -63 0 -3 -33 -10 -72 -13 -101 -10 -320
-51 -462 -86 -66 -17 -121 -29 -123 -27 -2 2 26 39 63 83 36 43 104 136 152
207 47 70 88 127 92 127 3 0 32 -16 64 -35z m-1145 -213 l-62 -159 -50 34
c-27 18 -55 33 -63 33 -8 0 -14 3 -14 7 0 10 243 253 248 248 2 -2 -24 -75
-59 -163z m230 115 c36 -17 66 -37 68 -43 4 -11 -325 -250 -332 -242 -3 2 30
77 72 167 88 186 75 177 192 118z m115 -99 c-28 -46 -318 -416 -324 -413 -4 2
-10 24 -13 48 -3 24 -14 66 -23 93 -9 26 -12 50 -8 51 5 2 90 55 189 118 99
62 181 114 183 114 2 1 0 -5 -4 -11z m145 -62 c36 -25 90 -69 120 -99 l53 -55
-263 -85 c-145 -47 -275 -88 -289 -92 l-25 -7 21 23 c11 13 83 99 158 192 76
92 143 167 148 167 6 0 40 -20 77 -44z m-650 -142 c14 -13 23 -25 20 -27 -6
-5 -121 -82 -136 -90 -6 -4 -1 21 12 55 13 35 26 71 29 81 7 23 41 15 75 -19z
m110 -86 c11 -24 22 -68 25 -99 l7 -56 -93 -33 c-51 -18 -140 -55 -196 -81
l-104 -49 114 120 c62 66 138 147 168 180 30 33 56 60 58 60 2 0 11 -19 21
-42z m-239 -145 c0 -6 -35 -36 -77 -65 -112 -78 -113 -78 -55 -13 29 33 65 79
80 103 l27 42 12 -27 c7 -16 12 -33 13 -40z m704 6 c3 -17 6 -56 6 -86 l0 -55
-41 37 c-37 33 -71 52 -144 80 -15 6 0 13 65 30 110 30 106 30 114 -6z m-169
-84 c73 -35 158 -100 153 -117 -5 -15 -342 -197 -346 -187 -3 7 53 253 75 332
6 22 20 18 118 -28z m-195 -52 c0 -49 -27 -231 -35 -241 -13 -15 -140 98 -186
164 l-28 42 117 45 c64 25 120 46 125 46 4 1 7 -25 7 -56z m-257 -106 c25 -42
108 -127 157 -159 25 -16 25 -16 5 -31 -34 -26 -246 -114 -339 -141 -103 -30
-120 -32 -112 -11 5 14 258 385 262 385 1 0 13 -19 27 -43z m-155 -77 c-54
-101 -160 -251 -173 -247 -5 2 -21 25 -35 52 -27 53 -34 155 -12 177 19 19
257 116 260 106 2 -4 -16 -44 -40 -88z m772 -139 c-6 -52 -13 -97 -15 -99 -9
-9 -133 21 -200 49 -68 28 -135 72 -125 82 3 3 82 43 175 90 l170 85 3 -57 c2
-31 -2 -99 -8 -150z m-407 -13 c-20 -79 -124 -257 -206 -352 l-34 -39 -49 29
c-48 27 -194 163 -194 180 0 5 39 22 88 37 48 16 155 59 237 97 83 38 153 69
157 70 3 0 4 -10 1 -22z m89 -24 c63 -42 186 -102 242 -120 l41 -12 -29 -11
c-16 -7 -132 -59 -259 -117 -126 -58 -241 -110 -255 -115 l-25 -10 29 38 c84
111 177 281 190 349 3 19 8 34 9 34 2 0 27 -16 57 -36z m-692 -179 c0 -3 -14
-33 -31 -67 -38 -76 -92 -149 -167 -230 l-58 -61 -29 16 c-66 34 -116 115
-129 208 l-7 47 113 26 c62 14 149 34 193 45 85 20 115 24 115 16z m965 -51
c-3 -26 -24 -102 -46 -170 -31 -96 -44 -124 -57 -124 -42 1 -273 50 -323 69
-60 23 -97 46 -88 55 7 7 501 215 513 215 4 1 5 -20 1 -45z m-863 -8 c20 -24
71 -69 113 -101 42 -31 73 -61 68 -65 -25 -22 -425 -150 -470 -150 -8 0 8 25
37 58 53 58 169 225 191 275 7 15 15 27 18 27 4 0 23 -20 43 -44z m212 -268
c-32 -63 -114 -170 -153 -197 -27 -19 -27 -19 -100 5 -81 27 -174 72 -210 101
l-24 19 126 33 c70 18 184 52 254 75 92 31 129 39 131 30 2 -7 -9 -36 -24 -66z
m138 36 c52 -27 260 -84 303 -84 112 0 -174 -103 -443 -160 -57 -12 -105 -20
-108 -18 -2 3 25 40 60 83 36 42 80 106 98 141 18 35 34 64 36 64 1 0 26 -12
54 -26z m364 -191 c-38 -111 -67 -163 -91 -163 -64 0 -349 40 -409 57 -12 3
39 22 130 48 82 24 199 61 259 83 61 22 115 40 122 41 8 1 4 -21 -11 -66z"/>
<path d="M3147 1852 c6 -4 13 -21 16 -37 l4 -30 2 32 c0 17 7 34 14 36 6 3 -1
6 -18 6 -16 0 -25 -3 -18 -7z"/>
<path d="M3201 1828 c1 -31 1 -32 9 -8 4 14 8 19 9 11 1 -8 3 -12 6 -9 8 7 -5
38 -16 38 -5 0 -9 -15 -8 -32z"/>
<path d="M3256 1852 c-3 -5 -1 -22 4 -38 8 -29 8 -29 9 9 1 36 -3 45 -13 29z"/>
<path d="M3237 1813 c-4 -3 -7 -11 -7 -17 0 -6 5 -5 12 2 6 6 9 14 7 17 -3 3
-9 2 -12 -2z"/>
<path d="M0 1665 c0 -138 1 -145 20 -145 19 0 20 7 21 113 l1 112 37 -110 c52
-153 63 -153 116 2 l40 118 3 -117 c2 -96 5 -118 17 -118 13 0 15 24 15 145
l0 145 -23 0 c-21 0 -28 -11 -57 -97 -18 -54 -37 -109 -42 -123 -8 -22 -15 -9
-49 98 -39 119 -41 122 -70 122 l-29 0 0 -145z"/>
<path d="M330 1790 c0 -13 7 -20 20 -20 13 0 20 7 20 20 0 13 -7 20 -20 20
-13 0 -20 -7 -20 -20z"/>
<path d="M1420 1791 c-5 -11 -10 -29 -10 -40 0 -12 -7 -21 -15 -21 -8 0 -15
-7 -15 -15 0 -8 7 -15 15 -15 12 0 15 -17 15 -90 0 -83 1 -90 20 -90 19 0 20
7 20 90 0 83 1 90 20 90 11 0 20 7 20 15 0 9 -9 15 -21 15 -30 0 -22 44 9 48
12 2 22 10 22 18 0 23 -67 18 -80 -5z"/>
<path d="M1532 1788 c-7 -7 -12 -22 -12 -35 0 -13 -4 -23 -10 -23 -5 0 -10 -7
-10 -15 0 -8 5 -15 10 -15 6 0 10 -33 10 -78 0 -86 8 -102 52 -102 20 0 26 4
22 15 -4 8 -12 15 -20 15 -11 0 -14 18 -14 75 0 60 3 75 15 75 8 0 15 7 15 15
0 8 -7 15 -15 15 -10 0 -15 11 -15 35 0 37 -8 43 -28 23z"/>
<path d="M1652 1764 c-12 -8 -22 -19 -22 -25 0 -5 9 0 20 11 11 11 29 20 40
20 11 0 29 -9 40 -20 11 -11 20 -29 20 -40 0 -11 -9 -29 -20 -40 -11 -11 -16
-20 -11 -20 14 0 41 41 41 63 0 10 -11 29 -25 42 -28 29 -51 31 -83 9z"/>
<path d="M1660 1710 c0 -22 -4 -40 -10 -40 -5 0 -10 5 -10 12 0 6 -3 8 -6 5
-8 -8 14 -37 28 -37 5 0 6 5 3 10 -3 6 -1 10 4 10 6 0 11 7 11 15 0 20 10 19
26 -2 7 -10 14 -13 14 -6 0 6 -5 15 -10 18 -8 5 -7 11 0 20 16 19 4 35 -26 35
-21 0 -24 -4 -24 -40z m45 20 c3 -5 -1 -10 -9 -10 -9 0 -16 5 -16 10 0 6 4 10
9 10 6 0 13 -4 16 -10z"/>
<path d="M330 1625 c0 -98 1 -105 20 -105 19 0 20 7 20 105 0 98 -1 105 -20
105 -19 0 -20 -7 -20 -105z"/>
<path d="M436 1699 c-58 -69 -18 -179 65 -179 57 0 115 58 74 74 -10 4 -20 -3
-27 -19 -9 -19 -19 -25 -44 -25 -39 0 -54 21 -54 75 0 20 5 45 10 56 15 26 64
25 84 -2 10 -15 19 -19 31 -12 14 8 14 12 -5 36 -17 22 -30 27 -65 27 -36 0
-48 -5 -69 -31z"/>
<path d="M620 1625 c0 -98 1 -105 20 -105 18 0 20 7 20 80 0 69 3 81 20 90 10
6 25 9 32 8 6 -2 14 5 16 15 3 13 -3 17 -25 17 -16 0 -34 -5 -41 -12 -9 -9
-12 -9 -12 0 0 7 -7 12 -15 12 -12 0 -15 -18 -15 -105z"/>
<path d="M775 1706 c-70 -70 -29 -186 65 -186 51 0 87 30 95 79 8 46 -13 104
-43 120 -36 19 -91 13 -117 -13z m109 -28 c35 -49 9 -128 -41 -128 -15 0 -35
7 -45 17 -23 21 -24 89 -1 115 23 25 68 23 87 -4z"/>
<path d="M986 1708 c-33 -46 -15 -73 63 -98 34 -11 46 -20 46 -35 0 -31 -68
-34 -88 -4 -16 22 -37 19 -37 -6 0 -25 45 -46 91 -43 32 2 47 9 62 30 31 41
13 69 -57 91 -43 14 -56 23 -56 38 0 15 7 19 35 19 22 0 38 -6 41 -15 4 -8 12
-15 19 -15 24 0 26 19 5 40 -29 29 -103 28 -124 -2z"/>
<path d="M1195 1704 c-20 -22 -25 -38 -25 -79 0 -71 30 -105 92 -105 24 0 50
6 59 13 47 36 53 119 13 166 -22 26 -33 31 -70 31 -36 0 -50 -5 -69 -26z m116
-25 c6 -12 11 -36 11 -54 0 -52 -18 -75 -56 -75 -19 0 -40 7 -47 17 -18 21
-18 95 0 116 20 25 78 22 92 -4z"/>
<path d="M160 1391 c-174 -53 -211 -241 -67 -340 23 -15 79 -47 125 -71 96
-50 132 -86 132 -136 0 -64 -32 -95 -117 -109 -48 -8 -149 15 -200 45 l-33 19
0 -53 c0 -63 10 -70 126 -88 227 -35 383 103 303 269 -25 52 -56 77 -180 143
-52 28 -104 62 -116 76 -51 56 -38 120 31 154 65 31 141 27 239 -15 15 -6 17
-1 17 43 0 50 0 51 -37 61 -43 12 -185 13 -223 2z"/>
<path d="M756 1376 c-144 -61 -212 -186 -204 -375 3 -76 9 -107 30 -152 50
-108 141 -179 250 -195 42 -5 57 -15 117 -74 38 -38 83 -76 99 -84 47 -24 116
-36 166 -30 l46 7 0 43 0 43 -50 -6 c-65 -8 -121 14 -180 69 l-45 41 42 14
c59 20 137 93 167 158 53 110 55 270 6 381 -25 59 -85 121 -144 152 -42 21
-67 26 -146 29 -83 3 -102 1 -154 -21z m209 -67 c60 -15 117 -67 145 -131 19
-42 24 -71 24 -143 1 -141 -36 -221 -124 -269 -39 -21 -63 -27 -115 -27 -113
-1 -196 57 -231 164 -21 63 -21 187 1 246 47 132 164 194 300 160z"/>
<path d="M2266 1385 c-145 -51 -189 -208 -87 -305 20 -19 83 -59 139 -89 116
-61 152 -96 152 -147 0 -45 -14 -70 -48 -88 -69 -34 -176 -27 -259 19 l-43 24
0 -53 c0 -63 10 -70 126 -88 227 -35 383 103 303 269 -25 52 -56 77 -180 144
-112 61 -137 82 -145 124 -9 47 17 89 66 109 66 26 140 20 233 -19 15 -6 17
-1 17 43 0 50 0 51 -37 61 -54 15 -191 13 -237 -4z"/>
<path d="M1380 1025 l0 -365 190 0 190 0 0 45 0 45 -145 0 -145 0 0 320 0 320
-45 0 -45 0 0 -365z"/>
<path d="M2860 1189 c-60 -12 -118 -54 -154 -112 -25 -41 -30 -61 -34 -133 -6
-107 9 -161 60 -219 31 -35 52 -49 96 -61 67 -20 152 -14 218 15 41 19 44 22
44 60 l0 40 -52 -24 c-69 -32 -158 -34 -206 -5 -34 21 -71 87 -72 128 l0 22
180 0 180 0 0 56 c0 31 -6 75 -12 98 -17 57 -85 123 -135 131 -21 4 -45 8 -53
10 -8 1 -35 -1 -60 -6z m111 -86 c32 -19 59 -68 59 -107 l0 -26 -135 0 c-77 0
-135 4 -135 9 0 39 55 115 95 131 33 14 85 11 116 -7z"/>
<path d="M4320 1190 c-114 -21 -200 -135 -200 -266 0 -114 45 -205 122 -246
58 -31 193 -32 253 -3 36 18 40 24 43 61 l3 42 -47 -24 c-62 -31 -154 -33
-202 -4 -41 25 -72 76 -72 118 l0 32 181 0 182 0 -6 72 c-4 46 -15 88 -30 117
-39 77 -133 118 -227 101z m99 -83 c30 -15 58 -61 63 -102 l3 -30 -134 -3
-134 -3 6 31 c19 92 119 147 196 107z"/>
<path d="M3406 1169 c-16 -12 -37 -36 -47 -53 l-19 -31 0 48 0 47 -45 0 -45 0
0 -260 0 -260 45 0 45 0 0 163 c0 136 3 168 19 202 29 63 54 80 118 79 l54 -2
-3 42 -3 41 -46 3 c-34 2 -52 -2 -73 -19z"/>
<path d="M4863 1170 c-18 -10 -40 -34 -50 -52 l-18 -33 -3 48 -3 47 -45 0 -44
0 0 -260 0 -260 45 0 45 0 0 140 c0 76 5 162 11 189 18 86 87 138 151 113 l28
-10 0 49 0 49 -42 0 c-25 0 -57 -8 -75 -20z"/>
<path d="M3600 1128 c11 -29 55 -145 98 -258 l78 -205 45 -3 46 -3 96 243 c53
134 99 251 103 261 6 16 1 18 -42 15 l-49 -3 -28 -80 c-16 -44 -51 -143 -78
-220 -27 -77 -49 -129 -49 -115 -1 14 -32 113 -69 220 l-68 195 -51 3 -52 3
20 -53z"/>
<path d="M5075 1169 c-11 -4 -14 -8 -7 -8 6 -1 12 -6 12 -12 0 -5 -4 -7 -10
-4 -15 10 -12 -5 6 -22 12 -13 15 -13 14 -2 -1 8 -2 23 -1 34 1 22 17 10 24
-20 4 -19 5 -19 6 1 1 28 -19 44 -44 33z"/>
<path d="M5030 1121 c0 -6 4 -13 10 -16 6 -3 7 1 4 9 -7 18 -14 21 -14 7z"/>
<path d="M5068 1093 c7 -3 16 -2 19 1 4 3 -2 6 -13 5 -11 0 -14 -3 -6 -6z"/>
</g>
</svg>
