<svg id="Capa_1" data-name="Capa 1" xmlns="http://www.w3.org/2000/svg" viewBox="0 0 308.13 434.94"><defs><style>.cls-1{fill:#fff;}</style></defs><path class="cls-1" d="M702.26,166.53c0,.54.11,1.07.11,1.61,0,18.42,0,36.84,0,55.26,0,1.53-.42,1.89-1.91,1.86-5.25-.1-10.51-.09-15.76,0-1.48,0-1.92-.32-1.91-1.86.08-8.27,0-16.55,0-24.82V196.7c-.74.24-.89.79-1.15,1.2-3.84,5.92-7.68,11.83-11.47,17.78-.78,1.23-1.16,1.5-2.07.06-4.06-6.42-8.22-12.77-12.4-19.23a2.15,2.15,0,0,0-.26,1.6c0,8.52,0,17,0,25.55,0,1.26-.31,1.61-1.59,1.6-5.31-.08-10.63-.1-15.94,0-1.54,0-1.73-.53-1.73-1.85q.06-27.45,0-54.9c0-.67,0-1.33-.05-2h20.67q6.12,10.11,12.26,20.22c0,.07.19.07.35.12l12-19.75c.11-.18.29-.39,0-.59Z" transform="translate(-479.28 -166.53)"/><path class="cls-1" d="M565.2,166.53c0,1.08-.08,2.17-.08,3.25,0,17.88,0,35.75,0,53.62,0,1.54-.43,1.89-1.9,1.87q-8.07-.14-16.13,0c-1.41,0-1.68-.41-1.66-1.72.07-5.44,0-10.87.06-16.31,0-1.39-.38-1.71-1.72-1.68-4.89.08-9.78.09-14.67,0-1.43,0-1.66.43-1.65,1.72.07,5.5,0,11,.06,16.49,0,1.18-.29,1.52-1.49,1.5-5.43-.07-10.87-.09-16.3,0-1.5,0-1.88-.34-1.88-1.86.06-19,0-37.92,0-56.88h19.58c0,6,0,11.93,0,17.89,0,1.2.33,1.51,1.5,1.49,4.82-.06,9.65-.1,14.46,0,1.64,0,2.11-.38,2.09-2.06-.07-5.78.05-11.55.09-17.33Z" transform="translate(-479.28 -166.53)"/><path class="cls-1" d="M627.93,166.53c-.36,5-.09,10-.15,15,0,4.47,0,4.47-4.51,4.47-3.74,0-7.49.06-11.23,0-1.31,0-1.57.36-1.57,1.6,0,12,0,23.93.07,35.89,0,1.42-.35,1.81-1.78,1.79-5.44-.09-10.88-.08-16.31,0-1.29,0-1.59-.35-1.58-1.6,0-11.91,0-23.81.07-35.71,0-1.61-.39-2-2-2-4.53.12-9.06,0-13.6.07-1.37,0-1.84-.26-1.82-1.76.08-5.92,0-11.84,0-17.76Z" transform="translate(-479.28 -166.53)"/><path class="cls-1" d="M731.63,166.53c0,.66.12,1.31.13,2,0,11.85,0,23.69,0,35.53,0,1.46.42,1.79,1.81,1.78,8-.07,16.07,0,24.11-.07,1.31,0,1.77.25,1.74,1.67-.09,5.43-.06,10.87,0,16.31,0,1.12-.21,1.55-1.48,1.54q-22.11-.07-44.23,0c-1.57,0-1.56-.68-1.56-1.83q0-27.47,0-54.93c0-.66,0-1.32-.07-2Z" transform="translate(-479.28 -166.53)"/><path class="cls-1" d="M633.51,252.05q75.94,0,151.91,0c1.79,0,2.13.38,2,2.16-1,10.16-1.88,20.33-2.79,30.49q-1.58,17.5-3.14,35l-2.67,30.13q-1.56,17.42-3.12,34.83-1.35,15.06-2.68,30.13-1.56,17.42-3.12,34.83-1.35,15.15-2.69,30.32-1.54,17.31-3.11,34.64-1.35,15.16-2.69,30.32c-.61,6.91-1.26,13.83-1.8,20.75-.11,1.37-1.08,1.29-1.87,1.51-12,3.33-23.92,6.61-35.87,9.93l-86.88,24.13a5.64,5.64,0,0,1-3.16.1q-61.18-17.06-122.39-34c-1.47-.41-2.18-.86-2.33-2.65-1.53-18.3-3.24-36.58-4.87-54.86-1.52-17-3-33.93-4.49-50.89-1.63-18.29-3.31-36.57-4.94-54.86-1.51-17-3-33.92-4.49-50.89q-2.44-27.42-4.94-54.85c-1.34-14.91-2.63-29.84-4-44.75-.17-1.74.73-1.48,1.75-1.48Zm-.1,282.73c.47-.11.94-.2,1.41-.32L679.73,522l31.18-8.64c.72-.2,1.45-.2,1.55-1.36.53-6.74,1.17-13.48,1.77-20.21q1.34-15.07,2.68-30.14L720,426.8c.91-10.1,1.77-20.21,2.77-30.31.18-1.73-.24-2.05-1.88-2.05q-42.88.07-85.75,0c-.61,0-1.21,0-1.81.08l-25.16-.08H583.76c-.79,0-1.47.15-1.57-1.1q-1.56-18.39-3.28-36.77c-.14-1.46.3-1.66,1.6-1.65,9.6.05,19.19,0,28.79,0q12,0,24.08-.06c.66,0,1.32.06,2,.06h79.37c3.5,0,7,0,10.51,0,.89,0,1.24-.21,1.33-1.18q1.54-17.77,3.21-35.54c.14-1.54-.14-2-1.82-2q-46.49.09-93,.05c-.54,0-1.08,0-1.62.06a5.83,5.83,0,0,0-.72-.06H538.22a4.86,4.86,0,0,1-.54,0c-.92-.12-1.1.28-1,1.15,1,10.82,1.94,21.65,2.91,32.48q1.92,21.29,3.84,42.57,1.73,19.32,3.38,38.62c.12,1.46.51,2,2.12,1.95q41.42-.09,82.84,0c.54,0,1.08,0,1.62-.05,6.22,0,12.45.05,18.67.05,9.06,0,18.12,0,27.19,0,.61,0,1.62-.52,1.45,1-.43,3.9-.71,7.81-1.06,11.72-1,11.55-2.13,23.09-3,34.65-.16,2-.71,2.87-2.72,3.39-13.51,3.55-27,7.25-40.48,10.9q-21.11-5.67-42.23-11.31c-1-.26-.95-.9-1-1.62-.81-9.21-1.67-18.4-2.43-27.61-.12-1.43-.47-1.92-2-1.91-11.72.07-23.44.05-35.16,0-1.23,0-1.84.1-1.69,1.62.73,7.39,1.33,14.8,2,22.19,1,11.55,2.12,23.09,3.06,34.64.14,1.64.58,2.35,2.22,2.8,20.85,5.72,41.66,11.56,62.51,17.3C623.54,532.19,628.39,533.78,633.41,534.78Z" transform="translate(-479.28 -166.53)"/></svg>