<svg id="Capa_1" data-name="Capa 1" xmlns="http://www.w3.org/2000/svg" viewBox="0 0 209.21 120.66"><defs><style>.cls-1{fill:#fff;}</style></defs><path class="cls-1" d="M222.58,27.24a1.06,1.06,0,0,0-.35-.9,2.11,2.11,0,0,0-1.32-.32H220v2.45h1.08c1,0,1.48-.41,1.48-1.23Zm1.39,5.1h-1.23L222,30.62c-.39-.86-.82-1.3-1.28-1.3H220v3h-1V25.16h2a3,3,0,0,1,2,.6,1.74,1.74,0,0,1,.59,1.35,1.77,1.77,0,0,1-.48,1.26,2.44,2.44,0,0,1-1.35.71v0c.4.09.8.53,1.19,1.33l.95,1.91Zm2.24-3.52a5,5,0,1,0-5,5,5,5,0,0,0,5-5Zm.68,0a5.37,5.37,0,0,1-1.64,4,5.91,5.91,0,0,1-8.08,0,5.76,5.76,0,0,1,0-8,5.87,5.87,0,0,1,8-.08,5.32,5.32,0,0,1,1.66,4Z" transform="translate(-17.67 -17)"/><path class="cls-1" d="M73.34,48.82H69.86V28.9c0-1.58.1-3.49.29-5.75h-.08A19.53,19.53,0,0,1,69.18,26L59.06,48.82h-1.7L47.22,26.18a16.73,16.73,0,0,1-.88-3h-.08c.11,1.18.17,3.11.17,5.79V48.82H43.07V19.15h4.59l9.11,20.69a27.21,27.21,0,0,1,1.34,3.55h.15c.59-1.62,1.06-2.83,1.42-3.63L69,19.15h4.36V48.82Z" transform="translate(-17.67 -17)"/><path class="cls-1" d="M84.05,48.82H80.67V27.63h3.38V48.82ZM84.63,20A2.1,2.1,0,0,1,84,21.61a2.27,2.27,0,0,1-3.14,0,2.23,2.23,0,0,1,0-3.15,2.27,2.27,0,0,1,3.14,0A2.06,2.06,0,0,1,84.63,20Z" transform="translate(-17.67 -17)"/><path class="cls-1" d="M105.2,47.84a10.9,10.9,0,0,1-5.81,1.49,9.53,9.53,0,0,1-7.35-3,10.66,10.66,0,0,1-2.73-7.57,11.8,11.8,0,0,1,3-8.42,10.43,10.43,0,0,1,8-3.21,10.84,10.84,0,0,1,4.9,1.08v3.48a8.59,8.59,0,0,0-5-1.66,6.81,6.81,0,0,0-5.28,2.26,8.75,8.75,0,0,0-2.14,6.16,8.42,8.42,0,0,0,2,5.86A6.76,6.76,0,0,0,100,46.44a8.59,8.59,0,0,0,5.22-1.82v3.22Z" transform="translate(-17.67 -17)"/><path class="cls-1" d="M121.38,31.07a4.53,4.53,0,0,0-6.06,1.18,9.25,9.25,0,0,0-1.6,5.77v10.8h-3.39V27.63h3.39V32h.09a7.33,7.33,0,0,1,2.29-3.58,5.08,5.08,0,0,1,3.25-1.16,5.52,5.52,0,0,1,2,.29v3.52Z" transform="translate(-17.67 -17)"/><path class="cls-1" d="M140.29,38.27q0-4.08-1.84-6.21a6.25,6.25,0,0,0-5-2.05,6.52,6.52,0,0,0-5.06,2.07,9,9,0,0,0-2,6.27,8.62,8.62,0,0,0,1.92,5.95,6.6,6.6,0,0,0,5.15,2.14,6.21,6.21,0,0,0,5.11-2.17,9.32,9.32,0,0,0,1.72-6m3.48-.12a11.43,11.43,0,0,1-2.86,8.12,10,10,0,0,1-7.7,3.06,9.75,9.75,0,0,1-7.57-3.06,11,11,0,0,1-2.73-7.8q0-5.52,3.1-8.54a10.51,10.51,0,0,1,7.69-2.82,9.54,9.54,0,0,1,7.41,2.94q2.65,2.94,2.66,8.1" transform="translate(-17.67 -17)"/><path class="cls-1" d="M160.59,43.15a5.5,5.5,0,0,1-2,4.32,8.54,8.54,0,0,1-5.81,1.86,10.45,10.45,0,0,1-5.26-1.27V44.41a8.52,8.52,0,0,0,5.51,2c2.68,0,4-1,4-3a2.64,2.64,0,0,0-.89-2,14.09,14.09,0,0,0-3.48-1.94A11.14,11.14,0,0,1,149,37.08a5.42,5.42,0,0,1-1.35-3.82,5.49,5.49,0,0,1,2.09-4.39,8.1,8.1,0,0,1,5.38-1.76,9.93,9.93,0,0,1,4.53,1v3.41a8,8,0,0,0-4.8-1.51,4.18,4.18,0,0,0-2.7.82,2.65,2.65,0,0,0-1,2.14,2.81,2.81,0,0,0,.85,2.19,11.91,11.91,0,0,0,3.18,1.76A12.08,12.08,0,0,1,159,39.27a5.18,5.18,0,0,1,1.56,3.88" transform="translate(-17.67 -17)"/><path class="cls-1" d="M181.32,38.27a9.28,9.28,0,0,0-1.84-6.21,6.25,6.25,0,0,0-5-2.05,6.56,6.56,0,0,0-5.07,2.07,9,9,0,0,0-2,6.27,8.66,8.66,0,0,0,1.91,5.95,6.64,6.64,0,0,0,5.16,2.14,6.21,6.21,0,0,0,5.11-2.17,9.32,9.32,0,0,0,1.72-6m3.48-.12a11.43,11.43,0,0,1-2.86,8.12,10,10,0,0,1-7.7,3.06,9.75,9.75,0,0,1-7.57-3.06,11,11,0,0,1-2.73-7.8c0-3.68,1-6.53,3.1-8.54a10.5,10.5,0,0,1,7.7-2.82,9.51,9.51,0,0,1,7.4,2.94c1.76,2,2.66,4.66,2.66,8.1" transform="translate(-17.67 -17)"/><path class="cls-1" d="M199.75,20.43a4.55,4.55,0,0,0-2.25-.56c-2.38,0-3.56,1.5-3.56,4.49v3.27h5V30.5h-5V48.82h-3.39V30.5h-3.61V27.63h3.61V24.2a7,7,0,0,1,2.16-5.48A6.5,6.5,0,0,1,197.29,17a6.7,6.7,0,0,1,2.46.37v3.06Z" transform="translate(-17.67 -17)"/><path class="cls-1" d="M213.14,48.61a6.4,6.4,0,0,1-3.19.69q-5.55,0-5.55-6.26V30.51h-3.63V27.63h3.63V22.46c1.09-.34,2.21-.71,3.4-1.1v6.27h5.34v2.88H207.8v12a4.8,4.8,0,0,0,.72,3,2.92,2.92,0,0,0,2.42.91,3.64,3.64,0,0,0,2.2-.68v2.89Z" transform="translate(-17.67 -17)"/><path class="cls-1" d="M29.77,131.53a6.16,6.16,0,0,1-6.13,6.13,5.64,5.64,0,0,1-4.23-1.82,6.25,6.25,0,0,1,0-8.65,5.65,5.65,0,0,1,4.23-1.79A5.86,5.86,0,0,1,28,127.21a5.93,5.93,0,0,1,1.79,4.32" transform="translate(-17.67 -17)"/><path class="cls-1" d="M105.72,136.41H94.66l-40.16-62a27.76,27.76,0,0,1-2.43-4.88h-.33a82.1,82.1,0,0,1,.43,10.69v56.21H43.05V58.61H54.88l39,61c1.55,2.43,2.61,4.16,3.15,5.2h.21a82.36,82.36,0,0,1-.54-11.43V58.61h9.06v77.8Z" transform="translate(-17.67 -17)"/><path class="cls-1" d="M164.18,136.41H123V58.61h39.44v8.24H132.06V92.73h28.11V101H132.06v27.18h32.12v8.25Z" transform="translate(-17.67 -17)"/><path class="cls-1" d="M226.73,66.85H204.32v69.56H195.2V66.85H172.75V58.6h54v8.25Z" transform="translate(-17.67 -17)"/></svg>