<svg id="Capa_1" data-name="Capa 1" xmlns="http://www.w3.org/2000/svg" viewBox="0 0 459.5 459.5"><defs><style>.cls-1{fill:#fff;}</style></defs><path class="cls-1" d="M356,125V584.5H815.5V125ZM598.2,518.55c-6.77,13.75-19.7,22.79-34.68,27.16-23,5.29-45,2.27-61.41-7.55-11-6.73-19.53-17.08-25.34-29q17.49-10.68,34.94-21.4a21.55,21.55,0,0,1,2.45,3.93c4.46,7.47,8.3,12.76,15.86,16.47,7.42,2.53,23.71,4.15,30-8.91,3.85-6.64,2.62-28.3,2.62-51.93,0-37.13.18-74,.18-111.12h43c0,39.53.22,78.92,0,118.32C605.89,478.67,608,500.51,598.2,518.55ZM776.5,506.4c-14.94,51.11-98.24,52.77-131.52,19-7-7.95-11.45-12.1-15.64-21.27C647,494,647,494,664.24,484c9.35,14.37,18,22.27,33.55,25.5,21.09,2.58,42.32-4.67,37.56-27.08-4.89-18.3-43.2-22.75-69.27-42.32-26.47-17.78-32.68-61-10.92-85.66,7.25-9.12,19.61-15.94,32.58-19.21,4.5-.57,9-1.18,13.54-1.75,26-.53,42.24,6.33,54.16,19.65,3.32,3.37,6,7,11.1,14.86-13.85,8.82-13.81,8.73-33.64,21.57-4.23-9.13-11.27-14.85-18.69-17.34-11.53-3.49-26.08.31-29.09,12.49-1,3.76-.83,7.25.83,13.46,4.67,10.65,20.35,15.28,34.42,21.75,40.49,16.42,54.16,34,57.52,55C781.13,493,777.11,504.66,776.5,506.4Z" transform="translate(-356 -125)"/></svg>