<svg id="Capa_1" data-name="Capa 1" xmlns="http://www.w3.org/2000/svg" viewBox="0 0 389.8 201.3"><defs><style>.cls-1,.cls-2{fill:#fff;}.cls-2{fill-rule:evenodd;}</style></defs><path class="cls-1" d="M678.47,416.87h12.84V366.16l19.88,44.21c2.35,5.35,5.56,7.24,11.85,7.24s9.39-1.89,11.74-7.24l19.88-44.21v50.71H767.5V366.24c0-4.94-2-7.32-6-8.56-9.76-3-16.3-.41-19.27,6.18l-19.51,43.63-18.89-43.63c-2.84-6.59-9.51-9.22-19.26-6.18-4.08,1.24-6,3.62-6,8.56v50.63Z" transform="translate(-678.47 -233.52)"/><path class="cls-1" d="M778.18,375.59H791v27.94c-.12,1.52.49,5.08,7.52,5.19,3.59.06,27.71,0,27.93,0V375.46h12.87c.06,0,0,45.36,0,45.56.07,11.18-13.89,13.61-20.32,13.8H778.45v-8.64h40.62c8.27-.87,7.29-5,7.29-6.36v-3.37H799.07c-12.7-.12-20.79-5.66-20.89-12,0-.59.28-28.54,0-28.82Z" transform="translate(-678.47 -233.52)"/><path class="cls-1" d="M849.22,416.87h36.93A28.37,28.37,0,0,0,898,414.4c5.56-2.55,8.27-6,8.27-10.54v-9.38c0-3.71-3.08-7.16-9.13-9.47a31.77,31.77,0,0,0-11-1.89H870.59c-5.19,0-7.66-1.57-8.28-5a3.79,3.79,0,0,1-.12-1.16V371.1a3.51,3.51,0,0,1,.12-1.07c.62-2.63,2-3.38,6.55-3.79.37,0,.86-.08,1.23-.08h36.68V357.6H870.71c-5.19,0-7.9.33-10.37,1.07-7.66,2.39-11,6.17-11,12.76v7.49c0,5.76,6.54,10.7,17.53,11.85,1.24.09,2.47.17,3.71.17h13.33a7.05,7.05,0,0,1,1.36.08c4.08.33,5.8,1.07,7,2.55a3.08,3.08,0,0,1,1,2.31v7.49a4.3,4.3,0,0,1-1.85,3.05,9.24,9.24,0,0,1-5.44,1.81c-.49,0-.86.08-1.36.08H849.22v8.56Z" transform="translate(-678.47 -233.52)"/><path class="cls-1" d="M986.39,402c0,8.81,6.54,13.75,19.75,14.74,1.24.08,2.47.16,3.71.16h33.46v-8.56H1009.6c-7.53,0-10.37-1.89-10.37-6.42V357.6H986.39V402Z" transform="translate(-678.47 -233.52)"/><path class="cls-1" d="M914.47,402.42V371.9c0-7.76,5.44-12.46,16.21-13.94a23.69,23.69,0,0,1,3.46-.25h24.38a25.49,25.49,0,0,1,3.59.25c10.76,1.48,16.21,6.18,16.21,13.94v30.52c0,6.29-2.31,9.66-7.64,11.85l12.65,11.42H968.41l-10.23-9.24-10.3.65H934.14A28.47,28.47,0,0,1,926.6,416c-8.17-2.23-12.13-6.52-12.13-13.61Zm13.86-.74a5.42,5.42,0,0,0,.25,1.32c.74,3.54,4.08,5.52,9.15,5.52H949.4l-10.72-9.67h14.91l9.35,8.44a6.07,6.07,0,0,0,3.25-4.13,4,4,0,0,0,.13-1.23V372.64a3.72,3.72,0,0,0-.13-1.15c-.74-3.3-4.08-5.2-9-5.2H937.73c-5.69,0-9.4,2.47-9.4,6.35v29Z" transform="translate(-678.47 -233.52)"/><path class="cls-1" d="M1054.61,343.4c-7.9-.22-13.93.52-19.08,2.69-1.47.62-3.8.63-4,2.47.8.84.93,2.1,1.57,3.14a24.69,24.69,0,0,0,5.16,6.06c2,1.53,4.12,3.17,6.29,4.49,3.86,2.36,8.17,3.7,11.89,6.06,2.2,1.39,4.37,3.15,6.51,4.72,1.06.77,1.77,2,3.15,2.47v-.23c-.73-.92-.91-2.18-1.58-3.14l-2.91-2.92a48.18,48.18,0,0,0-10.33-9.88c-3.07-2.2-9.94-5.18-11.22-8.75l-.23-.22a49.8,49.8,0,0,0,6.74-1.58c3.37-.9,6.39-.67,9.87-1.57l4.72-1.34V345c-1.76-1.81-3-4.2-4.94-5.84A144.87,144.87,0,0,0,1040,327c-3.13-2-7-3.26-10.33-4.94-1.11-.56-3.08-.85-3.81-1.79-1.75-2.23-2.7-5-4-7.63-2.82-5.43-5.59-11.36-8.08-17.06-1.71-3.9-2.82-7.74-4.94-11.23-10.19-16.75-21.16-26.87-38.16-36.81-3.62-2.11-8-3-12.57-4l-7.41-.45c-1.5-.63-3.07-2.47-4.49-3.37-5.63-3.55-20.07-11.29-24.24-1.12-2.63,6.42,3.94,12.69,6.29,15.94,1.65,2.28,3.76,4.84,4.93,7.41.78,1.68.91,3.37,1.58,5.16,1.63,4.4,3,9.18,5.16,13.24a46.91,46.91,0,0,0,3.59,6.06c.83,1.13,2.24,1.63,2.47,3.37-1.39,1.94-1.47,4.95-2.25,7.41-3.5,11.06-2.18,24.81,2.92,33,1.57,2.52,5.26,7.91,10.33,5.84,4.43-1.81,3.44-7.41,4.71-12.35.29-1.12.11-1.94.67-2.69v.23q2,4,4,8.08c3,4.81,8.3,9.84,12.8,13.24,2.33,1.76,4.17,4.81,7.18,5.84v-.23h-.22c-.59-.91-1.5-1.29-2.25-2a51.07,51.07,0,0,1-5.16-5.84,136.42,136.42,0,0,1-11-17.95c-1.57-3-2.94-6.36-4.26-9.43-.51-1.19-.51-3-1.57-3.59-1.46,2.25-3.59,4.07-4.72,6.73-1.79,4.25-2,9.44-2.69,14.82-.4.14-.22,0-.45.22-3.13-.75-4.23-4-5.39-6.73-2.94-7-3.48-18.23-.9-26.26.67-2.08,3.7-8.63,2.47-10.55-.58-1.92-2.51-3-3.59-4.49a35.42,35.42,0,0,1-3.59-6.29c-2.4-5.44-3.53-11.56-6.06-17.06a50,50,0,0,0-4.94-7.63c-1.86-2.59-3.94-4.5-5.38-7.63-.52-1.12-1.22-2.9-.45-4a1.76,1.76,0,0,1,1.34-1.35c1.31-1,4.93.33,6.29.9a54.35,54.35,0,0,1,9.65,4.94c1.46,1,2.94,2.84,4.71,3.36h2c3.16.73,6.7.23,9.66,1.13A58.39,58.39,0,0,1,974,256.08a87.65,87.65,0,0,1,30.75,33.67c1.16,2.23,1.67,4.37,2.69,6.73,2.07,4.78,4.68,9.7,6.74,14.37s4,9.36,6.95,13.24c1.53,2,7.43,3.14,10.1,4.27,1.88.79,5,1.62,6.74,2.69,3.4,2.05,6.69,4.49,9.87,6.74,1.6,1.12,6.49,3.58,6.74,5.61Z" transform="translate(-678.47 -233.52)"/><path class="cls-2" d="M954.27,257.88a16.53,16.53,0,0,0-4,.44v.23h.23c.78,1.61,2.17,2.65,3.14,4l2.25,4.71c.07-.07.14-.15.22-.22,1.39-1,2-2.55,2-4.94-.56-.59-.64-1.32-1.12-2-.65-.93-1.89-1.46-2.7-2.24Z" transform="translate(-678.47 -233.52)"/><path class="cls-2" d="M1049.34,408.07a9.47,9.47,0,1,0,9.46-9.47,9.34,9.34,0,0,0-9.46,9.47Zm16.81,0a7.35,7.35,0,1,1-7.35-7.5,7.32,7.32,0,0,1,7.35,7.5Zm-4.8,5.4h2.12l-3.1-4.75c1.66-.17,2.92-1,2.92-3,0-2.2-1.38-3.1-4.06-3.1H1055v10.8h1.81V408.8h1.7l2.82,4.67Zm-4.52-6.19v-3.1h2.1c1.08,0,2.4.2,2.4,1.46,0,1.52-1.19,1.64-2.55,1.64Z" transform="translate(-678.47 -233.52)"/></svg>