<svg id="Capa_1" data-name="Capa 1" xmlns="http://www.w3.org/2000/svg" viewBox="0 0 249.26 125.24"><defs><style>.cls-1{fill:#fff;}</style></defs><path class="cls-1" d="M193.15,357.35h37q16.27.13,23.58,9.37T258.53,392a48.53,48.53,0,0,1-4.27,14.34A42.73,42.73,0,0,1,245.43,419q-6.9,7.17-14.76,9.1A67.88,67.88,0,0,1,214.39,430H197.84l-5.24,26.2H173.43l19.72-98.89h0m16.14,15.72L201,414.45a10.43,10.43,0,0,0,1.66.14h1.93q13.25.14,22.07-2.62t11.86-20.14q2.49-14.49-5-16.69t-18.35-2.07c-1.1.09-2.16.14-3.17.14h-2.9l.14-.14" transform="translate(-173.43 -331)"/><path class="cls-1" d="M280.37,331h19L294,357.35h17.1q14.07.27,21,5.79t4.13,21L327,430H307.68l8.83-43.87q1.38-6.9-.83-9.79t-9.51-2.9l-15.32-.13L279.54,430h-19l19.86-99h0" transform="translate(-173.43 -331)"/><path class="cls-1" d="M356.67,357.35h37q16.28.13,23.59,9.37T422.05,392a48.24,48.24,0,0,1-4.27,14.34A42.73,42.73,0,0,1,409,419q-6.9,7.17-14.76,9.1A67.86,67.86,0,0,1,377.92,430H361.36l-5.24,26.2H337l19.72-98.89h0m16.14,15.72-8.27,41.38a10.21,10.21,0,0,0,1.65.14h1.93q13.25.14,22.07-2.62t11.86-20.14q2.49-14.49-5-16.69t-18.35-2.07c-1.1.09-2.16.14-3.17.14h-2.9l.14-.14" transform="translate(-173.43 -331)"/></svg>