<?xml version="1.0" encoding="utf-8"?>
<!-- Generator: Adobe Illustrator 16.0.0, SVG Export Plug-In . SVG Version: 6.00 Build 0)  -->
<!DOCTYPE svg PUBLIC "-//W3C//DTD SVG 1.1//EN" "http://www.w3.org/Graphics/SVG/1.1/DTD/svg11.dtd">
<svg version="1.1" id="Layer_1" xmlns="http://www.w3.org/2000/svg" xmlns:xlink="http://www.w3.org/1999/xlink" x="0px" y="0px"
	 width="141.732px" height="52.082px" viewBox="0 0 141.732 52.082" enable-background="new 0 0 141.732 52.082"
	 xml:space="preserve">
<g>
	<defs>
		<rect id="SVGID_1_" x="-0.252" width="141.984" height="52.082"/>
	</defs>
	<clipPath id="SVGID_2_">
		<use xlink:href="#SVGID_1_"  overflow="visible"/>
	</clipPath>
	
		<line clip-path="url(#SVGID_2_)" fill="none" stroke="#999999" stroke-width="0.1669" stroke-miterlimit="10" x1="62.837" y1="40.448" x2="138.44" y2="40.448"/>
</g>
<g>
	<linearGradient id="SVGID_3_" gradientUnits="userSpaceOnUse" x1="24.873" y1="-1.2285" x2="24.873" y2="51.6445">
		<stop  offset="0" style="stop-color:#50A07B"/>
		<stop  offset="0.4462" style="stop-color:#47A08E"/>
		<stop  offset="1" style="stop-color:#3CA0A6"/>
	</linearGradient>
	<path fill-rule="evenodd" clip-rule="evenodd" fill="url(#SVGID_3_)" d="M24.887,2.188c12.784-0.02,23.865,10.2,23.86,24.024
		C48.743,39.037,38.28,49.887,24.855,49.901C11.542,49.916,0.73,39.092,1.005,25.428C1.261,12.74,11.724,2.197,24.887,2.188z
		 M24.95,3.177C12.259,3.18,2.403,13.225,1.966,25.165c-0.478,13.069,9.843,23.84,22.896,23.846
		c12.855,0.004,22.829-10.348,22.953-22.635C47.944,13.646,37.765,3.312,24.95,3.177z"/>
	<linearGradient id="SVGID_4_" gradientUnits="userSpaceOnUse" x1="24.8652" y1="-1.2285" x2="24.8652" y2="51.6451">
		<stop  offset="0" style="stop-color:#50A07B"/>
		<stop  offset="0.4462" style="stop-color:#47A08E"/>
		<stop  offset="1" style="stop-color:#3CA0A6"/>
	</linearGradient>
	<path fill-rule="evenodd" clip-rule="evenodd" fill="url(#SVGID_4_)" d="M25.124,24.171c1.25-0.327,1.729-0.946,1.727-2.195
		c0-0.439,0.004-0.878-0.002-1.318c-0.013-0.946-0.521-1.639-1.431-1.884c-0.252-0.068-0.308-0.175-0.304-0.41
		c0.012-0.916,0.006-1.832,0.008-2.747c0-0.036,0.021-0.07,0.047-0.159c0.215,0.029,0.439,0.03,0.646,0.093
		c1.474,0.453,2.947,0.907,4.414,1.382c1.56,0.505,2.525,1.562,2.799,3.187c0.256,1.521,0.467,3.05,0.69,4.577
		c0.282,1.924,0.655,3.841,0.818,5.774c0.255,3.042-0.619,5.694-3.163,7.59c-1.245,0.927-2.7,1.363-4.224,1.581
		c-2.085,0.297-4.156,0.24-6.188-0.349c-3.246-0.941-5.088-3.128-5.7-6.427c-0.235-1.267-0.051-2.502,0.119-3.74
		c0.344-2.521,0.706-5.041,1.095-7.557c0.122-0.789,0.311-1.575,0.541-2.34c0.253-0.84,0.813-1.479,1.602-1.863
		c0.674-0.328,1.373-0.621,2.086-0.854c1.131-0.367,2.281-0.684,3.43-0.999c0.494-0.136,0.539-0.08,0.54,0.428
		c0,0.79-0.008,1.58,0.002,2.372c0.003,0.256-0.05,0.391-0.339,0.47c-0.904,0.247-1.393,0.925-1.397,1.859
		c-0.003,0.515-0.007,1.028,0,1.544c0.013,1,0.509,1.657,1.478,1.917c0.215,0.058,0.249,0.153,0.247,0.335
		c-0.005,0.64-0.007,1.279,0,1.921c0,0.164-0.052,0.381,0.226,0.387c0.281,0.008,0.231-0.207,0.232-0.374
		C25.126,25.645,25.124,24.918,25.124,24.171z"/>
	<linearGradient id="SVGID_5_" gradientUnits="userSpaceOnUse" x1="17.2109" y1="-1.2285" x2="17.2109" y2="51.6454">
		<stop  offset="0" style="stop-color:#50A07B"/>
		<stop  offset="0.4462" style="stop-color:#47A08E"/>
		<stop  offset="1" style="stop-color:#3CA0A6"/>
	</linearGradient>
	<path fill-rule="evenodd" clip-rule="evenodd" fill="url(#SVGID_5_)" d="M5.465,25.473c0.028,2.277,0.245,4.065,0.798,5.801
		c0.113,0.357,0.018,0.479-0.318,0.577c-1.146,0.342-1.15,0.355-1.435-0.809c-1.292-5.285-0.705-10.357,1.883-15.14
		C9.518,10.126,14.368,6.61,20.783,5.25c0.794-0.168,1.021,0.187,0.944,0.786c-0.019,0.149-0.01,0.301-0.014,0.452
		c-0.021,1.033,0.456,1.541,1.479,1.563c1.757,0.039,3.513,0.077,5.269,0.104c0.549,0.009,1.044,0.143,1.461,0.505
		c0.588,0.511,0.794,1.271,0.549,1.978c-0.251,0.727-0.941,1.245-1.741,1.287c-0.476,0.024-0.954,0.021-1.431,0.034
		c-1.193,0.035-1.901,0.764-1.904,1.955c-0.001,0.288-0.012,0.577,0.002,0.866c0.012,0.233-0.092,0.303-0.312,0.301
		c-0.86-0.007-0.7,0.047-0.698-0.659c0.002-0.462-0.008-0.939,0.099-1.382c0.271-1.115,1.354-1.947,2.543-2.01
		c0.563-0.029,1.131-0.008,1.691-0.06c0.493-0.047,0.842-0.465,0.837-0.913c-0.004-0.46-0.348-0.841-0.838-0.919
		c-0.123-0.02-0.249-0.02-0.375-0.021c-1.644-0.033-3.286-0.063-4.93-0.098c-0.213-0.003-0.427-0.011-0.639-0.034
		c-1.039-0.113-1.763-0.723-2.023-1.739c-0.078-0.301-0.238-0.255-0.447-0.204C17.623,7.7,15.174,8.85,13.003,10.56
		c-4.053,3.196-6.474,7.365-7.304,12.451C5.541,23.973,5.512,24.956,5.465,25.473z"/>
	<linearGradient id="SVGID_6_" gradientUnits="userSpaceOnUse" x1="37.5283" y1="-1.2285" x2="37.5283" y2="51.644">
		<stop  offset="0" style="stop-color:#50A07B"/>
		<stop  offset="0.4462" style="stop-color:#47A08E"/>
		<stop  offset="1" style="stop-color:#3CA0A6"/>
	</linearGradient>
	<path fill-rule="evenodd" clip-rule="evenodd" fill="url(#SVGID_6_)" d="M29.106,6.894c0.114-0.506,0.227-1.004,0.349-1.546
		c0.156,0.03,0.29,0.048,0.417,0.083c7.277,1.962,12.27,6.465,14.862,13.536c1.649,4.494,1.564,9.049,0.087,13.59
		c-0.083,0.255-0.196,0.31-0.438,0.209c-0.266-0.111-0.539-0.212-0.817-0.281c-0.307-0.078-0.357-0.22-0.26-0.514
		c0.496-1.494,0.851-3.026,0.927-4.601c0.368-7.606-2.634-13.543-8.924-17.812c-1.782-1.21-3.762-2-5.85-2.518
		c-0.084-0.021-0.169-0.045-0.252-0.071C29.187,6.963,29.167,6.941,29.106,6.894z"/>
	<linearGradient id="SVGID_7_" gradientUnits="userSpaceOnUse" x1="24.6621" y1="-1.2334" x2="24.6621" y2="51.645">
		<stop  offset="0" style="stop-color:#50A07B"/>
		<stop  offset="0.4462" style="stop-color:#47A08E"/>
		<stop  offset="1" style="stop-color:#3CA0A6"/>
	</linearGradient>
	<path fill-rule="evenodd" clip-rule="evenodd" fill="url(#SVGID_7_)" d="M10.117,38.506c3.9,4.314,8.677,6.68,14.449,6.765
		c5.762,0.087,10.63-2.085,14.649-6.253c0.339,0.313,0.659,0.609,0.979,0.905c0.215,0.197,0.016,0.309-0.097,0.426
		c-1.323,1.373-2.789,2.564-4.432,3.532c-3.577,2.105-7.439,3.11-11.586,2.946c-4.776-0.189-9.017-1.832-12.691-4.886
		c-0.789-0.656-1.477-1.431-2.217-2.146c-0.185-0.179-0.19-0.32,0.018-0.49C9.502,39.056,9.796,38.785,10.117,38.506z"/>
	<linearGradient id="SVGID_8_" gradientUnits="userSpaceOnUse" x1="24.8789" y1="-1.2285" x2="24.8789" y2="51.6454">
		<stop  offset="0" style="stop-color:#50A07B"/>
		<stop  offset="0.4462" style="stop-color:#47A08E"/>
		<stop  offset="1" style="stop-color:#3CA0A6"/>
	</linearGradient>
	<path fill-rule="evenodd" clip-rule="evenodd" fill="url(#SVGID_8_)" d="M34.632,33.15c-0.027,2.718-0.582,5.238-2.757,7.114
		c-1.14,0.983-2.501,1.532-3.962,1.81c-2.244,0.427-4.497,0.437-6.716-0.156c-3.399-0.905-5.343-3.151-5.918-6.605
		c-0.063-0.383-0.107-0.769-0.145-1.156c-0.019-0.198-0.003-0.4-0.003-0.64c0.033,0.068,0.063,0.108,0.072,0.153
		c0.703,3.649,2.966,5.759,6.53,6.522c2.678,0.572,5.344,0.479,7.923-0.502c2.793-1.064,4.318-3.188,4.88-6.066
		C34.567,33.466,34.6,33.308,34.632,33.15z"/>
	<linearGradient id="SVGID_9_" gradientUnits="userSpaceOnUse" x1="24.8955" y1="-1.2295" x2="24.8955" y2="51.6456">
		<stop  offset="0" style="stop-color:#50A07B"/>
		<stop  offset="0.4462" style="stop-color:#47A08E"/>
		<stop  offset="1" style="stop-color:#3CA0A6"/>
	</linearGradient>
	<path fill-rule="evenodd" clip-rule="evenodd" fill="url(#SVGID_9_)" d="M26.343,21.434c0,0.301,0.012,0.603-0.003,0.901
		c-0.042,0.817-0.666,1.395-1.483,1.38c-0.805-0.014-1.386-0.591-1.402-1.41c-0.012-0.601-0.014-1.202,0.001-1.804
		c0.02-0.726,0.61-1.297,1.359-1.343c0.731-0.043,1.394,0.443,1.492,1.151c0.052,0.367,0.009,0.749,0.009,1.124
		C26.325,21.434,26.334,21.434,26.343,21.434z"/>
</g>
<g>
	<path fill="#666666" d="M66.598,46.617c0.233,0.144,0.576,0.264,0.936,0.264c0.533,0,0.846-0.281,0.846-0.689
		c0-0.378-0.216-0.594-0.762-0.804c-0.66-0.233-1.067-0.575-1.067-1.146c0-0.629,0.521-1.097,1.308-1.097
		c0.413,0,0.713,0.096,0.893,0.197l-0.144,0.426c-0.132-0.071-0.401-0.191-0.768-0.191c-0.552,0-0.762,0.33-0.762,0.605
		c0,0.378,0.246,0.563,0.804,0.779c0.684,0.264,1.031,0.594,1.031,1.188c0,0.624-0.462,1.163-1.415,1.163
		c-0.39,0-0.815-0.113-1.031-0.258L66.598,46.617z"/>
	<path fill="#666666" d="M72.83,45.777c0,1.074-0.744,1.542-1.445,1.542c-0.785,0-1.392-0.576-1.392-1.493
		c0-0.972,0.636-1.542,1.439-1.542C72.267,44.284,72.83,44.891,72.83,45.777z M70.527,45.808c0,0.636,0.365,1.115,0.882,1.115
		c0.503,0,0.881-0.474,0.881-1.127c0-0.492-0.246-1.115-0.869-1.115C70.797,44.681,70.527,45.256,70.527,45.808z"/>
	<path fill="#666666" d="M74.092,42.995h0.528v4.258h-0.528V42.995z"/>
	<path fill="#666666" d="M78.53,46.461c0,0.3,0.006,0.564,0.024,0.792h-0.468l-0.03-0.474h-0.012c-0.138,0.233-0.444,0.54-0.96,0.54
		c-0.455,0-1.001-0.252-1.001-1.271v-1.697h0.527v1.607c0,0.552,0.168,0.923,0.647,0.923c0.354,0,0.6-0.245,0.696-0.479
		c0.029-0.078,0.048-0.174,0.048-0.27v-1.781h0.527V46.461z"/>
	<path fill="#666666" d="M82.07,47.145c-0.138,0.072-0.444,0.168-0.834,0.168c-0.875,0-1.445-0.594-1.445-1.48
		c0-0.894,0.612-1.541,1.56-1.541c0.312,0,0.588,0.077,0.731,0.149l-0.12,0.408c-0.126-0.072-0.323-0.139-0.611-0.139
		c-0.666,0-1.025,0.492-1.025,1.098c0,0.672,0.432,1.086,1.007,1.086c0.301,0,0.498-0.078,0.648-0.145L82.07,47.145z"/>
	<path fill="#666666" d="M83.871,43.535c0.006,0.18-0.126,0.323-0.336,0.323c-0.186,0-0.317-0.144-0.317-0.323
		c0-0.187,0.138-0.33,0.329-0.33C83.745,43.205,83.871,43.349,83.871,43.535z M83.283,47.253v-2.902h0.528v2.902H83.283z"/>
	<path fill="#666666" d="M87.908,45.777c0,1.074-0.744,1.542-1.445,1.542c-0.785,0-1.392-0.576-1.392-1.493
		c0-0.972,0.636-1.542,1.439-1.542C87.345,44.284,87.908,44.891,87.908,45.777z M85.605,45.808c0,0.636,0.365,1.115,0.882,1.115
		c0.503,0,0.881-0.474,0.881-1.127c0-0.492-0.246-1.115-0.869-1.115C85.875,44.681,85.605,45.256,85.605,45.808z"/>
	<path fill="#666666" d="M89.169,45.136c0-0.3-0.006-0.545-0.023-0.785h0.468l0.029,0.479h0.013
		c0.144-0.275,0.479-0.546,0.959-0.546c0.402,0,1.025,0.24,1.025,1.235v1.733h-0.527V45.58c0-0.468-0.174-0.857-0.672-0.857
		c-0.348,0-0.617,0.245-0.708,0.539c-0.023,0.066-0.035,0.156-0.035,0.246v1.745h-0.528V45.136z"/>
	<path fill="#666666" d="M93.387,45.897c0.012,0.714,0.468,1.008,0.996,1.008c0.377,0,0.605-0.066,0.803-0.15l0.09,0.378
		c-0.186,0.084-0.503,0.18-0.965,0.18c-0.894,0-1.428-0.587-1.428-1.463c0-0.875,0.516-1.565,1.361-1.565
		c0.947,0,1.199,0.834,1.199,1.367c0,0.108-0.012,0.192-0.018,0.246H93.387z M94.934,45.52c0.007-0.336-0.138-0.857-0.731-0.857
		c-0.533,0-0.768,0.492-0.81,0.857H94.934z"/>
	<path fill="#666666" d="M96.622,46.713c0.155,0.103,0.432,0.21,0.695,0.21c0.384,0,0.563-0.191,0.563-0.432
		c0-0.252-0.149-0.39-0.54-0.533c-0.521-0.187-0.768-0.474-0.768-0.822c0-0.468,0.378-0.852,1.002-0.852
		c0.294,0,0.552,0.084,0.714,0.181l-0.132,0.384c-0.114-0.072-0.324-0.168-0.594-0.168c-0.313,0-0.486,0.18-0.486,0.396
		c0,0.24,0.174,0.348,0.552,0.491c0.504,0.192,0.762,0.444,0.762,0.876c0,0.51-0.396,0.869-1.085,0.869
		c-0.318,0-0.612-0.077-0.816-0.197L96.622,46.713z"/>
	<path fill="#666666" d="M104.036,42.995v3.508c0,0.258,0.006,0.552,0.024,0.75h-0.475l-0.023-0.504h-0.012
		c-0.162,0.324-0.516,0.57-0.99,0.57c-0.701,0-1.241-0.594-1.241-1.476c-0.006-0.966,0.594-1.56,1.302-1.56
		c0.443,0,0.743,0.21,0.875,0.444h0.013v-1.733H104.036z M103.509,45.532c0-0.066-0.006-0.156-0.024-0.223
		c-0.078-0.335-0.365-0.611-0.762-0.611c-0.546,0-0.869,0.479-0.869,1.121c0,0.588,0.288,1.074,0.857,1.074
		c0.354,0,0.678-0.234,0.773-0.63c0.019-0.072,0.024-0.145,0.024-0.229V45.532z"/>
	<path fill="#666666" d="M105.801,45.897c0.012,0.714,0.468,1.008,0.996,1.008c0.377,0,0.605-0.066,0.803-0.15l0.09,0.378
		c-0.186,0.084-0.503,0.18-0.965,0.18c-0.894,0-1.428-0.587-1.428-1.463c0-0.875,0.516-1.565,1.361-1.565
		c0.947,0,1.199,0.834,1.199,1.367c0,0.108-0.012,0.192-0.018,0.246H105.801z M107.348,45.52c0.007-0.336-0.138-0.857-0.731-0.857
		c-0.533,0-0.768,0.492-0.81,0.857H107.348z"/>
	<path fill="#666666" d="M110.919,46.617c0.233,0.144,0.575,0.264,0.936,0.264c0.533,0,0.846-0.281,0.846-0.689
		c0-0.378-0.216-0.594-0.762-0.804c-0.66-0.233-1.067-0.575-1.067-1.146c0-0.629,0.521-1.097,1.308-1.097
		c0.413,0,0.713,0.096,0.893,0.197l-0.144,0.426c-0.132-0.071-0.401-0.191-0.768-0.191c-0.552,0-0.762,0.33-0.762,0.605
		c0,0.378,0.246,0.563,0.804,0.779c0.684,0.264,1.031,0.594,1.031,1.188c0,0.624-0.462,1.163-1.415,1.163
		c-0.39,0-0.815-0.113-1.031-0.258L110.919,46.617z"/>
	<path fill="#666666" d="M115.112,43.535c0.006,0.18-0.126,0.323-0.336,0.323c-0.186,0-0.317-0.144-0.317-0.323
		c0-0.187,0.138-0.33,0.329-0.33C114.986,43.205,115.112,43.349,115.112,43.535z M114.524,47.253v-2.902h0.528v2.902H114.524z"/>
	<path fill="#666666" d="M116.451,46.713c0.155,0.103,0.432,0.21,0.695,0.21c0.384,0,0.563-0.191,0.563-0.432
		c0-0.252-0.149-0.39-0.54-0.533c-0.521-0.187-0.768-0.474-0.768-0.822c0-0.468,0.378-0.852,1.002-0.852
		c0.294,0,0.552,0.084,0.714,0.181l-0.132,0.384c-0.114-0.072-0.324-0.168-0.594-0.168c-0.313,0-0.486,0.18-0.486,0.396
		c0,0.24,0.174,0.348,0.552,0.491c0.504,0.192,0.762,0.444,0.762,0.876c0,0.51-0.396,0.869-1.085,0.869
		c-0.318,0-0.612-0.077-0.816-0.197L116.451,46.713z"/>
	<path fill="#666666" d="M120.129,43.517v0.834h0.756v0.401h-0.756v1.565c0,0.359,0.103,0.563,0.396,0.563
		c0.139,0,0.24-0.018,0.307-0.036l0.023,0.396c-0.102,0.042-0.264,0.071-0.468,0.071c-0.246,0-0.443-0.077-0.569-0.222
		c-0.15-0.155-0.204-0.414-0.204-0.756v-1.583h-0.449v-0.401h0.449v-0.695L120.129,43.517z"/>
	<path fill="#666666" d="M122.366,45.897c0.012,0.714,0.468,1.008,0.995,1.008c0.378,0,0.606-0.066,0.804-0.15l0.09,0.378
		c-0.186,0.084-0.503,0.18-0.965,0.18c-0.894,0-1.428-0.587-1.428-1.463c0-0.875,0.516-1.565,1.361-1.565
		c0.947,0,1.199,0.834,1.199,1.367c0,0.108-0.012,0.192-0.018,0.246H122.366z M123.913,45.52c0.007-0.336-0.138-0.857-0.731-0.857
		c-0.533,0-0.768,0.492-0.81,0.857H123.913z"/>
	<path fill="#666666" d="M125.673,45.136c0-0.3-0.006-0.545-0.023-0.785h0.462l0.023,0.468h0.019
		c0.161-0.276,0.432-0.534,0.911-0.534c0.396,0,0.695,0.24,0.821,0.582h0.012c0.091-0.162,0.204-0.288,0.324-0.378
		c0.174-0.132,0.366-0.204,0.642-0.204c0.384,0,0.953,0.252,0.953,1.26v1.709h-0.516v-1.644c0-0.558-0.203-0.893-0.629-0.893
		c-0.3,0-0.534,0.222-0.624,0.479c-0.024,0.071-0.042,0.168-0.042,0.264v1.793h-0.516v-1.739c0-0.462-0.204-0.797-0.605-0.797
		c-0.33,0-0.57,0.264-0.654,0.527c-0.029,0.078-0.042,0.168-0.042,0.258v1.751h-0.516V45.136z"/>
	<path fill="#666666" d="M132.878,47.253l-0.042-0.366h-0.018c-0.162,0.229-0.475,0.433-0.888,0.433
		c-0.588,0-0.888-0.414-0.888-0.834c0-0.701,0.624-1.085,1.745-1.079v-0.061c0-0.239-0.066-0.671-0.66-0.671
		c-0.27,0-0.552,0.084-0.755,0.216l-0.12-0.349c0.239-0.155,0.588-0.258,0.953-0.258c0.888,0,1.104,0.606,1.104,1.188v1.086
		c0,0.252,0.012,0.497,0.048,0.695H132.878z M132.8,45.771c-0.575-0.012-1.229,0.09-1.229,0.654c0,0.342,0.229,0.503,0.498,0.503
		c0.378,0,0.617-0.239,0.701-0.485c0.019-0.054,0.03-0.114,0.03-0.168V45.771z"/>
	<path fill="#666666" d="M134.686,46.713c0.155,0.103,0.432,0.21,0.695,0.21c0.384,0,0.563-0.191,0.563-0.432
		c0-0.252-0.149-0.39-0.54-0.533c-0.521-0.187-0.768-0.474-0.768-0.822c0-0.468,0.378-0.852,1.002-0.852
		c0.294,0,0.552,0.084,0.714,0.181l-0.132,0.384c-0.114-0.072-0.324-0.168-0.594-0.168c-0.313,0-0.486,0.18-0.486,0.396
		c0,0.24,0.174,0.348,0.552,0.491c0.504,0.192,0.762,0.444,0.762,0.876c0,0.51-0.396,0.869-1.085,0.869
		c-0.318,0-0.612-0.077-0.816-0.197L134.686,46.713z"/>
</g>
<g>
	<path fill="#47A08E" d="M81.818,11.597l-3.949,3.484c-1.387-1.93-2.798-2.895-4.235-2.895c-0.699,0-1.271,0.188-1.717,0.562
		c-0.445,0.375-0.667,0.797-0.667,1.267s0.158,0.914,0.477,1.333c0.433,0.559,1.735,1.759,3.91,3.599
		c2.035,1.702,3.269,2.774,3.701,3.219c1.08,1.092,1.847,2.136,2.299,3.133c0.451,0.996,0.677,2.085,0.677,3.266
		c0,2.298-0.795,4.196-2.383,5.693c-1.589,1.499-3.66,2.248-6.215,2.248c-1.995,0-3.733-0.489-5.214-1.467s-2.748-2.514-3.803-4.608
		l4.481-2.704c1.348,2.476,2.899,3.713,4.653,3.713c0.916,0,1.685-0.266,2.308-0.799s0.935-1.149,0.935-1.848
		c0-0.635-0.235-1.27-0.705-1.904c-0.471-0.635-1.507-1.605-3.109-2.914c-3.053-2.487-5.023-4.408-5.914-5.76
		c-0.89-1.353-1.335-2.701-1.335-4.047c0-1.942,0.74-3.608,2.221-4.999c1.481-1.39,3.309-2.085,5.481-2.085
		c1.398,0,2.73,0.324,3.995,0.971C78.974,8.702,80.344,9.882,81.818,11.597z"/>
	<path fill="#47A08E" d="M101.131,7.083c3.963,0,7.371,1.435,10.223,4.304c2.853,2.869,4.278,6.367,4.278,10.493
		c0,4.088-1.407,7.547-4.221,10.378c-2.814,2.831-6.229,4.247-10.242,4.247c-4.205,0-7.698-1.454-10.48-4.361
		s-4.174-6.36-4.174-10.359c0-2.679,0.648-5.142,1.944-7.389s3.077-4.027,5.345-5.342C96.071,7.74,98.514,7.083,101.131,7.083z
		 M101.073,12.301c-2.593,0-4.772,0.901-6.538,2.704c-1.767,1.803-2.649,4.094-2.649,6.875c0,3.098,1.111,5.548,3.336,7.35
		c1.728,1.41,3.71,2.114,5.947,2.114c2.528,0,4.683-0.914,6.462-2.742s2.669-4.081,2.669-6.761c0-2.666-0.896-4.922-2.688-6.77
		C105.82,13.225,103.641,12.301,101.073,12.301z"/>
	<path fill="#47A08E" d="M135.867,11.597l-3.949,3.484c-1.387-1.93-2.798-2.895-4.235-2.895c-0.699,0-1.271,0.188-1.717,0.562
		c-0.445,0.375-0.667,0.797-0.667,1.267s0.158,0.914,0.477,1.333c0.433,0.559,1.735,1.759,3.91,3.599
		c2.035,1.702,3.269,2.774,3.701,3.219c1.08,1.092,1.847,2.136,2.299,3.133c0.451,0.996,0.677,2.085,0.677,3.266
		c0,2.298-0.795,4.196-2.383,5.693c-1.589,1.499-3.66,2.248-6.215,2.248c-1.995,0-3.733-0.489-5.214-1.467s-2.748-2.514-3.803-4.608
		l4.481-2.704c1.348,2.476,2.899,3.713,4.653,3.713c0.916,0,1.685-0.266,2.308-0.799s0.935-1.149,0.935-1.848
		c0-0.635-0.235-1.27-0.705-1.904c-0.471-0.635-1.507-1.605-3.109-2.914c-3.053-2.487-5.023-4.408-5.914-5.76
		c-0.89-1.353-1.335-2.701-1.335-4.047c0-1.942,0.74-3.608,2.221-4.999c1.481-1.39,3.309-2.085,5.481-2.085
		c1.398,0,2.73,0.324,3.995,0.971C133.022,8.702,134.393,9.882,135.867,11.597z"/>
</g>
</svg>
