<?xml version="1.0" standalone="no"?>
<!DOCTYPE svg PUBLIC "-//W3C//DTD SVG 20010904//EN"
 "http://www.w3.org/TR/2001/REC-SVG-20010904/DTD/svg10.dtd">
<svg version="1.0" xmlns="http://www.w3.org/2000/svg"
 width="512.000000pt" height="512.000000pt" viewBox="0 0 512.000000 512.000000"
 preserveAspectRatio="xMidYMid meet">

<g transform="translate(0.000000,512.000000) scale(0.100000,-0.100000)"
fill="#ffffff
" stroke="none">
<path d="M2750 5015 c-66 -21 -138 -82 -173 -143 -34 -61 -47 -160 -28 -228
25 -92 109 -178 204 -206 l37 -11 0 -344 c0 -188 -4 -343 -8 -343 -5 0 -21 14
-38 31 -77 81 -240 173 -376 213 l-83 24 -6 101 c-6 86 -11 111 -38 166 -59
120 -172 203 -302 225 -37 5 -247 10 -495 10 l-430 0 -23 55 c-79 190 -328
246 -482 107 -87 -78 -122 -178 -99 -286 32 -154 198 -267 349 -237 116 23
203 94 239 193 l17 49 470 -3 470 -3 50 -27 c101 -53 151 -134 161 -261 l7
-74 -114 -6 c-141 -7 -245 -33 -364 -92 -306 -152 -512 -465 -540 -823 l-8
-92 -57 0 c-31 0 -92 -9 -136 -20 -223 -56 -412 -213 -514 -424 -63 -131 -75
-189 -75 -361 1 -143 2 -154 33 -245 47 -137 100 -220 206 -325 98 -98 186
-152 321 -196 69 -23 80 -24 533 -27 l463 -3 -3 -377 -3 -377 -30 -54 c-16
-29 -49 -69 -74 -87 -82 -63 -93 -64 -621 -64 l-477 0 -17 44 c-64 167 -257
248 -416 174 -120 -56 -186 -164 -178 -294 20 -317 457 -392 584 -100 l28 65
516 3 515 3 55 26 c114 54 204 166 229 287 7 33 11 185 11 402 l0 350 235 0
235 0 0 -358 0 -358 -50 -18 c-67 -24 -133 -85 -167 -153 -22 -47 -27 -71 -27
-128 0 -119 60 -215 169 -273 67 -36 195 -38 266 -5 60 27 119 86 150 149 33
68 33 177 0 252 -29 65 -105 136 -172 159 l-49 18 0 357 0 358 290 0 290 0 0
-134 c0 -192 34 -288 138 -383 41 -37 142 -82 208 -93 33 -6 238 -10 456 -10
l397 0 27 -60 c29 -65 78 -116 146 -152 62 -33 204 -33 265 0 109 57 173 157
173 268 0 85 -24 145 -81 208 -64 70 -130 100 -224 100 -140 0 -255 -86 -299
-226 -5 -17 -34 -18 -419 -18 -458 0 -479 2 -559 63 -23 18 -56 55 -73 82 -29
47 -30 51 -33 201 l-4 153 449 3 448 3 80 28 c197 70 337 192 429 376 55 108
77 204 77 336 0 331 -193 602 -506 711 -72 25 -94 28 -215 29 l-135 0 3 121
c5 143 -16 243 -73 359 -65 131 -190 258 -313 319 -40 19 -43 23 -38 51 16 76
115 183 212 227 46 22 64 23 339 28 l290 5 55 28 c124 63 221 196 254 349 5
21 16 30 58 44 70 23 158 109 181 178 40 117 14 231 -72 317 -65 65 -124 89
-216 89 -92 0 -151 -24 -216 -89 -86 -86 -112 -200 -72 -317 22 -65 113 -157
172 -175 24 -7 45 -18 47 -24 8 -20 -35 -118 -74 -170 -21 -27 -62 -65 -92
-82 l-54 -33 -231 0 c-126 0 -261 -5 -300 -10 -97 -14 -196 -65 -271 -139 -57
-56 -124 -161 -124 -194 0 -13 -17 -14 -118 -10 -138 7 -230 -9 -331 -57 -34
-17 -65 -30 -67 -30 -2 0 -3 167 -2 372 l3 371 43 16 c72 26 133 80 169 150
28 54 33 73 33 135 0 124 -68 230 -179 279 -59 26 -162 31 -221 12z m201 -134
c100 -68 115 -188 36 -278 -72 -81 -192 -86 -275 -9 -37 33 -53 73 -53 131 0
78 32 130 106 170 44 24 142 16 186 -14z m1789 -15 c114 -75 114 -237 1 -311
-145 -95 -332 35 -290 202 14 54 68 113 119 131 51 16 127 7 170 -22z m-3916
-269 c102 -79 99 -230 -6 -303 -35 -25 -51 -29 -108 -29 -54 0 -73 5 -102 24
-80 55 -111 158 -70 237 39 77 91 106 183 102 54 -3 73 -9 103 -31z m1491
-718 c177 -46 329 -147 452 -301 62 -79 77 -82 143 -37 118 79 210 109 340
110 106 1 165 -12 258 -57 92 -44 199 -144 252 -233 78 -134 107 -302 75 -441
-30 -130 -30 -146 -2 -164 23 -16 30 -15 103 5 100 27 256 23 347 -10 177 -63
315 -204 381 -391 28 -77 31 -97 31 -205 0 -106 -3 -130 -28 -202 -50 -145
-148 -269 -272 -342 -76 -46 -149 -70 -249 -82 -51 -6 -640 -9 -1591 -7 -1694
4 -1546 -3 -1713 79 -121 59 -224 164 -286 291 -60 121 -77 190 -77 313 -1
204 61 355 201 496 70 70 102 94 170 127 99 48 207 72 318 72 52 0 83 4 90 13
5 6 12 71 15 142 10 263 96 458 276 627 120 114 282 193 446 218 84 13 228 3
320 -21z m2480 -2858 c62 -28 115 -104 115 -166 0 -32 -25 -90 -52 -121 -43
-48 -80 -65 -144 -65 -78 0 -134 34 -168 103 -29 57 -31 75 -16 130 22 78 103
138 185 138 22 0 58 -9 80 -19z m-4318 -452 c62 -23 123 -109 123 -174 0 -65
-61 -151 -123 -174 -39 -15 -111 -14 -150 3 -44 18 -94 77 -107 127 -39 142
114 272 257 218z m2170 -4 c48 -20 71 -41 94 -87 35 -68 17 -172 -37 -219 -97
-85 -249 -57 -304 56 -75 155 86 317 247 250z"/>
<path d="M1717 2853 c-20 -23 -447 -998 -447 -1022 0 -44 59 -71 94 -42 7 6
44 81 81 166 l68 155 256 0 256 0 65 -151 c36 -83 72 -157 82 -165 24 -22 70
-14 86 16 13 23 1 55 -203 520 -119 272 -223 505 -231 518 -18 28 -83 31 -107
5z m154 -396 l98 -222 -196 -3 c-108 -1 -198 0 -201 2 -2 3 40 106 94 230 54
124 101 223 103 220 3 -2 49 -105 102 -227z"/>
<path d="M2466 2848 c-14 -20 -16 -80 -16 -523 0 -551 -1 -545 59 -545 59 0
61 11 61 292 l0 256 173 4 c157 3 176 5 217 26 95 50 140 118 148 223 8 114
-37 198 -137 257 -46 27 -47 27 -267 30 -222 3 -222 3 -238 -20z m452 -113
c93 -56 104 -175 22 -249 l-40 -36 -165 0 -165 0 0 156 0 156 158 -4 c135 -3
162 -6 190 -23z"/>
<path d="M3354 2862 c-32 -21 -34 -52 -34 -547 l0 -496 25 -24 c29 -30 49 -31
75 -5 19 19 20 33 20 534 l0 515 -22 15 c-24 17 -47 20 -64 8z"/>
</g>
</svg>
