<?xml version="1.0" encoding="utf-8"?>
<!-- Generator: Adobe Illustrator 16.0.0, SVG Export Plug-In . SVG Version: 6.00 Build 0)  -->
<!DOCTYPE svg PUBLIC "-//W3C//DTD SVG 1.1//EN" "http://www.w3.org/Graphics/SVG/1.1/DTD/svg11.dtd">
<svg version="1.1" id="Layer_1" xmlns="http://www.w3.org/2000/svg" xmlns:xlink="http://www.w3.org/1999/xlink" x="0px" y="0px"
	 width="624.723px" height="639px" viewBox="0 0 624.723 639" enable-background="new 0 0 624.723 639" xml:space="preserve">
<g>
	<circle fill="#FFF7F2" cx="944.007" cy="339.04" r="209.433"/>
	<g>
		<g>
			<path fill="#5E584E" d="M691.331,119.153c4.14-5.011,8.798-9.278,13.974-12.801c5.177-3.522,10.681-5.8,16.513-6.832
				c5.832-1.031,11.385-0.816,16.661,0.644c5.276,1.46,10.419,4.261,15.43,8.4c5.262,4.348,9.31,9.287,12.145,14.817
				c2.834,5.531,4.312,11.349,4.431,17.454c0.121,6.106-1.152,12.223-3.814,18.349c-2.663,6.126-6.207,11.866-10.631,17.222
				c-4.374,5.294-9.263,9.791-14.667,13.495c-5.405,3.704-11.146,6.061-17.226,7.071c-6.079,1.013-11.649,0.691-16.713-0.963
				c-5.063-1.653-9.927-4.407-14.594-8.263c-6.859-5.667-11.567-12.23-14.125-19.692c-2.557-7.461-2.711-15.52-0.461-24.174
				C680.503,135.226,684.862,126.983,691.331,119.153z M704.773,131.681c-2.976,3.603-4.781,7.591-5.418,11.965
				c-0.637,4.375-0.029,8.646,1.825,12.812c1.854,4.167,4.583,7.738,8.184,10.714c3.32,2.742,6.947,4.541,10.88,5.393
				s7.878,0.462,11.835-1.17c3.957-1.633,7.28-4.077,9.972-7.334c2.872-3.478,4.635-7.382,5.291-11.715
				c0.655-4.333,0.037-8.559-1.856-12.679c-1.893-4.12-4.562-7.603-8.007-10.449c-3.351-2.768-7.026-4.619-11.025-5.551
				c-3.999-0.932-7.907-0.682-11.725,0.748C710.913,125.845,707.593,128.268,704.773,131.681z"/>
			<path fill="#5E584E" d="M793.379,134.014c-2.822-6.615-5.439-12.531-7.851-17.746c-2.412-5.215-5.323-11.198-8.735-17.948
				c-3.413-6.749-7.1-13.822-11.062-21.219c-3.961-7.396-7.154-13.256-9.579-17.58c4.488-2.377,8.096-4.332,10.823-5.862
				c2.833-1.589,6.243-3.606,10.229-6.051c3.984-2.445,7.907-4.75,11.77-6.916c4.534-2.543,8.674-4.631,12.415-6.265
				c2.795-1.242,5.501-2.084,8.117-2.527c2.617-0.442,4.98-0.523,7.096-0.241c2.113,0.281,4.054,0.834,5.82,1.661
				c1.768,0.826,3.447,2.015,5.04,3.566c1.593,1.552,2.985,3.391,4.178,5.517c1.331,2.375,2.277,4.767,2.838,7.177
				c0.56,2.411,0.705,4.892,0.436,7.441c-0.27,2.551-1.016,5.042-2.237,7.473c-1.221,2.432-3.216,5.333-5.983,8.701l6.55,5.201
				c1.833,1.441,3.738,2.888,5.717,4.339l15.857,11.578c0.697,0.495,2.008,1.506,3.937,3.032c-5.883,3.207-9.833,5.375-11.851,6.507
				c-2.549,1.43-6.708,3.81-12.475,7.137c-1.602-1.523-4.548-4.367-8.84-8.527c-1.776-1.752-3.195-3.075-4.256-3.971
				c-2.263-2.037-5.499-4.856-9.711-8.457l-13.917-11.967c2.112-0.719,4.089-1.595,5.932-2.629c2.586-1.45,4.715-3.157,6.386-5.119
				c1.671-1.961,2.589-4.061,2.756-6.297c0.167-2.236-0.257-4.258-1.27-6.065c-0.854-1.523-2.013-2.632-3.474-3.327
				c-1.461-0.694-3.227-0.833-5.3-0.417c-2.071,0.417-4.934,1.649-8.582,3.696c-1.24,0.696-2.509,1.442-3.809,2.241
				c-1.299,0.798-2.824,1.713-4.575,2.741c3.62,7.519,8.186,16.603,13.699,27.251c5.513,10.648,11.04,21.033,16.58,31.155
				c-5.965,3.252-9.833,5.375-11.607,6.37C802.383,128.824,798.697,130.939,793.379,134.014z"/>
			<path fill="#5E584E" d="M856.098,94.763l3.686-9.436l22.25-63.416l2.317-7.071c0.671-2.074,1.596-5.05,2.775-8.928
				c7.08-0.992,12.246-1.737,15.5-2.231c5.663-0.86,10.897-1.696,15.705-2.509l12.607,23.789l25.222,45.602l4.829,8.266
				c-6.97,0.977-11.196,1.578-12.684,1.804c-3.378,0.513-8.337,1.308-14.879,2.383c-2.771-6.359-6.501-13.764-11.189-22.216
				l-30.329,4.607c-2.417,7.6-4.846,15.94-7.284,25.022c-7.491,1.057-12.081,1.712-13.769,1.968
				C867.798,92.862,862.881,93.651,856.098,94.763z M896.53,46.77l18.713-2.843c-6.801-13.447-10.532-20.858-11.192-22.236
				c-1.753,6.297-3.267,11.47-4.539,15.519L896.53,46.77z"/>
			<path fill="#5E584E" d="M963.691,79.941l4.146-12.169l12.344-41.663l4.696-16.86L987.075,0
				c6.117,1.538,11.531,2.865,16.242,3.985c3.365,0.799,8.105,1.885,14.221,3.254l14.37,52.04l1.882,7.591
				c2.023-6.537,4.692-15.74,8.008-27.609c3.313-11.87,5.516-20.098,6.605-24.686c4.837,1.234,8.718,2.197,11.64,2.892
				c1.341,0.319,5.22,1.2,11.635,2.641l-5.621,17.33l-14.334,48.456l-3.725,14.085c-5.123-1.301-9.92-2.483-14.388-3.545
				c-3.719-0.883-8.869-2.065-15.454-3.547c-1.131-4.362-1.985-7.531-2.558-9.506l-5.931-19.268
				c-1.96-6.314-3.721-12.331-5.28-18.048c-1.055-3.634-2.093-7.599-3.115-11.894l-7.958,27.81L987.082,85.5
				c-4.877-1.243-8.598-2.168-11.164-2.779C973.747,82.205,969.671,81.279,963.691,79.941z"/>
			<path fill="#5E584E" d="M1126.831,93.209c4.504,3.27,8.816,6.353,12.937,9.252c7.044,4.957,12.581,8.806,16.616,11.545
				c-3.636,4.248-8.611,10.384-14.927,18.409c-6.316,8.024-11.02,14.128-14.113,18.31c-4.312-1.992-7.833-3.712-10.563-5.162
				c-2.731-1.45-5.945-3.289-9.643-5.519s-6.925-4.314-9.682-6.255c-4.52-3.181-8.698-6.668-12.537-10.462
				c-3.839-3.793-6.903-7.715-9.196-11.763c-2.294-4.048-3.605-8.274-3.933-12.679c-0.329-4.404,0.229-8.954,1.672-13.652
				c1.442-4.697,3.602-9.09,6.479-13.176c4.746-6.744,10.83-11.827,18.256-15.246c7.423-3.419,15.47-4.6,24.139-3.541
				c8.669,1.059,17.987,5.095,27.955,12.109c7.274,5.121,14.711,11.671,22.309,19.651c-3.413,4.851-6.997,10.401-10.749,16.652
				c-1.831-2.48-3.341-4.449-4.525-5.904c-1.187-1.456-2.646-3.054-4.376-4.794c-1.732-1.74-3.428-3.318-5.088-4.736
				c-1.661-1.417-3.188-2.616-4.584-3.598c-3.655-2.573-7.479-4.48-11.47-5.725c-3.994-1.246-7.927-1.603-11.8-1.076
				c-3.874,0.528-7.456,1.895-10.746,4.099c-3.292,2.205-6.117,4.985-8.479,8.341c-2.408,3.422-3.89,6.938-4.442,10.547
				c-0.554,3.609,0.124,7.129,2.033,10.559c1.907,3.429,4.64,6.395,8.195,8.897c2.956,2.081,6.499,3.929,10.629,5.543l8.179-10.414
				c-2.094-1.623-3.341-2.575-3.74-2.856l-5.329-3.676l4.662-5.885c0.5-0.641,1.223-1.562,2.167-2.76
				C1124.079,97.048,1125.31,95.369,1126.831,93.209z"/>
			<path fill="#5E584E" d="M1133.968,160.913c9.134-5.242,16.718-9.719,22.751-13.432c6.032-3.713,13.962-8.772,23.787-15.181
				c9.825-6.408,16.295-10.717,19.407-12.93l4.336-3.156c5.486,7.861,12.171,17.337,20.055,28.43
				c7.27,10.23,13.714,19.229,19.334,26.996l-1.704,1.063c-0.42,0.247-1.915,1.185-4.484,2.813l-5.607,3.537
				c-1.204,0.754-2.398,1.554-3.586,2.397c-4.277-6.579-7.957-12.038-11.039-16.376c-3.39-4.769-5.688-7.984-6.892-9.645
				c-1.205-1.66-3.134-4.215-5.783-7.664l-11.854,7.516c2.679,3.979,5.865,8.569,9.561,13.77c1.318,1.854,4.941,6.708,10.87,14.559
				c-4.476,2.683-9.748,5.956-15.82,9.824c-4.004-5.772-7.099-10.199-9.286-13.276c-3.245-4.568-6.996-9.598-11.249-15.093
				l-12.49,7.986l4.057,5.709c1.199,1.688,3.73,5.145,7.593,10.368l7.551,10.1c1.114,1.5,3.059,3.953,5.83,7.362
				c-5.184,3.087-10.485,6.356-15.906,9.809c-5.677-8.128-11.938-17.01-18.786-26.646l-15.581-21.822L1133.968,160.913z"/>
		</g>
	</g>
	<g>
		<path fill="#F5921F" d="M944.48,129.607c116.462,0.302,210.313,94.86,208.945,212.107
			c-1.37,117.672-97.934,207.945-211.342,206.728c-113.342-1.223-203.796-90.665-207.39-201.438
			C730.635,222.043,830.158,129.432,944.48,129.607z M944.084,157.38c-100.618-0.686-181.818,83.771-181.823,181.699
			c-0.008,95.155,77.217,181.634,181.782,181.922c100.325,0.271,187.985-84.218,181.415-193.794
			C1119.947,235.239,1041.965,157.044,944.084,157.38z"/>
		<path fill="#F7A83A" d="M781.835,339.795c1.074-7.903,1.894-18.416,4.055-28.65c2.725-12.917,13.547-18.808,26.168-14.77
			c30.898,9.888,61.727,20.01,92.587,30.018c2.441,0.79,4.907,1.539,7.405,2.095c5.611,1.247,8.505,4.82,8.616,10.395
			c0.106,5.581-2.778,8.985-8.225,10.719c-29.815,9.48-59.581,19.117-89.364,28.7c-3.334,1.078-6.647,2.215-9.994,3.252
			c-14.197,4.393-25.987-2.758-28.383-17.495C783.536,356.913,782.976,349.675,781.835,339.795z"/>
		<path fill="#F7A83A" d="M1079.861,257.41c-0.967,8.331-4.277,14.461-11.386,18.104c-32.261,16.535-64.505,33.107-96.991,49.183
			c-2.659,1.31-7.813-0.037-10.6-1.927c-4.389-2.976-4.252-7.985-1.927-12.637c6.282-12.539,12.584-25.069,18.948-37.566
			c9.447-18.554,18.923-37.092,28.452-55.6c7.104-13.8,19.245-16.887,32.071-8.201c14.519,9.83,26.753,21.992,36.319,36.673
			C1077.079,249.02,1078.19,253.4,1079.861,257.41z"/>
		<path fill="#F7A83A" d="M862.71,474.832c-3.873-1.429-8.175-2.206-11.542-4.405c-15.638-10.229-28.72-23.188-38.802-38.957
			c-6.738-10.547-3.659-23.168,7.303-28.856c31.285-16.228,62.756-32.101,94.118-48.171c5.015-2.568,9.769-3.4,13.959,1.276
			c3.964,4.421,3.552,9.015,0.881,14.165c-15.79,30.474-31.441,61.021-47.001,91.619C877.678,469.266,871.936,473.88,862.71,474.832
			z"/>
		<path fill="#F7A83A" d="M861.167,203.744c10.044,0.894,15.988,4.291,19.45,11.055c16.165,31.604,32.161,63.288,48.298,94.906
			c2.717,5.327,2.111,9.921-2.28,13.889c-4.19,3.792-8.278,2.371-12.806,0.042c-29.886-15.354-59.895-30.471-89.834-45.718
			c-16.721-8.513-19.561-20.08-8.887-35.257c9.385-13.344,20.764-24.697,34.339-33.671
			C853.585,206.256,858.599,204.859,861.167,203.744z"/>
		<path fill="#F7A83A" d="M944.122,501.127c-8.847-1.12-17.708-1.886-26.439-3.417c-13.77-2.425-20.562-13.712-16.284-27.054
			c9.99-31.128,20.223-62.183,30.329-93.277c0.864-2.651,1.392-5.409,2.289-8.044c1.642-4.849,5.335-6.924,10.249-6.944
			c4.664-0.017,8.164,1.918,9.67,6.582c11.049,34.207,22.25,68.374,33.031,102.668c3.852,12.255-3.108,23.542-15.664,25.904
			C962.371,499.225,953.26,499.958,944.122,501.127z"/>
		<path fill="#F7A83A" d="M1105.914,335.12c-1.041,11.082-1.412,20.463-2.906,29.663c-2.33,14.379-14.135,21.225-28.082,16.704
			c-33.289-10.789-66.518-21.755-99.819-32.495c-4.878-1.576-7.669-4.429-7.755-9.476c-0.091-5.207,2.289-8.67,7.553-10.365
			c33.311-10.761,66.555-21.719,99.861-32.491c14.164-4.581,25.357,2.075,27.971,16.618
			C1104.14,321.058,1105.029,328.932,1105.914,335.12z"/>
		<path fill="#F7A83A" d="M1079.923,420.948c-1.836,4.186-3.129,8.73-5.607,12.497c-9.496,14.416-21.611,26.357-35.907,36.039
			c-12.37,8.386-24.958,5.409-31.737-7.775c-16.133-31.372-32.067-62.842-48.088-94.274c-2.158-4.232-1.763-8.003,1.654-11.502
			c3.845-3.943,8.143-4.203,12.781-1.864c12.725,6.405,25.419,12.863,38.114,19.326c18.733,9.534,37.46,19.08,56.185,28.634
			C1074.851,405.873,1078.997,411.867,1079.923,420.948z"/>
		<path fill="#F7A83A" d="M943.755,177.119c9.652,1.227,18.787,1.847,27.684,3.651c12.703,2.576,19.412,13.675,15.506,25.936
			c-10.842,34.055-21.957,68.03-33.5,101.854c-1.049,3.083-5.646,6.085-9.134,6.94c-4.688,1.152-8.423-1.897-10.015-6.796
			c-11.197-34.43-22.563-68.807-33.512-103.316c-3.404-10.739,3.07-21.718,14.32-24.196
			C924.638,179.092,934.477,178.384,943.755,177.119z"/>
	</g>
</g>
<g>
	<path fill="#5E584E" d="M85.385,77.366c6.301,0,12.368,0.848,18.197,2.541c5.829,1.694,10.93,4.401,15.302,8.124
		c4.372,3.722,7.641,8.005,9.808,12.85c2.166,4.845,3.25,10.419,3.25,16.72c0,6.617-1.192,12.693-3.574,18.227
		c-2.384,5.535-5.82,10.231-10.31,14.091c-4.49,3.861-9.847,6.687-16.07,8.478c-6.224,1.792-12.703,2.688-19.438,2.688
		c-6.657,0-13.038-0.877-19.143-2.629c-6.106-1.752-11.413-4.588-15.923-8.508c-4.51-3.919-7.71-8.281-9.601-13.087
		c-1.891-4.805-2.836-10.142-2.836-16.011c0-8.626,1.999-16.198,5.997-22.717c3.997-6.518,9.926-11.609,17.783-15.272
		C66.686,79.197,75.538,77.366,85.385,77.366z M84.321,95.149c-4.53,0-8.626,1.113-12.289,3.338
		c-3.663,2.226-6.479,5.317-8.449,9.276c-1.97,3.958-2.954,8.203-2.954,12.732c0,4.175,0.896,7.997,2.688,11.462
		c1.792,3.466,4.52,6.174,8.183,8.124c3.663,1.95,7.542,2.925,11.639,2.925c4.372,0,8.379-1.093,12.023-3.279
		c3.643-2.186,6.419-5.258,8.33-9.217c1.91-3.958,2.866-8.103,2.866-12.437c0-4.214-0.886-8.104-2.659-11.669
		c-1.772-3.564-4.372-6.331-7.799-8.301C92.475,96.134,88.614,95.149,84.321,95.149z"/>
	<path fill="#5E584E" d="M141.276,159.549c0.75-6.932,1.343-13.175,1.778-18.729c0.434-5.554,0.81-11.994,1.125-19.32
		s0.553-15.056,0.711-23.189c0.158-8.133,0.237-14.603,0.237-19.409c4.922,0.118,8.9,0.177,11.933,0.177
		c3.15,0,6.99-0.089,11.519-0.266c4.529-0.178,8.94-0.266,13.232-0.266c5.041,0,9.531,0.198,13.469,0.591
		c2.953,0.276,5.64,0.848,8.063,1.713c2.422,0.867,4.46,1.92,6.114,3.161c1.654,1.24,3.033,2.629,4.135,4.165
		s1.959,3.338,2.57,5.406c0.61,2.067,0.916,4.283,0.916,6.646c0,2.639-0.335,5.11-1.004,7.415c-0.67,2.304-1.724,4.471-3.161,6.499
		c-1.438,2.029-3.249,3.781-5.436,5.258c-2.186,1.478-5.249,2.984-9.187,4.52l3.072,7.503c0.866,2.088,1.792,4.215,2.777,6.381
		l7.917,17.311c0.354,0.749,0.984,2.226,1.891,4.431c-6.495-0.079-10.864-0.118-13.107-0.118c-2.834,0-7.479,0.04-13.934,0.118
		c-0.631-2.047-1.774-5.849-3.431-11.403c-0.67-2.324-1.243-4.115-1.715-5.376c-0.947-2.796-2.346-6.715-4.2-11.757l-6.092-16.72
		c2.127,0.394,4.214,0.591,6.263,0.591c2.875,0,5.484-0.433,7.828-1.3c2.343-0.866,4.115-2.206,5.317-4.018
		c1.201-1.811,1.802-3.722,1.802-5.731c0-1.693-0.453-3.18-1.359-4.46c-0.907-1.28-2.333-2.235-4.284-2.866
		c-1.949-0.629-4.954-0.945-9.01-0.945c-1.379,0-2.807,0.03-4.283,0.088c-1.478,0.06-3.201,0.109-5.17,0.148
		c-0.505,8.075-0.952,17.922-1.34,29.541c-0.389,11.62-0.641,23.022-0.757,34.208c-6.585-0.079-10.864-0.118-12.835-0.118
		C151.352,159.431,147.231,159.47,141.276,159.549z"/>
	<path fill="#5E584E" d="M215.602,159.549l4.907-8.508l30.561-57.546l3.251-6.44c0.945-1.891,2.265-4.608,3.96-8.153
		c6.931,0.08,11.992,0.118,15.183,0.118c5.553,0,10.692-0.039,15.418-0.118l8.62,24.637l17.537,47.384l3.425,8.626
		c-6.822-0.079-10.961-0.118-12.42-0.118c-3.313,0-8.182,0.04-14.609,0.118c-1.73-6.499-4.227-14.14-7.49-22.924h-29.741
		c-3.424,6.933-6.966,14.574-10.626,22.924c-7.334-0.079-11.829-0.118-13.484-0.118C227.095,159.431,222.265,159.47,215.602,159.549
		z M261.345,119.432h18.352c-4.561-13.88-7.059-21.527-7.49-22.943c-2.598,5.781-4.802,10.519-6.611,14.214L261.345,119.432z"/>
	<path fill="#5E584E" d="M324.726,159.549l1.182-12.407l2.304-42.066l0.65-16.957v-9.217c6.115,0.08,11.519,0.118,16.214,0.118
		c3.353,0,8.066-0.039,14.143-0.118l25.221,45.865l3.477,6.738c0.444-6.619,0.898-15.899,1.364-27.838
		c0.464-11.939,0.697-20.194,0.697-24.766c4.839,0.08,8.716,0.118,11.627,0.118c1.337,0,5.193-0.039,11.568-0.118l-1.418,17.606
		l-2.659,48.92l-0.354,14.121c-5.125-0.079-9.914-0.118-14.367-0.118c-3.706,0-8.829,0.04-15.372,0.118
		c-2.045-3.861-3.561-6.659-4.543-8.394l-9.913-16.845c-3.265-5.516-6.274-10.796-9.027-15.84c-1.81-3.191-3.678-6.698-5.605-10.521
		l-1.271,28.016l-0.606,23.583c-4.879-0.079-8.596-0.118-11.153-0.118C334.718,159.431,330.667,159.47,324.726,159.549z"/>
	<path fill="#5E584E" d="M471.427,112.52c5.396,0.08,10.536,0.118,15.42,0.118c8.35,0,14.889-0.039,19.615-0.118
		c-0.511,5.397-1.032,13.038-1.562,22.924c-0.531,9.887-0.855,17.351-0.973,22.392c-4.531,0.827-8.282,1.428-11.256,1.802
		c-2.975,0.374-6.549,0.709-10.724,1.004c-4.176,0.296-7.898,0.443-11.167,0.443c-5.358,0-10.617-0.434-15.777-1.3
		c-5.161-0.866-9.779-2.265-13.856-4.195c-4.077-1.929-7.475-4.549-10.192-7.858s-4.815-7.228-6.292-11.757
		c-1.478-4.529-2.216-9.217-2.216-14.062c0-7.996,1.988-15.42,5.967-22.274c3.978-6.854,9.699-12.279,17.164-16.277
		c7.463-3.997,17.104-5.997,28.92-5.997c8.626,0,18.177,1.044,28.655,3.131c0,5.751,0.256,12.151,0.768,19.202
		c-2.836-0.945-5.131-1.664-6.883-2.157c-1.753-0.492-3.801-0.945-6.145-1.358c-2.344-0.414-4.569-0.718-6.676-0.916
		c-2.108-0.197-3.988-0.295-5.643-0.295c-4.333,0-8.429,0.621-12.289,1.861c-3.861,1.241-7.179,3.152-9.955,5.731
		c-2.777,2.58-4.855,5.663-6.233,9.246c-1.379,3.584-2.068,7.366-2.068,11.344c0,4.057,0.788,7.671,2.363,10.842
		c1.575,3.171,4.077,5.583,7.503,7.237s7.247,2.481,11.462,2.481c3.505,0,7.346-0.511,11.521-1.536l0.674-12.821
		c-2.566-0.118-4.086-0.177-4.56-0.177l-6.276,0.059l0.414-7.267c0.039-0.788,0.098-1.92,0.177-3.397
		C471.387,117.099,471.427,115.081,471.427,112.52z"/>
	<path fill="#5E584E" d="M518.338,159.549c0.987-10.162,1.708-18.67,2.162-25.523s0.908-15.961,1.362-27.325
		c0.455-11.363,0.682-18.896,0.682-22.599l-0.059-5.199c9.293,0.08,20.537,0.118,33.73,0.118c12.169,0,22.9-0.039,32.194-0.118
		l-0.118,1.943c-0.04,0.471-0.139,2.179-0.295,5.123l-0.354,6.418c-0.08,1.375-0.118,2.769-0.118,4.181
		c-7.602-0.315-13.983-0.473-19.143-0.473c-5.672,0-9.503,0.01-11.491,0.029c-1.99,0.021-5.091,0.109-9.306,0.266l-0.717,13.589
		c4.649,0.118,10.066,0.177,16.251,0.177c2.206,0,8.077-0.138,17.611-0.414c-0.394,5.042-0.768,11.048-1.122,18.02
		c-6.811-0.079-12.046-0.118-15.707-0.118c-5.433,0-11.515,0.139-18.246,0.414l-0.703,14.357h6.79c2.007,0,6.161-0.059,12.458-0.177
		l12.223-0.295c1.811-0.039,4.841-0.197,9.092-0.473c-0.473,5.83-0.867,11.856-1.182,18.079c-9.611-0.079-20.147-0.118-31.609-0.118
		l-25.996,0.059L518.338,159.549z"/>
</g>
<g>
	<path fill="#F5921F" d="M85.385,205.755c6.301,0,12.368,0.848,18.197,2.541c5.829,1.694,10.93,4.401,15.302,8.124
		c4.372,3.722,7.641,8.005,9.808,12.85c2.166,4.845,3.25,10.419,3.25,16.72c0,6.617-1.192,12.693-3.574,18.227
		c-2.384,5.535-5.82,10.231-10.31,14.091c-4.49,3.861-9.847,6.687-16.07,8.478c-6.224,1.792-12.703,2.688-19.438,2.688
		c-6.657,0-13.038-0.877-19.143-2.629c-6.106-1.752-11.413-4.588-15.923-8.508c-4.51-3.919-7.71-8.281-9.601-13.087
		c-1.891-4.805-2.836-10.142-2.836-16.011c0-8.626,1.999-16.198,5.997-22.717c3.997-6.518,9.926-11.609,17.783-15.272
		C66.686,207.586,75.538,205.755,85.385,205.755z M84.321,223.539c-4.53,0-8.626,1.113-12.289,3.338
		c-3.663,2.226-6.479,5.317-8.449,9.276c-1.97,3.958-2.954,8.203-2.954,12.732c0,4.175,0.896,7.997,2.688,11.462
		c1.792,3.466,4.52,6.174,8.183,8.124c3.663,1.95,7.542,2.925,11.639,2.925c4.372,0,8.379-1.093,12.023-3.279
		c3.643-2.186,6.419-5.258,8.33-9.217c1.91-3.958,2.866-8.103,2.866-12.437c0-4.214-0.886-8.104-2.659-11.669
		c-1.772-3.564-4.372-6.331-7.799-8.301C92.475,224.523,88.614,223.539,84.321,223.539z"/>
	<path fill="#F5921F" d="M141.276,287.938c0.75-6.932,1.343-13.175,1.778-18.729c0.434-5.554,0.81-11.994,1.125-19.32
		s0.553-15.056,0.711-23.189c0.158-8.133,0.237-14.603,0.237-19.409c4.922,0.118,8.9,0.177,11.933,0.177
		c3.15,0,6.99-0.089,11.519-0.266c4.529-0.178,8.94-0.266,13.232-0.266c5.041,0,9.531,0.198,13.469,0.591
		c2.953,0.276,5.64,0.848,8.063,1.713c2.422,0.867,4.46,1.92,6.114,3.161c1.654,1.24,3.033,2.629,4.135,4.165
		s1.959,3.338,2.57,5.406c0.61,2.067,0.916,4.283,0.916,6.646c0,2.639-0.335,5.11-1.004,7.415c-0.67,2.304-1.724,4.471-3.161,6.499
		c-1.438,2.029-3.249,3.781-5.436,5.258c-2.186,1.478-5.249,2.984-9.187,4.52l3.072,7.503c0.866,2.088,1.792,4.215,2.777,6.381
		l7.917,17.311c0.354,0.749,0.984,2.226,1.891,4.431c-6.495-0.079-10.864-0.118-13.107-0.118c-2.834,0-7.479,0.04-13.934,0.118
		c-0.631-2.047-1.774-5.849-3.431-11.403c-0.67-2.324-1.243-4.115-1.715-5.376c-0.947-2.796-2.346-6.715-4.2-11.757l-6.092-16.72
		c2.127,0.394,4.214,0.591,6.263,0.591c2.875,0,5.484-0.433,7.828-1.3c2.343-0.866,4.115-2.206,5.317-4.018
		c1.201-1.811,1.802-3.722,1.802-5.731c0-1.693-0.453-3.18-1.359-4.46c-0.907-1.28-2.333-2.235-4.284-2.866
		c-1.949-0.629-4.954-0.945-9.01-0.945c-1.379,0-2.807,0.03-4.283,0.088c-1.478,0.06-3.201,0.109-5.17,0.148
		c-0.505,8.075-0.952,17.922-1.34,29.541c-0.389,11.62-0.641,23.022-0.757,34.208c-6.585-0.079-10.864-0.118-12.835-0.118
		C151.352,287.82,147.231,287.859,141.276,287.938z"/>
	<path fill="#F5921F" d="M215.602,287.938l4.907-8.508l30.561-57.546l3.251-6.44c0.945-1.891,2.265-4.608,3.96-8.153
		c6.931,0.08,11.992,0.118,15.183,0.118c5.553,0,10.692-0.039,15.418-0.118l8.62,24.637l17.537,47.384l3.425,8.626
		c-6.822-0.079-10.961-0.118-12.42-0.118c-3.313,0-8.182,0.04-14.609,0.118c-1.73-6.499-4.227-14.14-7.49-22.924h-29.741
		c-3.424,6.933-6.966,14.574-10.626,22.924c-7.334-0.079-11.829-0.118-13.484-0.118C227.095,287.82,222.265,287.859,215.602,287.938
		z M261.345,247.821h18.352c-4.561-13.88-7.059-21.527-7.49-22.943c-2.598,5.781-4.802,10.519-6.611,14.214L261.345,247.821z"/>
	<path fill="#F5921F" d="M324.726,287.938l1.182-12.407l2.304-42.066l0.65-16.957v-9.217c6.115,0.08,11.519,0.118,16.214,0.118
		c3.353,0,8.066-0.039,14.143-0.118l25.221,45.865l3.477,6.738c0.444-6.619,0.898-15.899,1.364-27.838
		c0.464-11.939,0.697-20.194,0.697-24.766c4.839,0.08,8.716,0.118,11.627,0.118c1.337,0,5.193-0.039,11.568-0.118l-1.418,17.606
		l-2.659,48.92l-0.354,14.121c-5.125-0.079-9.914-0.118-14.367-0.118c-3.706,0-8.829,0.04-15.372,0.118
		c-2.045-3.861-3.561-6.659-4.543-8.394l-9.913-16.845c-3.265-5.516-6.274-10.796-9.027-15.84c-1.81-3.191-3.678-6.698-5.605-10.521
		l-1.271,28.016l-0.606,23.583c-4.879-0.079-8.596-0.118-11.153-0.118C334.718,287.82,330.667,287.859,324.726,287.938z"/>
	<path fill="#F5921F" d="M471.427,240.909c5.396,0.08,10.536,0.118,15.42,0.118c8.35,0,14.889-0.039,19.615-0.118
		c-0.511,5.397-1.032,13.038-1.562,22.924c-0.531,9.887-0.855,17.351-0.973,22.392c-4.531,0.827-8.282,1.428-11.256,1.802
		c-2.975,0.374-6.549,0.709-10.724,1.004c-4.176,0.296-7.898,0.443-11.167,0.443c-5.358,0-10.617-0.434-15.777-1.3
		c-5.161-0.866-9.779-2.265-13.856-4.195c-4.077-1.929-7.475-4.549-10.192-7.858s-4.815-7.228-6.292-11.757
		c-1.478-4.529-2.216-9.217-2.216-14.062c0-7.996,1.988-15.42,5.967-22.274c3.978-6.854,9.699-12.279,17.164-16.277
		c7.463-3.997,17.104-5.997,28.92-5.997c8.626,0,18.177,1.044,28.655,3.131c0,5.751,0.256,12.151,0.768,19.202
		c-2.836-0.945-5.131-1.664-6.883-2.157c-1.753-0.492-3.801-0.945-6.145-1.358c-2.344-0.414-4.569-0.718-6.676-0.916
		c-2.108-0.197-3.988-0.295-5.643-0.295c-4.333,0-8.429,0.621-12.289,1.861c-3.861,1.241-7.179,3.152-9.955,5.731
		c-2.777,2.58-4.855,5.663-6.233,9.246c-1.379,3.584-2.068,7.366-2.068,11.344c0,4.057,0.788,7.671,2.363,10.842
		c1.575,3.171,4.077,5.583,7.503,7.237s7.247,2.481,11.462,2.481c3.505,0,7.346-0.511,11.521-1.536l0.674-12.821
		c-2.566-0.118-4.086-0.177-4.56-0.177l-6.276,0.059l0.414-7.267c0.039-0.788,0.098-1.92,0.177-3.397
		C471.387,245.488,471.427,243.47,471.427,240.909z"/>
	<path fill="#F5921F" d="M518.338,287.938c0.987-10.162,1.708-18.67,2.162-25.523s0.908-15.961,1.362-27.325
		c0.455-11.363,0.682-18.896,0.682-22.599l-0.059-5.199c9.293,0.08,20.537,0.118,33.73,0.118c12.169,0,22.9-0.039,32.194-0.118
		l-0.118,1.943c-0.04,0.471-0.139,2.179-0.295,5.123l-0.354,6.418c-0.08,1.375-0.118,2.769-0.118,4.181
		c-7.602-0.315-13.983-0.473-19.143-0.473c-5.672,0-9.503,0.01-11.491,0.029c-1.99,0.021-5.091,0.109-9.306,0.266l-0.717,13.589
		c4.649,0.118,10.066,0.177,16.251,0.177c2.206,0,8.077-0.138,17.611-0.414c-0.394,5.042-0.768,11.048-1.122,18.02
		c-6.811-0.079-12.046-0.118-15.707-0.118c-5.433,0-11.515,0.139-18.246,0.414l-0.703,14.357h6.79c2.007,0,6.161-0.059,12.458-0.177
		l12.223-0.295c1.811-0.039,4.841-0.197,9.092-0.473c-0.473,5.83-0.867,11.856-1.182,18.079c-9.611-0.079-20.147-0.118-31.609-0.118
		l-25.996,0.059L518.338,287.938z"/>
</g>
<g>
	<path fill="#F7A83A" d="M85.385,334.755c6.301,0,12.368,0.848,18.197,2.541c5.829,1.694,10.93,4.401,15.302,8.124
		c4.372,3.722,7.641,8.005,9.808,12.85c2.166,4.845,3.25,10.419,3.25,16.72c0,6.617-1.192,12.693-3.574,18.227
		c-2.384,5.535-5.82,10.231-10.31,14.091c-4.49,3.861-9.847,6.687-16.07,8.478c-6.224,1.792-12.703,2.688-19.438,2.688
		c-6.657,0-13.038-0.877-19.143-2.629c-6.106-1.752-11.413-4.588-15.923-8.508c-4.51-3.919-7.71-8.281-9.601-13.087
		c-1.891-4.805-2.836-10.142-2.836-16.011c0-8.626,1.999-16.198,5.997-22.717c3.997-6.518,9.926-11.609,17.783-15.272
		C66.686,336.586,75.538,334.755,85.385,334.755z M84.321,352.539c-4.53,0-8.626,1.113-12.289,3.338
		c-3.663,2.226-6.479,5.317-8.449,9.276c-1.97,3.958-2.954,8.203-2.954,12.732c0,4.175,0.896,7.997,2.688,11.462
		c1.792,3.466,4.52,6.174,8.183,8.124c3.663,1.95,7.542,2.925,11.639,2.925c4.372,0,8.379-1.093,12.023-3.279
		c3.643-2.186,6.419-5.258,8.33-9.217c1.91-3.958,2.866-8.103,2.866-12.437c0-4.214-0.886-8.104-2.659-11.669
		c-1.772-3.564-4.372-6.331-7.799-8.301C92.475,353.523,88.614,352.539,84.321,352.539z"/>
	<path fill="#F7A83A" d="M141.276,416.938c0.75-6.932,1.343-13.175,1.778-18.729c0.434-5.554,0.81-11.994,1.125-19.32
		s0.553-15.056,0.711-23.189c0.158-8.133,0.237-14.603,0.237-19.409c4.922,0.118,8.9,0.177,11.933,0.177
		c3.15,0,6.99-0.089,11.519-0.266c4.529-0.178,8.94-0.266,13.232-0.266c5.041,0,9.531,0.198,13.469,0.591
		c2.953,0.276,5.64,0.848,8.063,1.713c2.422,0.867,4.46,1.92,6.114,3.161c1.654,1.24,3.033,2.629,4.135,4.165
		s1.959,3.338,2.57,5.406c0.61,2.067,0.916,4.283,0.916,6.646c0,2.639-0.335,5.11-1.004,7.415c-0.67,2.304-1.724,4.471-3.161,6.499
		c-1.438,2.029-3.249,3.781-5.436,5.258c-2.186,1.478-5.249,2.984-9.187,4.52l3.072,7.503c0.866,2.088,1.792,4.215,2.777,6.381
		l7.917,17.311c0.354,0.749,0.984,2.226,1.891,4.431c-6.495-0.079-10.864-0.118-13.107-0.118c-2.834,0-7.479,0.04-13.934,0.118
		c-0.631-2.047-1.774-5.849-3.431-11.403c-0.67-2.324-1.243-4.115-1.715-5.376c-0.947-2.796-2.346-6.715-4.2-11.757l-6.092-16.72
		c2.127,0.394,4.214,0.591,6.263,0.591c2.875,0,5.484-0.433,7.828-1.3c2.343-0.866,4.115-2.206,5.317-4.018
		c1.201-1.811,1.802-3.722,1.802-5.731c0-1.693-0.453-3.18-1.359-4.46c-0.907-1.28-2.333-2.235-4.284-2.866
		c-1.949-0.629-4.954-0.945-9.01-0.945c-1.379,0-2.807,0.03-4.283,0.088c-1.478,0.06-3.201,0.109-5.17,0.148
		c-0.505,8.075-0.952,17.922-1.34,29.541c-0.389,11.62-0.641,23.022-0.757,34.208c-6.585-0.079-10.864-0.118-12.835-0.118
		C151.352,416.82,147.231,416.859,141.276,416.938z"/>
	<path fill="#F7A83A" d="M215.602,416.938l4.907-8.508l30.561-57.546l3.251-6.44c0.945-1.891,2.265-4.608,3.96-8.153
		c6.931,0.08,11.992,0.118,15.183,0.118c5.553,0,10.692-0.039,15.418-0.118l8.62,24.637l17.537,47.384l3.425,8.626
		c-6.822-0.079-10.961-0.118-12.42-0.118c-3.313,0-8.182,0.04-14.609,0.118c-1.73-6.499-4.227-14.14-7.49-22.924h-29.741
		c-3.424,6.933-6.966,14.574-10.626,22.924c-7.334-0.079-11.829-0.118-13.484-0.118C227.095,416.82,222.265,416.859,215.602,416.938
		z M261.345,376.821h18.352c-4.561-13.88-7.059-21.527-7.49-22.943c-2.598,5.781-4.802,10.519-6.611,14.214L261.345,376.821z"/>
	<path fill="#F7A83A" d="M324.726,416.938l1.182-12.407l2.304-42.066l0.65-16.957v-9.217c6.115,0.08,11.519,0.118,16.214,0.118
		c3.353,0,8.066-0.039,14.143-0.118l25.221,45.865l3.477,6.738c0.444-6.619,0.898-15.899,1.364-27.838
		c0.464-11.939,0.697-20.194,0.697-24.766c4.839,0.08,8.716,0.118,11.627,0.118c1.337,0,5.193-0.039,11.568-0.118l-1.418,17.606
		l-2.659,48.92l-0.354,14.121c-5.125-0.079-9.914-0.118-14.367-0.118c-3.706,0-8.829,0.04-15.372,0.118
		c-2.045-3.861-3.561-6.659-4.543-8.394l-9.913-16.845c-3.265-5.516-6.274-10.796-9.027-15.84c-1.81-3.191-3.678-6.698-5.605-10.521
		l-1.271,28.016l-0.606,23.583c-4.879-0.079-8.596-0.118-11.153-0.118C334.718,416.82,330.667,416.859,324.726,416.938z"/>
	<path fill="#F7A83A" d="M471.427,369.909c5.396,0.08,10.536,0.118,15.42,0.118c8.35,0,14.889-0.039,19.615-0.118
		c-0.511,5.397-1.032,13.038-1.562,22.924c-0.531,9.887-0.855,17.351-0.973,22.392c-4.531,0.827-8.282,1.428-11.256,1.802
		c-2.975,0.374-6.549,0.709-10.724,1.004c-4.176,0.296-7.898,0.443-11.167,0.443c-5.358,0-10.617-0.434-15.777-1.3
		c-5.161-0.866-9.779-2.265-13.856-4.195c-4.077-1.929-7.475-4.549-10.192-7.858s-4.815-7.228-6.292-11.757
		c-1.478-4.529-2.216-9.217-2.216-14.062c0-7.996,1.988-15.42,5.967-22.274c3.978-6.854,9.699-12.279,17.164-16.277
		c7.463-3.997,17.104-5.997,28.92-5.997c8.626,0,18.177,1.044,28.655,3.131c0,5.751,0.256,12.151,0.768,19.202
		c-2.836-0.945-5.131-1.664-6.883-2.157c-1.753-0.492-3.801-0.945-6.145-1.358c-2.344-0.414-4.569-0.718-6.676-0.916
		c-2.108-0.197-3.988-0.295-5.643-0.295c-4.333,0-8.429,0.621-12.289,1.861c-3.861,1.241-7.179,3.152-9.955,5.731
		c-2.777,2.58-4.855,5.663-6.233,9.246c-1.379,3.584-2.068,7.366-2.068,11.344c0,4.057,0.788,7.671,2.363,10.842
		c1.575,3.171,4.077,5.583,7.503,7.237s7.247,2.481,11.462,2.481c3.505,0,7.346-0.511,11.521-1.536l0.674-12.821
		c-2.566-0.118-4.086-0.177-4.56-0.177l-6.276,0.059l0.414-7.267c0.039-0.788,0.098-1.92,0.177-3.397
		C471.387,374.488,471.427,372.47,471.427,369.909z"/>
	<path fill="#F7A83A" d="M518.338,416.938c0.987-10.162,1.708-18.67,2.162-25.523s0.908-15.961,1.362-27.325
		c0.455-11.363,0.682-18.896,0.682-22.599l-0.059-5.199c9.293,0.08,20.537,0.118,33.73,0.118c12.169,0,22.9-0.039,32.194-0.118
		l-0.118,1.943c-0.04,0.471-0.139,2.179-0.295,5.123l-0.354,6.418c-0.08,1.375-0.118,2.769-0.118,4.181
		c-7.602-0.315-13.983-0.473-19.143-0.473c-5.672,0-9.503,0.01-11.491,0.029c-1.99,0.021-5.091,0.109-9.306,0.266l-0.717,13.589
		c4.649,0.118,10.066,0.177,16.251,0.177c2.206,0,8.077-0.138,17.611-0.414c-0.394,5.042-0.768,11.048-1.122,18.02
		c-6.811-0.079-12.046-0.118-15.707-0.118c-5.433,0-11.515,0.139-18.246,0.414l-0.703,14.357h6.79c2.007,0,6.161-0.059,12.458-0.177
		l12.223-0.295c1.811-0.039,4.841-0.197,9.092-0.473c-0.473,5.83-0.867,11.856-1.182,18.079c-9.611-0.079-20.147-0.118-31.609-0.118
		l-25.996,0.059L518.338,416.938z"/>
</g>
<g>
	<g>
		<path fill="#5E584E" d="M49.074,522.938c0.742-7.643,1.284-14.041,1.626-19.195s0.683-12.004,1.025-20.551
			c0.341-8.545,0.512-14.211,0.512-16.996l-0.044-3.91c6.989,0.06,15.445,0.089,25.368,0.089c9.152,0,17.222-0.029,24.212-0.089
			l-0.089,1.461c-0.03,0.354-0.104,1.639-0.222,3.853l-0.267,4.827c-0.06,1.034-0.089,2.083-0.089,3.145
			c-5.717-0.237-10.516-0.355-14.396-0.355c-4.266,0-7.147,0.008-8.643,0.022c-1.496,0.015-3.829,0.082-6.998,0.2l-0.54,10.22
			c3.497,0.089,7.57,0.133,12.222,0.133c1.659,0,6.074-0.104,13.245-0.311c-0.296,3.792-0.578,8.309-0.844,13.552
			c-5.122-0.059-9.06-0.089-11.812-0.089c-4.086,0-8.66,0.104-13.723,0.311l-0.528,10.797h5.106c1.509,0,4.633-0.044,9.369-0.133
			l9.192-0.222c1.361-0.029,3.641-0.148,6.838-0.355c-0.355,4.384-0.652,8.917-0.889,13.597c-7.228-0.059-15.152-0.089-23.772-0.089
			l-19.551,0.044L49.074,522.938z"/>
		<path fill="#5E584E" d="M109.015,522.938c0.564-5.213,1.01-9.909,1.337-14.085c0.326-4.177,0.609-9.02,0.846-14.53
			s0.416-11.323,0.535-17.44c0.119-6.116,0.178-10.982,0.178-14.596c3.702,0.089,6.693,0.133,8.974,0.133
			c2.369,0,5.257-0.066,8.663-0.2c3.406-0.133,6.724-0.2,9.952-0.2c3.791,0,7.167,0.148,10.129,0.444
			c2.221,0.208,4.242,0.637,6.063,1.289c1.822,0.652,3.354,1.444,4.598,2.377c1.244,0.934,2.281,1.978,3.11,3.133
			s1.473,2.511,1.933,4.065c0.459,1.556,0.689,3.222,0.689,4.999c0,1.985-0.252,3.844-0.755,5.576
			c-0.504,1.733-1.296,3.363-2.377,4.888c-1.082,1.526-2.444,2.844-4.088,3.955c-1.645,1.11-3.948,2.244-6.91,3.399l2.311,5.643
			c0.651,1.57,1.348,3.17,2.088,4.799l5.954,13.019c0.267,0.563,0.74,1.674,1.422,3.333c-4.885-0.059-8.17-0.089-9.857-0.089
			c-2.131,0-5.625,0.03-10.479,0.089c-0.475-1.54-1.334-4.399-2.58-8.576c-0.504-1.748-0.935-3.095-1.29-4.043
			c-0.712-2.103-1.765-5.05-3.159-8.842l-4.582-12.575c1.6,0.296,3.169,0.444,4.71,0.444c2.162,0,4.125-0.326,5.887-0.978
			c1.762-0.651,3.095-1.659,3.999-3.021c0.903-1.362,1.355-2.799,1.355-4.31c0-1.273-0.341-2.392-1.022-3.355
			c-0.682-0.962-1.755-1.681-3.221-2.155c-1.467-0.474-3.726-0.711-6.776-0.711c-1.037,0-2.11,0.022-3.222,0.067
			c-1.11,0.044-2.407,0.082-3.888,0.111c-0.38,6.073-0.716,13.479-1.008,22.217c-0.292,8.739-0.481,17.314-0.569,25.727
			c-4.953-0.059-8.171-0.089-9.653-0.089C116.592,522.849,113.493,522.879,109.015,522.938z"/>
		<path fill="#5E584E" d="M164.912,522.938l3.69-6.398l22.984-43.278l2.445-4.843c0.711-1.422,1.704-3.466,2.979-6.132
			c5.213,0.06,9.019,0.089,11.418,0.089c4.176,0,8.041-0.029,11.596-0.089l6.483,18.529l13.188,35.636l2.576,6.487
			c-5.131-0.059-8.244-0.089-9.341-0.089c-2.491,0-6.153,0.03-10.987,0.089c-1.301-4.888-3.179-10.634-5.633-17.24h-22.368
			c-2.575,5.214-5.239,10.96-7.991,17.24c-5.516-0.059-8.896-0.089-10.142-0.089C173.556,522.849,169.923,522.879,164.912,522.938z
			 M199.314,492.768h13.802c-3.431-10.438-5.309-16.19-5.633-17.255c-1.954,4.348-3.611,7.911-4.972,10.69L199.314,492.768z"/>
		<path fill="#5E584E" d="M246.403,522.005c-0.385-6.31-0.83-11.36-1.333-15.152c3.324,1.481,6.284,2.511,8.88,3.088
			c2.597,0.578,4.875,0.867,6.834,0.867c2.581,0,4.636-0.377,6.165-1.133c1.528-0.755,2.292-1.873,2.292-3.354
			c0-0.503-0.074-0.984-0.223-1.444c-0.149-0.458-0.431-0.978-0.846-1.555c-0.416-0.578-1.01-1.207-1.781-1.889l-8.372-7.287
			c-1.959-1.659-3.324-2.858-4.096-3.599c-1.573-1.511-2.798-2.917-3.674-4.221c-0.876-1.303-1.514-2.628-1.915-3.977
			c-0.4-1.348-0.601-2.777-0.601-4.288c0-1.807,0.318-3.577,0.955-5.31c0.637-1.733,1.592-3.355,2.866-4.866
			c1.273-1.511,2.962-2.814,5.065-3.91c2.103-1.096,4.354-1.844,6.754-2.244c2.399-0.4,4.873-0.6,7.42-0.6
			c5.006,0,10.457,0.578,16.352,1.733c0.089,2.044,0.192,3.918,0.311,5.621c0.118,1.704,0.4,4.688,0.844,8.953
			c-2.726-1.096-5.214-1.858-7.465-2.288c-2.251-0.429-4.192-0.645-5.821-0.645c-2.311,0-4.229,0.43-5.754,1.289
			c-1.526,0.859-2.289,1.926-2.289,3.199c0,0.593,0.118,1.17,0.355,1.733c0.237,0.563,0.681,1.222,1.333,1.978
			c0.651,0.755,1.511,1.585,2.577,2.488c1.066,0.904,2.74,2.244,5.021,4.021l3.199,2.533c0.948,0.771,1.97,1.704,3.066,2.799
			c1.096,1.096,2.044,2.177,2.844,3.244s1.414,2.044,1.844,2.933c0.429,0.889,0.748,1.785,0.955,2.688
			c0.207,0.904,0.311,1.874,0.311,2.91c0,2.666-0.637,5.207-1.911,7.62c-1.274,2.415-3.081,4.399-5.421,5.954
			c-2.34,1.556-4.91,2.644-7.709,3.266c-2.8,0.622-5.754,0.933-8.865,0.933C259.778,524.093,253.72,523.397,246.403,522.005z"/>
		<path fill="#5E584E" d="M320.163,522.938c0.621-6.517,1.035-11.642,1.243-15.374c0.296-5.095,0.584-12.086,0.865-20.973
			c0.28-8.887,0.421-15.152,0.421-18.795c0-1.303-0.015-3.14-0.044-5.51c3.94,0.089,7.065,0.133,9.376,0.133
			c3.229,0,6.991-0.066,11.287-0.2c4.295-0.133,7.983-0.2,11.064-0.2c3.703,0,6.339,0.104,7.91,0.311
			c2.073,0.267,3.888,0.741,5.443,1.422c1.555,0.682,2.852,1.526,3.889,2.533c1.155,1.185,2.059,2.607,2.71,4.266
			c0.74,1.896,1.111,3.925,1.111,6.087c0,1.688-0.215,3.303-0.645,4.843c-0.43,1.541-1.037,2.911-1.821,4.11
			c-0.786,1.2-1.667,2.2-2.644,3s-1.933,1.422-2.866,1.866c-0.934,0.444-2.185,0.889-3.755,1.333
			c1.57,0.267,2.829,0.571,3.777,0.911c0.948,0.341,1.962,0.889,3.043,1.645c1.081,0.755,2.051,1.726,2.911,2.91
			c0.859,1.185,1.503,2.511,1.933,3.977c0.429,1.467,0.644,3.015,0.644,4.644c0,2.251-0.371,4.37-1.111,6.354
			c-0.741,1.985-1.777,3.688-3.11,5.11c-1.126,1.215-2.592,2.251-4.399,3.11c-1.807,0.859-3.659,1.452-5.554,1.777
			c-1.541,0.237-4.348,0.415-8.42,0.533c-4.074,0.119-8.391,0.178-12.953,0.178l-11.686-0.044L320.163,522.938z M338.94,510.763
			h8.54c2.253,0,3.914-0.133,4.981-0.4c1.304-0.326,2.297-0.755,2.979-1.289c0.682-0.533,1.224-1.259,1.624-2.177
			c0.4-0.918,0.601-1.94,0.601-3.066c0-0.978-0.163-1.836-0.489-2.577c-0.326-0.74-0.815-1.362-1.467-1.866
			c-0.652-0.503-1.452-0.866-2.399-1.089c-0.949-0.222-2.43-0.333-4.444-0.333h-9.377L338.94,510.763z M339.959,485.925h6.317
			c2.076,0,3.552-0.051,4.426-0.156c0.875-0.103,1.728-0.289,2.559-0.555s1.55-0.711,2.158-1.333
			c0.608-0.622,1.038-1.318,1.29-2.088c0.252-0.77,0.378-1.54,0.378-2.311c0-1.096-0.26-2.073-0.778-2.933
			c-0.519-0.859-1.355-1.496-2.51-1.911c-1.155-0.415-2.918-0.622-5.288-0.622h-7.998L339.959,485.925z"/>
		<path fill="#5E584E" d="M421.25,461.131c4.739,0,9.301,0.637,13.686,1.911c4.384,1.274,8.22,3.311,11.508,6.109
			c3.288,2.8,5.747,6.021,7.376,9.665c1.629,3.644,2.444,7.835,2.444,12.575c0,4.977-0.896,9.546-2.688,13.708
			c-1.792,4.162-4.376,7.694-7.753,10.597c-3.377,2.903-7.406,5.029-12.086,6.376c-4.681,1.347-9.553,2.021-14.619,2.021
			c-5.006,0-9.805-0.66-14.396-1.978c-4.592-1.317-8.583-3.45-11.975-6.398c-3.393-2.947-5.799-6.228-7.221-9.842
			c-1.422-3.614-2.133-7.627-2.133-12.042c0-6.487,1.503-12.182,4.51-17.084c3.006-4.902,7.465-8.731,13.375-11.486
			C407.186,462.508,413.844,461.131,421.25,461.131z M420.45,474.505c-3.407,0-6.487,0.837-9.242,2.511
			c-2.755,1.674-4.873,3.999-6.354,6.976c-1.481,2.978-2.222,6.169-2.222,9.576c0,3.14,0.673,6.014,2.022,8.62
			c1.347,2.607,3.399,4.643,6.154,6.11c2.755,1.466,5.672,2.199,8.753,2.199c3.288,0,6.302-0.822,9.042-2.466
			c2.74-1.645,4.828-3.955,6.266-6.932c1.436-2.978,2.155-6.095,2.155-9.354c0-3.169-0.667-6.094-2-8.775
			c-1.333-2.681-3.288-4.762-5.865-6.243C426.582,475.246,423.678,474.505,420.45,474.505z"/>
		<path fill="#5E584E" d="M462.928,522.938c0.744-6.991,1.279-12.693,1.606-17.107c0.625-8.057,1.094-16.063,1.406-24.016
			c0.312-7.954,0.468-14.463,0.468-19.529c4.025,0.06,7.592,0.089,10.7,0.089c2.102,0,5.121-0.029,9.058-0.089l-1.071,16.085
			l-1.338,25.149l-0.178,6.176c5.097,0.089,8.415,0.133,9.957,0.133c7.794,0,13.691-0.104,17.691-0.311l-0.978,13.419
			c-7.791-0.059-15.211-0.089-22.261-0.089C478.45,522.849,470.097,522.879,462.928,522.938z"/>
		<path fill="#5E584E" d="M516.782,522.938c0.655-6.754,1.103-12.16,1.341-16.218c0.357-6.043,0.715-13.863,1.073-23.461
			c0.268-7.346,0.403-12.604,0.403-15.774v-5.199c3.464,0.089,6.455,0.133,8.973,0.133c2.429,0,5.612-0.066,9.55-0.2
			c3.938-0.133,7.641-0.2,11.105-0.2c3.968,0,7.448,0.237,10.438,0.711c2.991,0.474,5.783,1.452,8.374,2.933
			c2.591,1.481,4.76,3.421,6.507,5.821c1.747,2.399,3.08,5.207,3.998,8.42c0.918,3.215,1.377,6.525,1.377,9.931
			c0,3.348-0.355,6.569-1.066,9.665c-0.711,3.096-1.704,5.887-2.977,8.375c-1.274,2.488-2.763,4.629-4.466,6.42
			c-1.704,1.793-3.651,3.326-5.843,4.599c-1.629,0.948-3.273,1.688-4.932,2.222c-1.659,0.533-3.925,0.963-6.798,1.289
			c-3.199,0.355-6.828,0.533-10.886,0.533l-17.951-0.133C523.313,522.805,520.573,522.849,516.782,522.938z M535.992,509.563
			c1.628,0.148,3.331,0.222,5.107,0.222c3.02,0,5.713-0.267,8.082-0.8c2.368-0.533,4.448-1.673,6.239-3.421
			c1.792-1.748,3.116-3.991,3.975-6.732c0.858-2.739,1.288-5.546,1.288-8.42c0-3.525-0.637-6.494-1.911-8.909
			c-1.274-2.414-2.97-4.095-5.087-5.043c-2.119-0.948-4.999-1.422-8.643-1.422c-2.133,0-4.651,0.089-7.554,0.267L535.992,509.563z"
			/>
	</g>
</g>
</svg>
