<?xml version="1.0" encoding="utf-8"?>
<!-- Generator: Adobe Illustrator 16.0.0, SVG Export Plug-In . SVG Version: 6.00 Build 0)  -->
<!DOCTYPE svg PUBLIC "-//W3C//DTD SVG 1.1//EN" "http://www.w3.org/Graphics/SVG/1.1/DTD/svg11.dtd">
<svg version="1.1" id="Layer_1" xmlns="http://www.w3.org/2000/svg" xmlns:xlink="http://www.w3.org/1999/xlink" x="0px" y="0px"
	 width="624.723px" height="639px" viewBox="0 0 624.723 639" enable-background="new 0 0 624.723 639" xml:space="preserve">
<rect fill="#F49120" width="624.723" height="639"/>
<g>
	<g>
		<g>
			<path fill="#FFFFFF" d="M49.331,164.627c4.14-5.011,8.798-9.278,13.974-12.801c5.177-3.522,10.681-5.8,16.513-6.832
				c5.832-1.031,11.385-0.816,16.661,0.644c5.276,1.46,10.419,4.261,15.43,8.4c5.262,4.348,9.31,9.287,12.145,14.817
				c2.834,5.531,4.312,11.349,4.431,17.454c0.121,6.106-1.152,12.223-3.814,18.349c-2.663,6.126-6.207,11.866-10.631,17.222
				c-4.374,5.294-9.263,9.791-14.667,13.495c-5.405,3.704-11.146,6.061-17.226,7.071c-6.079,1.013-11.649,0.691-16.713-0.963
				c-5.063-1.653-9.927-4.407-14.594-8.263c-6.859-5.667-11.567-12.23-14.125-19.692c-2.557-7.461-2.711-15.52-0.461-24.174
				C38.503,180.7,42.862,172.458,49.331,164.627z M62.773,177.155c-2.976,3.603-4.781,7.591-5.418,11.965
				c-0.637,4.375-0.029,8.646,1.825,12.812c1.854,4.167,4.583,7.738,8.184,10.714c3.32,2.742,6.947,4.541,10.88,5.393
				s7.878,0.462,11.835-1.17c3.957-1.633,7.28-4.077,9.972-7.334c2.872-3.478,4.635-7.382,5.291-11.715
				c0.655-4.333,0.037-8.559-1.856-12.679c-1.893-4.12-4.562-7.603-8.007-10.449c-3.351-2.768-7.026-4.619-11.025-5.551
				c-3.999-0.932-7.907-0.682-11.725,0.748C68.913,171.319,65.593,173.742,62.773,177.155z"/>
			<path fill="#FFFFFF" d="M151.379,179.488c-2.822-6.615-5.439-12.531-7.851-17.746c-2.412-5.215-5.323-11.198-8.735-17.948
				c-3.413-6.749-7.1-13.822-11.062-21.219c-3.961-7.396-7.154-13.256-9.579-17.58c4.488-2.377,8.096-4.332,10.823-5.862
				c2.833-1.589,6.243-3.606,10.229-6.051c3.984-2.445,7.907-4.75,11.77-6.916c4.534-2.543,8.674-4.631,12.415-6.265
				c2.795-1.242,5.501-2.084,8.117-2.527c2.617-0.442,4.98-0.523,7.096-0.241c2.113,0.281,4.054,0.834,5.82,1.661
				c1.768,0.826,3.447,2.015,5.04,3.566c1.593,1.552,2.985,3.391,4.178,5.517c1.331,2.375,2.277,4.767,2.838,7.177
				c0.56,2.411,0.705,4.892,0.436,7.441c-0.27,2.551-1.016,5.042-2.237,7.473c-1.221,2.432-3.216,5.333-5.983,8.701l6.55,5.201
				c1.833,1.441,3.738,2.888,5.717,4.339l15.857,11.578c0.697,0.495,2.008,1.506,3.937,3.032c-5.883,3.207-9.833,5.375-11.851,6.507
				c-2.549,1.43-6.708,3.81-12.475,7.137c-1.602-1.523-4.548-4.367-8.84-8.527c-1.776-1.752-3.195-3.075-4.256-3.971
				c-2.263-2.037-5.499-4.856-9.711-8.457l-13.917-11.967c2.112-0.719,4.089-1.595,5.932-2.629c2.586-1.45,4.715-3.157,6.386-5.119
				c1.671-1.961,2.589-4.061,2.756-6.297c0.167-2.236-0.257-4.258-1.27-6.065c-0.854-1.523-2.013-2.632-3.474-3.327
				c-1.461-0.694-3.227-0.833-5.3-0.417c-2.071,0.417-4.934,1.649-8.582,3.696c-1.24,0.696-2.509,1.442-3.809,2.241
				c-1.299,0.798-2.824,1.713-4.575,2.741c3.62,7.519,8.186,16.603,13.699,27.251c5.513,10.648,11.04,21.033,16.58,31.155
				c-5.965,3.252-9.833,5.375-11.607,6.37C160.383,174.298,156.697,176.413,151.379,179.488z"/>
			<path fill="#FFFFFF" d="M214.098,140.237l3.686-9.436l22.25-63.416l2.317-7.071c0.671-2.074,1.596-5.05,2.775-8.928
				c7.08-0.992,12.246-1.737,15.5-2.231c5.663-0.86,10.897-1.696,15.705-2.509l12.607,23.789l25.222,45.602l4.829,8.266
				c-6.97,0.977-11.196,1.578-12.684,1.804c-3.378,0.513-8.337,1.308-14.879,2.383c-2.771-6.359-6.501-13.764-11.189-22.216
				l-30.329,4.607c-2.417,7.6-4.846,15.94-7.284,25.022c-7.491,1.057-12.081,1.712-13.769,1.968
				C225.798,138.336,220.881,139.125,214.098,140.237z M254.53,92.244l18.713-2.843c-6.801-13.447-10.532-20.858-11.192-22.236
				c-1.753,6.297-3.267,11.47-4.539,15.519L254.53,92.244z"/>
			<path fill="#FFFFFF" d="M321.691,125.415l4.146-12.169l12.344-41.663l4.696-16.86l2.198-9.249
				c6.117,1.538,11.531,2.865,16.242,3.985c3.365,0.799,8.105,1.885,14.221,3.254l14.37,52.04l1.882,7.591
				c2.023-6.537,4.692-15.74,8.008-27.609c3.313-11.87,5.516-20.098,6.605-24.686c4.837,1.234,8.718,2.197,11.64,2.892
				c1.341,0.319,5.22,1.2,11.635,2.641l-5.621,17.33l-14.334,48.456l-3.725,14.085c-5.123-1.301-9.92-2.483-14.388-3.545
				c-3.719-0.883-8.869-2.065-15.454-3.547c-1.131-4.362-1.985-7.531-2.558-9.506l-5.931-19.268
				c-1.96-6.314-3.721-12.331-5.28-18.048c-1.055-3.634-2.093-7.599-3.115-11.894l-7.958,27.81l-6.232,23.521
				c-4.877-1.243-8.598-2.168-11.164-2.779C331.747,127.679,327.671,126.753,321.691,125.415z"/>
			<path fill="#FFFFFF" d="M484.831,138.684c4.504,3.27,8.816,6.353,12.937,9.252c7.044,4.957,12.581,8.806,16.616,11.545
				c-3.636,4.248-8.611,10.384-14.927,18.409c-6.316,8.024-11.02,14.128-14.113,18.31c-4.312-1.992-7.833-3.712-10.563-5.162
				c-2.731-1.45-5.945-3.289-9.643-5.519s-6.925-4.314-9.682-6.255c-4.52-3.181-8.698-6.668-12.537-10.462
				c-3.839-3.793-6.903-7.715-9.196-11.763c-2.294-4.048-3.605-8.274-3.933-12.679c-0.329-4.404,0.229-8.954,1.672-13.652
				c1.442-4.697,3.602-9.09,6.479-13.176c4.746-6.744,10.83-11.827,18.256-15.246c7.423-3.419,15.47-4.6,24.139-3.541
				c8.669,1.059,17.987,5.095,27.955,12.109c7.274,5.121,14.711,11.671,22.309,19.651c-3.413,4.851-6.997,10.401-10.749,16.652
				c-1.831-2.48-3.341-4.449-4.525-5.904c-1.187-1.456-2.646-3.054-4.376-4.794c-1.732-1.74-3.428-3.318-5.088-4.736
				c-1.661-1.417-3.188-2.616-4.584-3.598c-3.655-2.573-7.479-4.48-11.47-5.725c-3.994-1.246-7.927-1.603-11.8-1.076
				c-3.874,0.528-7.456,1.895-10.746,4.099c-3.292,2.205-6.117,4.985-8.479,8.341c-2.408,3.422-3.89,6.938-4.442,10.547
				c-0.554,3.609,0.124,7.129,2.033,10.559c1.907,3.429,4.64,6.395,8.195,8.897c2.956,2.081,6.499,3.929,10.629,5.543l8.179-10.414
				c-2.094-1.623-3.341-2.575-3.74-2.856l-5.329-3.676l4.662-5.885c0.5-0.641,1.223-1.562,2.167-2.76
				C482.079,142.522,483.31,140.843,484.831,138.684z"/>
			<path fill="#FFFFFF" d="M491.968,206.387c9.134-5.242,16.718-9.719,22.751-13.432c6.032-3.713,13.962-8.772,23.787-15.181
				c9.825-6.408,16.295-10.717,19.407-12.93l4.336-3.156c5.486,7.861,12.171,17.337,20.055,28.43
				c7.27,10.23,13.714,19.229,19.334,26.996l-1.704,1.063c-0.42,0.247-1.915,1.185-4.484,2.813l-5.607,3.537
				c-1.204,0.754-2.398,1.554-3.586,2.397c-4.277-6.579-7.957-12.038-11.039-16.376c-3.39-4.769-5.688-7.984-6.892-9.645
				c-1.205-1.66-3.134-4.215-5.783-7.664l-11.854,7.516c2.679,3.979,5.865,8.569,9.561,13.77c1.318,1.854,4.941,6.708,10.87,14.559
				c-4.476,2.683-9.748,5.956-15.82,9.824c-4.004-5.772-7.099-10.199-9.286-13.276c-3.245-4.568-6.996-9.598-11.249-15.093
				l-12.49,7.986l4.057,5.709c1.199,1.688,3.73,5.145,7.593,10.368l7.551,10.1c1.114,1.5,3.059,3.953,5.83,7.362
				c-5.184,3.087-10.485,6.356-15.906,9.809c-5.677-8.128-11.938-17.01-18.786-26.646l-15.581-21.822L491.968,206.387z"/>
		</g>
	</g>
	<g>
		<path fill="#FFFFFF" d="M302.48,175.081c116.462,0.302,210.313,94.86,208.945,212.107
			c-1.37,117.672-97.934,207.945-211.342,206.728c-113.342-1.223-203.796-90.665-207.39-201.438
			C88.635,267.518,188.158,174.906,302.48,175.081z M302.084,202.854c-100.618-0.686-181.818,83.771-181.823,181.699
			c-0.008,95.155,77.217,181.634,181.782,181.922c100.325,0.271,187.985-84.218,181.415-193.794
			C477.947,280.713,399.965,202.519,302.084,202.854z"/>
		<path fill="#FFFFFF" d="M139.835,385.27c1.074-7.903,1.894-18.416,4.055-28.65c2.725-12.917,13.547-18.808,26.168-14.77
			c30.898,9.888,61.727,20.01,92.587,30.018c2.441,0.79,4.907,1.539,7.405,2.095c5.611,1.247,8.505,4.82,8.616,10.395
			c0.106,5.581-2.778,8.985-8.225,10.719c-29.815,9.48-59.581,19.117-89.364,28.7c-3.334,1.078-6.647,2.215-9.994,3.252
			c-14.197,4.393-25.987-2.758-28.383-17.495C141.536,402.387,140.976,395.149,139.835,385.27z"/>
		<path fill="#FFFFFF" d="M437.861,302.884c-0.967,8.331-4.277,14.461-11.386,18.104c-32.261,16.535-64.505,33.107-96.991,49.183
			c-2.659,1.31-7.813-0.037-10.6-1.927c-4.389-2.976-4.252-7.985-1.927-12.637c6.282-12.539,12.584-25.069,18.948-37.566
			c9.447-18.554,18.923-37.092,28.452-55.6c7.104-13.8,19.245-16.887,32.071-8.201c14.519,9.83,26.753,21.992,36.319,36.673
			C435.079,294.494,436.19,298.874,437.861,302.884z"/>
		<path fill="#FFFFFF" d="M220.71,520.306c-3.873-1.429-8.175-2.206-11.542-4.405c-15.638-10.229-28.72-23.188-38.802-38.957
			c-6.738-10.547-3.659-23.168,7.303-28.856c31.285-16.228,62.756-32.101,94.118-48.171c5.015-2.568,9.769-3.4,13.959,1.276
			c3.964,4.421,3.552,9.015,0.881,14.165c-15.79,30.474-31.441,61.021-47.001,91.619C235.678,514.74,229.936,519.354,220.71,520.306
			z"/>
		<path fill="#FFFFFF" d="M219.167,249.218c10.044,0.894,15.988,4.291,19.45,11.055c16.165,31.604,32.161,63.288,48.298,94.906
			c2.717,5.327,2.111,9.921-2.28,13.889c-4.19,3.792-8.278,2.371-12.806,0.042c-29.886-15.354-59.895-30.471-89.834-45.718
			c-16.721-8.513-19.561-20.08-8.887-35.257c9.385-13.344,20.764-24.697,34.339-33.671
			C211.585,251.73,216.599,250.333,219.167,249.218z"/>
		<path fill="#FFFFFF" d="M302.122,546.602c-8.847-1.12-17.708-1.886-26.439-3.417c-13.77-2.425-20.562-13.712-16.284-27.054
			c9.99-31.128,20.223-62.183,30.329-93.277c0.864-2.651,1.392-5.409,2.289-8.044c1.642-4.849,5.335-6.924,10.249-6.944
			c4.664-0.017,8.164,1.918,9.67,6.582c11.049,34.207,22.25,68.374,33.031,102.668c3.852,12.255-3.108,23.542-15.664,25.904
			C320.371,544.699,311.26,545.432,302.122,546.602z"/>
		<path fill="#FFFFFF" d="M463.914,380.594c-1.041,11.082-1.412,20.463-2.906,29.663c-2.33,14.379-14.135,21.225-28.082,16.704
			c-33.289-10.789-66.518-21.755-99.819-32.495c-4.878-1.576-7.669-4.429-7.755-9.476c-0.091-5.207,2.289-8.67,7.553-10.365
			c33.311-10.761,66.555-21.719,99.861-32.491c14.164-4.581,25.357,2.075,27.971,16.618
			C462.14,366.532,463.029,374.406,463.914,380.594z"/>
		<path fill="#FFFFFF" d="M437.923,466.422c-1.836,4.186-3.129,8.73-5.607,12.497c-9.496,14.416-21.611,26.357-35.907,36.039
			c-12.37,8.386-24.958,5.409-31.737-7.775c-16.133-31.372-32.067-62.842-48.088-94.274c-2.158-4.232-1.763-8.003,1.654-11.502
			c3.845-3.943,8.143-4.203,12.781-1.864c12.725,6.405,25.419,12.863,38.114,19.326c18.733,9.534,37.46,19.08,56.185,28.634
			C432.851,451.347,436.997,457.341,437.923,466.422z"/>
		<path fill="#FFFFFF" d="M301.755,222.593c9.652,1.227,18.787,1.847,27.684,3.651c12.703,2.576,19.412,13.675,15.506,25.936
			c-10.842,34.055-21.957,68.03-33.5,101.854c-1.049,3.083-5.646,6.085-9.134,6.94c-4.688,1.152-8.423-1.897-10.015-6.796
			c-11.197-34.43-22.563-68.807-33.512-103.316c-3.404-10.739,3.07-21.718,14.32-24.196
			C282.638,224.566,292.477,223.858,301.755,222.593z"/>
	</g>
</g>
</svg>
