<?xml version="1.0" encoding="UTF-8" standalone="no"?>
<svg
   xmlns:dc="http://purl.org/dc/elements/1.1/"
   xmlns:cc="http://creativecommons.org/ns#"
   xmlns:rdf="http://www.w3.org/1999/02/22-rdf-syntax-ns#"
   xmlns:svg="http://www.w3.org/2000/svg"
   xmlns="http://www.w3.org/2000/svg"
   viewBox="0 0 832.96399 852"
   height="852"
   width="832.96399"
   xml:space="preserve"
   id="svg2"
   version="1.1"><metadata
     id="metadata8"><rdf:RDF><cc:Work
         rdf:about=""><dc:format>image/svg+xml</dc:format><dc:type
           rdf:resource="http://purl.org/dc/dcmitype/StillImage" /></cc:Work></rdf:RDF></metadata><defs
     id="defs6"><clipPath
       id="clipPath18"
       clipPathUnits="userSpaceOnUse"><path
         id="path16"
         d="M 0,639 H 624.723 V 0 H 0 Z" /></clipPath></defs><g
     transform="matrix(1.3333333,0,0,-1.3333333,0,852)"
     id="g10"><g
       id="g12"><g
         clip-path="url(#clipPath18)"
         id="g14"><g
           transform="translate(511.4399,254.4863)"
           id="g20"><path
             id="path22"
             style="fill:#fff8f4;fill-opacity:1;fill-rule:nonzero;stroke:none"
             d="m 0,0 c 0,-115.667 -93.766,-209.433 -209.433,-209.433 -115.667,0 -209.433,93.766 -209.433,209.433 0,115.667 93.766,209.433 209.433,209.433 C -93.766,209.433 0,115.667 0,0" /></g><g
           transform="translate(62.7729,461.8447)"
           id="g24"><path
             id="path26"
             style="fill:#565147;fill-opacity:1;fill-rule:nonzero;stroke:none"
             d="m 0,0 c -2.976,-3.603 -4.781,-7.591 -5.418,-11.965 -0.637,-4.375 -0.029,-8.645 1.825,-12.811 1.853,-4.167 4.582,-7.739 8.184,-10.714 3.32,-2.742 6.947,-4.541 10.88,-5.393 3.933,-0.851 7.878,-0.462 11.835,1.17 3.957,1.633 7.28,4.077 9.972,7.334 2.872,3.478 4.635,7.382 5.291,11.715 0.655,4.333 0.036,8.559 -1.856,12.679 -1.893,4.12 -4.562,7.602 -8.007,10.449 C 29.355,5.232 25.68,7.083 21.681,8.015 17.682,8.947 13.774,8.697 9.957,7.267 6.14,5.836 2.82,3.413 0,0 m -13.442,12.528 c 4.14,5.011 8.798,9.278 13.974,12.801 5.177,3.522 10.681,5.8 16.513,6.831 5.831,1.031 11.385,0.817 16.661,-0.643 5.276,-1.461 10.419,-4.261 15.43,-8.4 5.262,-4.348 9.31,-9.287 12.145,-14.817 2.834,-5.531 4.312,-11.349 4.431,-17.454 0.121,-6.107 -1.152,-12.223 -3.815,-18.349 -2.663,-6.126 -6.207,-11.866 -10.631,-17.222 -4.373,-5.294 -9.263,-9.791 -14.666,-13.495 -5.405,-3.704 -11.146,-6.06 -17.226,-7.071 -6.079,-1.013 -11.649,-0.691 -16.713,0.963 -5.063,1.653 -9.928,4.407 -14.594,8.263 -6.859,5.667 -11.567,12.23 -14.125,19.692 -2.557,7.461 -2.711,15.519 -0.461,24.174 2.249,8.654 6.608,16.897 13.077,24.727" /></g><g
           transform="translate(151.3794,459.5117)"
           id="g28"><path
             id="path30"
             style="fill:#565147;fill-opacity:1;fill-rule:nonzero;stroke:none"
             d="m 0,0 c -2.822,6.615 -5.439,12.531 -7.851,17.746 -2.412,5.214 -5.323,11.198 -8.735,17.948 -3.413,6.749 -7.1,13.822 -11.061,21.219 -3.961,7.396 -7.155,13.256 -9.58,17.579 4.488,2.378 8.096,4.332 10.824,5.862 2.833,1.589 6.243,3.606 10.228,6.051 3.985,2.445 7.907,4.75 11.77,6.916 4.534,2.543 8.674,4.631 12.415,6.264 2.795,1.242 5.501,2.084 8.117,2.527 2.617,0.443 4.98,0.523 7.096,0.242 2.113,-0.281 4.053,-0.835 5.82,-1.661 1.768,-0.826 3.447,-2.015 5.04,-3.567 1.593,-1.552 2.985,-3.391 4.178,-5.516 1.331,-2.375 2.277,-4.767 2.838,-7.177 0.559,-2.411 0.705,-4.892 0.435,-7.441 -0.269,-2.552 -1.015,-5.042 -2.237,-7.473 -1.221,-2.432 -3.216,-5.333 -5.984,-8.702 l 6.55,-5.2 c 1.833,-1.441 3.739,-2.888 5.717,-4.339 L 61.438,39.7 c 0.697,-0.495 2.007,-1.506 3.936,-3.032 -5.883,-3.207 -9.833,-5.375 -11.851,-6.507 -2.548,-1.43 -6.708,-3.809 -12.474,-7.137 -1.602,1.523 -4.548,4.367 -8.84,8.527 -1.776,1.752 -3.195,3.075 -4.256,3.971 -2.263,2.037 -5.499,4.856 -9.711,8.457 L 4.325,55.946 c 2.112,0.719 4.089,1.595 5.932,2.629 2.586,1.45 4.715,3.157 6.386,5.119 1.67,1.961 2.588,4.06 2.755,6.297 0.167,2.236 -0.256,4.258 -1.269,6.065 -0.855,1.523 -2.013,2.632 -3.474,3.327 -1.461,0.694 -3.226,0.833 -5.3,0.416 C 7.284,79.382 4.422,78.15 0.773,76.104 -0.467,75.408 -1.735,74.661 -3.035,73.862 -4.334,73.064 -5.859,72.149 -7.61,71.121 -3.99,63.602 0.575,54.519 6.089,43.87 11.602,33.221 17.129,22.836 22.669,12.715 16.704,9.462 12.836,7.339 11.062,6.345 9.004,5.19 5.317,3.075 0,0" /></g><g
           transform="translate(254.5298,546.7563)"
           id="g32"><path
             id="path34"
             style="fill:#565147;fill-opacity:1;fill-rule:nonzero;stroke:none"
             d="M 0,0 18.713,2.843 C 11.912,16.29 8.181,23.701 7.521,25.079 5.768,18.781 4.254,13.609 2.981,9.56 Z m -40.432,-47.994 3.686,9.436 22.25,63.415 2.317,7.071 c 0.671,2.074 1.596,5.051 2.776,8.928 7.08,0.992 12.246,1.737 15.5,2.231 5.663,0.86 10.897,1.696 15.705,2.509 L 34.409,21.808 59.631,-23.794 64.46,-32.06 c -6.97,-0.977 -11.196,-1.578 -12.684,-1.804 -3.378,-0.512 -8.337,-1.307 -14.879,-2.383 -2.771,6.359 -6.501,13.764 -11.189,22.216 l -30.329,-4.607 c -2.417,-7.6 -4.846,-15.941 -7.284,-25.022 -7.491,-1.057 -12.081,-1.712 -13.769,-1.968 -3.057,-0.465 -7.974,-1.253 -14.758,-2.366" /></g><g
           transform="translate(321.6909,513.585)"
           id="g36"><path
             id="path38"
             style="fill:#565147;fill-opacity:1;fill-rule:nonzero;stroke:none"
             d="m 0,0 4.146,12.169 12.343,41.663 4.697,16.86 2.198,9.249 c 6.117,-1.538 11.531,-2.865 16.242,-3.985 3.365,-0.8 8.105,-1.885 14.221,-3.254 l 14.37,-52.04 1.882,-7.591 c 2.023,6.536 4.692,15.74 8.007,27.609 3.314,11.87 5.516,20.098 6.606,24.686 4.837,-1.234 8.718,-2.197 11.64,-2.891 1.34,-0.32 5.219,-1.201 11.634,-2.642 L 102.365,42.504 88.031,-5.952 84.307,-20.037 c -5.123,1.302 -9.92,2.483 -14.388,3.545 -3.719,0.884 -8.869,2.066 -15.454,3.548 -1.131,4.362 -1.986,7.531 -2.558,9.506 l -5.93,19.268 c -1.96,6.314 -3.721,12.33 -5.281,18.048 -1.054,3.634 -2.092,7.599 -3.115,11.893 L 29.623,17.962 23.391,-5.559 C 18.514,-4.316 14.793,-3.391 12.227,-2.78 10.056,-2.264 5.98,-1.338 0,0" /></g><g
           transform="translate(484.8306,500.3164)"
           id="g40"><path
             id="path42"
             style="fill:#565147;fill-opacity:1;fill-rule:nonzero;stroke:none"
             d="m 0,0 c 4.504,-3.27 8.816,-6.353 12.937,-9.252 7.043,-4.957 12.581,-8.807 16.616,-11.545 -3.636,-4.248 -8.612,-10.385 -14.927,-18.409 -6.316,-8.024 -11.02,-14.128 -14.113,-18.31 -4.312,1.993 -7.833,3.712 -10.563,5.162 -2.731,1.451 -5.945,3.29 -9.642,5.519 -3.698,2.23 -6.925,4.314 -9.682,6.255 -4.52,3.181 -8.698,6.668 -12.537,10.462 -3.839,3.793 -6.903,7.715 -9.196,11.763 -2.294,4.047 -3.606,8.274 -3.933,12.678 -0.329,4.404 0.228,8.954 1.672,13.652 1.442,4.697 3.601,9.09 6.478,13.176 4.746,6.744 10.83,11.827 18.256,15.246 7.423,3.419 15.47,4.6 24.139,3.541 C 4.174,38.879 13.492,34.843 23.46,27.829 30.734,22.708 38.171,16.157 45.769,8.177 42.355,3.326 38.771,-2.224 35.02,-8.475 c -1.832,2.481 -3.341,4.449 -4.526,5.905 -1.186,1.455 -2.645,3.054 -4.376,4.794 -1.732,1.74 -3.428,3.318 -5.088,4.735 -1.661,1.417 -3.188,2.617 -4.584,3.599 -3.655,2.572 -7.478,4.48 -11.469,5.725 -3.995,1.245 -7.927,1.603 -11.8,1.075 -3.874,-0.527 -7.456,-1.894 -10.746,-4.099 -3.292,-2.204 -6.118,-4.985 -8.479,-8.341 -2.408,-3.422 -3.889,-6.938 -4.442,-10.547 -0.554,-3.609 0.124,-7.129 2.033,-10.559 1.907,-3.429 4.64,-6.395 8.195,-8.897 2.956,-2.081 6.499,-3.929 10.629,-5.543 l 8.179,10.414 c -2.094,1.623 -3.341,2.575 -3.74,2.856 l -5.329,3.676 4.662,5.885 c 0.5,0.641 1.222,1.561 2.167,2.759 C -2.752,-3.838 -1.521,-2.16 0,0" /></g><g
           transform="translate(491.9683,432.6133)"
           id="g44"><path
             id="path46"
             style="fill:#565147;fill-opacity:1;fill-rule:nonzero;stroke:none"
             d="m 0,0 c 9.134,5.242 16.718,9.719 22.751,13.432 6.032,3.713 13.962,8.772 23.787,15.18 9.825,6.408 16.295,10.718 19.407,12.93 l 4.336,3.156 C 75.768,36.837 82.452,27.361 90.336,16.269 97.605,6.038 104.05,-2.961 109.67,-10.728 l -1.704,-1.062 c -0.42,-0.247 -1.915,-1.185 -4.485,-2.813 l -5.607,-3.537 c -1.204,-0.754 -2.398,-1.553 -3.586,-2.397 -4.277,6.579 -7.957,12.038 -11.039,16.376 -3.39,4.768 -5.687,7.984 -6.892,9.644 -1.205,1.661 -3.133,4.215 -5.783,7.664 L 58.721,5.632 c 2.678,-3.98 5.865,-8.57 9.56,-13.77 1.319,-1.854 4.942,-6.708 10.87,-14.558 -4.475,-2.683 -9.748,-5.956 -15.82,-9.825 -4.004,5.773 -7.099,10.2 -9.286,13.277 -3.245,4.568 -6.996,9.598 -11.249,15.093 l -12.49,-7.987 4.056,-5.709 c 1.2,-1.687 3.731,-5.144 7.593,-10.368 l 7.551,-10.099 c 1.114,-1.5 3.058,-3.954 5.83,-7.363 -5.184,-3.087 -10.485,-6.356 -15.906,-9.808 -5.677,8.128 -11.939,17.009 -18.786,26.645 L 5.062,-7.018 Z" /></g><g
           transform="translate(302.0845,436.1455)"
           id="g48"><path
             id="path50"
             style="fill:#f48513;fill-opacity:1;fill-rule:nonzero;stroke:none"
             d="m 0,0 c -100.618,0.686 -181.818,-83.771 -181.823,-181.699 -0.008,-95.155 77.217,-181.634 181.782,-181.922 100.325,-0.272 187.985,84.218 181.415,193.794 C 175.862,-77.858 97.881,0.336 0,0 m 0.396,27.773 c 116.461,-0.301 210.312,-94.86 208.945,-212.107 -1.37,-117.672 -97.934,-207.945 -211.342,-206.728 -113.342,1.223 -203.796,90.666 -207.39,201.439 -4.058,124.96 95.464,217.571 209.787,217.396" /></g><g
           transform="translate(139.8354,253.7305)"
           id="g52"><path
             id="path54"
             style="fill:#f69f27;fill-opacity:1;fill-rule:nonzero;stroke:none"
             d="m 0,0 c 1.074,7.903 1.894,18.416 4.055,28.65 2.724,12.917 13.547,18.808 26.168,14.77 30.898,-9.888 61.726,-20.01 92.587,-30.018 2.441,-0.79 4.907,-1.539 7.405,-2.094 5.611,-1.247 8.505,-4.821 8.616,-10.395 0.106,-5.581 -2.778,-8.985 -8.225,-10.719 -29.815,-9.48 -59.581,-19.117 -89.364,-28.7 -3.334,-1.078 -6.647,-2.215 -9.994,-3.252 C 17.051,-46.15 5.261,-39 2.865,-24.263 1.7,-17.117 1.141,-9.88 0,0" /></g><g
           transform="translate(437.8608,336.1162)"
           id="g56"><path
             id="path58"
             style="fill:#f69f27;fill-opacity:1;fill-rule:nonzero;stroke:none"
             d="m 0,0 c -0.967,-8.331 -4.277,-14.461 -11.386,-18.104 -32.26,-16.536 -64.505,-33.108 -96.991,-49.183 -2.659,-1.31 -7.812,0.037 -10.6,1.927 -4.388,2.975 -4.252,7.985 -1.926,12.636 6.282,12.539 12.584,25.07 18.948,37.567 9.447,18.553 18.923,37.092 28.452,55.599 7.105,13.8 19.245,16.887 32.071,8.202 14.519,-9.831 26.753,-21.993 36.32,-36.673 C -2.782,8.39 -1.671,4.01 0,0" /></g><g
           transform="translate(220.7104,118.6943)"
           id="g60"><path
             id="path62"
             style="fill:#f69f27;fill-opacity:1;fill-rule:nonzero;stroke:none"
             d="m 0,0 c -3.873,1.429 -8.175,2.206 -11.542,4.405 -15.638,10.229 -28.72,23.188 -38.802,38.957 -6.738,10.547 -3.659,23.168 7.303,28.857 31.285,16.227 62.756,32.1 94.118,48.171 5.015,2.568 9.769,3.4 13.959,-1.277 3.964,-4.421 3.552,-9.014 0.881,-14.165 C 50.127,74.475 34.476,43.927 18.916,13.329 14.968,5.565 9.226,0.951 0,0" /></g><g
           transform="translate(219.1675,389.7822)"
           id="g64"><path
             id="path66"
             style="fill:#f69f27;fill-opacity:1;fill-rule:nonzero;stroke:none"
             d="m 0,0 c 10.044,-0.894 15.988,-4.291 19.45,-11.055 16.165,-31.604 32.161,-63.288 48.298,-94.906 2.717,-5.327 2.111,-9.921 -2.28,-13.889 -4.191,-3.792 -8.279,-2.371 -12.806,-0.042 -29.886,15.355 -59.894,30.471 -89.834,45.718 -16.721,8.513 -19.56,20.08 -8.887,35.257 9.385,13.344 20.764,24.697 34.339,33.671 C -7.582,-2.513 -2.568,-1.115 0,0" /></g><g
           transform="translate(302.1216,92.3984)"
           id="g68"><path
             id="path70"
             style="fill:#f69f27;fill-opacity:1;fill-rule:nonzero;stroke:none"
             d="m 0,0 c -8.847,1.12 -17.708,1.886 -26.439,3.417 -13.77,2.425 -20.562,13.712 -16.285,27.054 9.991,31.128 20.223,62.182 30.329,93.277 0.865,2.651 1.392,5.409 2.29,8.044 1.641,4.849 5.334,6.924 10.249,6.944 4.664,0.017 8.164,-1.918 9.669,-6.582 C 20.862,97.947 32.063,63.78 42.845,29.486 46.696,17.231 39.736,5.944 27.181,3.582 18.249,1.902 9.139,1.17 0,0" /></g><g
           transform="translate(463.9136,258.4062)"
           id="g72"><path
             id="path74"
             style="fill:#f69f27;fill-opacity:1;fill-rule:nonzero;stroke:none"
             d="m 0,0 c -1.041,-11.082 -1.412,-20.463 -2.906,-29.663 -2.33,-14.379 -14.135,-21.225 -28.082,-16.704 -33.289,10.789 -66.518,21.755 -99.82,32.495 -4.878,1.576 -7.669,4.429 -7.754,9.476 -0.091,5.207 2.289,8.669 7.552,10.365 33.311,10.76 66.555,21.718 99.862,32.491 14.164,4.581 25.357,-2.075 27.97,-16.618 C -1.773,14.062 -0.885,6.187 0,0" /></g><g
           transform="translate(437.9233,172.5781)"
           id="g76"><path
             id="path78"
             style="fill:#f69f27;fill-opacity:1;fill-rule:nonzero;stroke:none"
             d="m 0,0 c -1.836,-4.186 -3.129,-8.73 -5.607,-12.497 -9.497,-14.416 -21.612,-26.357 -35.908,-36.039 -12.37,-8.386 -24.958,-5.409 -31.737,7.775 -16.133,31.372 -32.067,62.842 -48.088,94.275 -2.158,4.232 -1.763,8.003 1.654,11.502 3.845,3.943 8.143,4.203 12.782,1.864 C -94.18,60.475 -81.485,54.017 -68.79,47.554 -50.057,38.02 -31.33,28.474 -12.605,18.92 -5.072,15.075 -0.927,9.081 0,0" /></g><g
           transform="translate(301.7554,416.4072)"
           id="g80"><path
             id="path82"
             style="fill:#f69f27;fill-opacity:1;fill-rule:nonzero;stroke:none"
             d="m 0,0 c 9.652,-1.227 18.787,-1.847 27.684,-3.651 12.703,-2.577 19.412,-13.675 15.505,-25.936 -10.841,-34.055 -21.957,-68.03 -33.5,-101.854 -1.048,-3.083 -5.646,-6.085 -9.133,-6.941 -4.689,-1.152 -8.423,1.898 -10.015,6.796 -11.197,34.43 -22.562,68.807 -33.512,103.316 -3.404,10.74 3.071,21.718 14.321,24.197 C -19.117,-1.974 -9.278,-1.266 0,0" /></g></g></g></g></svg>