<?xml version="1.0" encoding="utf-8"?>
<!-- Generator: Adobe Illustrator 16.0.0, SVG Export Plug-In . SVG Version: 6.00 Build 0)  -->
<!DOCTYPE svg PUBLIC "-//W3C//DTD SVG 1.1//EN" "http://www.w3.org/Graphics/SVG/1.1/DTD/svg11.dtd">
<svg version="1.1" id="Layer_1" xmlns="http://www.w3.org/2000/svg" xmlns:xlink="http://www.w3.org/1999/xlink" x="0px" y="0px"
	 width="500px" height="500px" viewBox="0 0 500 500" enable-background="new 0 0 500 500" xml:space="preserve">
<path fill-rule="evenodd" clip-rule="evenodd" d="M420.242,221.711c-5.337-32.945-19.588-61.507-42.479-85.611
	c-23.386-24.626-51.896-40.312-85.319-46.824c-2.063-0.402-2.946-0.828-2.249-3.255c1.683-5.852,0.865-11.664-1.466-17.181
	c-0.869-2.057-0.702-3.672,0.07-5.636c4.139-10.525,2.406-20.228-4.343-29.172c-4.421-5.858-10.679-8.706-17.427-10.782
	c-3.75,0-7.501,0-11.251,0c-0.271,0.221-0.511,0.56-0.819,0.644c-18.464,5.037-27.361,22.73-20.132,40.247
	c0.645,1.563,0.553,2.733-0.14,4.174c-2.641,5.487-2.917,11.362-1.884,17.181c0.463,2.61,0.273,3.325-2.454,3.866
	c-29.495,5.851-55.394,18.956-77.411,39.426c-25.555,23.762-41.918,52.772-48.858,87.053c-0.606,2.994,0.138,7.291-2.108,8.669
	c-2.38,1.461-6.286,0.348-9.513,0.546c-1.934,0.119-2.382-0.504-2.536-2.445c-0.446-5.606-4.775-10.254-10.103-10.961
	c-2.458-0.326-5.006,0.089-7.481-0.159c-7.527-0.754-12.99,1.992-16.089,9.036c0,16.503,0,33.005,0,49.508
	c2.316,7.192,6.083,9.918,13.811,9.968c2.625,0.018,5.25,0.044,7.875-0.02c4.591-0.11,8.566-1.961,10.613-5.959
	c2.014-3.934,4.761-4.724,8.734-4.621c3.042,0.079,4.499,0.89,5.004,4.046c0.809,5.052,1.819,10.081,3.195,15.03
	c8.01,28.832,22.574,53.689,44.158,74.556c16.735,16.18,36.011,28.024,57.765,36.024c12.242,4.502,24.881,7.185,37.873,8.244
	c10.252,0,20.503,0,30.755,0c3.786-0.731,7.67-0.386,11.461-0.983c20.887-3.286,40.307-10.544,58.316-21.61
	c17.444-10.72,32.407-24.167,44.692-40.568c15.004-20.031,25.014-42.265,29.871-66.854c1.164-5.893,1.006-11.87,1.93-17.755
	c0-8.001,0-16.002,0-24.003C420.819,231.047,420.987,226.312,420.242,221.711z M80.696,225.825
	c-0.157,6.478-0.045,12.961-0.045,19.442s-0.106,12.965,0.043,19.442c0.08,3.432-1.033,4.991-4.712,4.922
	c-11.732-0.224-10.15,1.154-10.213-10.146c-0.062-11.217-0.026-22.435-0.007-33.652c0.008-4.466,0.399-4.819,4.972-4.848
	c1.745-0.011,3.501,0.125,5.232-0.028C79.626,220.635,80.78,222.367,80.696,225.825z M98.861,259.465
	c-8.856,0.234-8.854,0.296-8.854-8.45c0-4.727,0.092-9.457-0.044-14.18c-0.057-1.988,0.614-2.457,2.529-2.519
	c8.842-0.285,8.837-0.35,8.699,8.475c-0.021,1.367-0.003,2.736-0.003,4.104c0.033,0,0.065,0,0.098,0
	c0,3.358-0.146,6.725,0.054,10.071C101.462,259.015,100.77,259.415,98.861,259.465z M255.57,33.449
	c10.236-3.334,21.432,2.35,24.936,12.642c1.03,3.024,1.04,6.116,0.779,9.243c-0.115,1.39-0.418,2.272-2.012,1.185
	c-12.431-8.478-24.675-7.619-36.738,0.829C239.348,47.618,245.271,36.804,255.57,33.449z M261.917,60.004
	c10.771,0.056,19.596,9.26,19.521,20.361c-0.073,10.927-8.801,19.495-19.838,19.474c-11.109-0.021-19.995-8.826-20.013-19.831
	C241.57,68.992,250.764,59.945,261.917,60.004z M307.254,390.976c-14.837,4.802-30.072,6.867-45.601,7.171
	c-69.015-0.171-129.821-47.22-146.643-113.905C94.789,204.077,142.084,124.161,220,101.522c5.125-1.489,10.348-2.671,15.643-3.526
	c1.691-0.273,2.619-0.082,3.807,1.224c12.278,13.504,31.472,13.645,43.824,0.32c1.339-1.445,2.363-1.938,4.424-1.507
	c62.404,13.028,103.484,50.113,120.019,111.387C428.727,287.276,384.092,366.104,307.254,390.976z"/>
<path fill-rule="evenodd" clip-rule="evenodd" d="M261.604,110.573c-76.932,0.021-135.912,61.256-136.66,136.295
	c0.328,74.195,58.729,136.717,136.596,136.859c76.813,0.142,136.717-61.634,136.597-136.796
	C398.017,171.763,338.601,110.552,261.604,110.573z M388.579,254.6c-1.256,17.595-5.723,34.288-13.715,50.031
	c-0.776,1.529-1.448,1.915-3.089,0.899c-4.015-2.489-8.211-4.686-12.274-7.1c-2.839-1.688-5.253-1.519-7.009,1.422
	c-1.785,2.99-0.194,4.906,2.354,6.392c4.725,2.75,9.447,5.503,14.295,8.328c-10.065,15.858-22.851,28.776-38.422,38.977
	c-1.427,0.935-2.124,0.967-2.997-0.685c-2.093-3.956-4.383-7.809-6.634-11.679c-1.972-3.387-4.386-4.331-6.984-2.811
	c-2.381,1.394-2.794,4.043-1.02,7.209c2.127,3.798,4.254,7.599,6.529,11.308c1.018,1.658,1.267,2.513-0.872,3.565
	c-15.715,7.738-32.228,12.322-49.755,13.246c-2.183,0.115-2.809-0.423-2.733-2.582c0.15-4.37,0.083-8.75,0.03-13.123
	c-0.042-3.55-1.782-5.575-4.729-5.428c-3.245,0.163-4.526,2.238-4.553,5.246c-0.038,4.5-0.06,9,0.008,13.499
	c0.024,1.658-0.275,2.499-2.264,2.404c-18.178-0.862-35.242-5.76-51.45-13.904c-1.493-0.751-1.103-1.504-0.523-2.503
	c2.311-3.98,4.649-7.944,6.907-11.953c1.83-3.249,1.376-5.423-1.328-7.021c-2.58-1.526-4.672-0.763-6.648,2.559
	c-2.226,3.741-4.463,7.48-6.511,11.32c-0.907,1.701-1.553,2.079-3.305,0.904c-14.703-9.863-27.029-22.057-36.761-36.873
	c-0.979-1.49-1.044-2.151,0.664-3.054c3.956-2.089,7.806-4.383,11.666-6.65c2.923-1.718,3.928-4.432,2.642-6.85
	c-1.244-2.335-4.113-2.816-7.215-1.085c-3.801,2.121-7.583,4.284-11.307,6.536c-1.533,0.927-2.39,1.168-3.391-0.819
	c-6.264-12.432-10.439-25.505-12.401-39.274c-0.51-3.577-0.593-7.216-1.138-10.786c-0.354-2.315,0.505-2.82,2.592-2.771
	c4.498,0.104,9.001,0.098,13.499,0.006c3.587-0.073,5.487-1.829,5.438-4.753c-0.049-2.932-1.937-4.474-5.627-4.5
	c-4.5-0.032-9.001-0.076-13.5,0.022c-1.874,0.041-2.603-0.326-2.463-2.483c1.126-17.354,5.486-33.808,13.11-49.445
	c1.241-2.544,2.19-2.883,4.541-1.327c3.521,2.33,7.334,4.21,10.95,6.403c2.838,1.721,5.211,1.478,7.074-1.338
	c1.564-2.365,0.664-4.856-2.506-6.744c-3.846-2.29-7.717-4.548-11.683-6.619c-1.84-0.961-1.897-1.754-0.808-3.399
	c9.78-14.771,22.08-26.986,36.791-36.843c2.014-1.349,2.709-0.575,3.605,1.07c1.904,3.495,3.893,6.944,5.876,10.395
	c2.261,3.933,4.563,5.146,6.958,3.717c2.757-1.643,3.083-4.386,0.944-8.162c-2.024-3.571-4.021-7.158-6.128-10.68
	c-0.927-1.548-1.07-2.382,0.896-3.365c15.664-7.834,32.151-12.496,49.669-13.516c2.472-0.144,3.294,0.453,3.168,2.993
	c-0.203,4.114-0.086,8.247-0.041,12.372c0.043,4.075,1.85,6.389,4.787,6.267c2.717-0.113,4.487-2.52,4.505-6.194
	c0.021-4.375,0.067-8.751-0.023-13.125c-0.035-1.682,0.273-2.443,2.226-2.348c18.573,0.905,35.983,5.889,52.533,14.582
	c-2.66,4.679-5.249,9.189-7.793,13.724c-1.895,3.376-1.496,6.062,1.262,7.36c3.034,1.428,5.203,0.252,6.771-2.606
	c2.154-3.925,4.555-7.715,6.657-11.667c0.97-1.823,1.765-1.835,3.377-0.758c14.62,9.771,26.79,21.946,36.559,36.576
	c1.398,2.094,0.881,2.78-1.061,3.798c-3.965,2.077-7.779,4.438-11.688,6.626c-2.793,1.563-3.651,3.9-2.083,6.569
	c1.536,2.613,3.93,3.192,6.725,1.505c4.047-2.44,8.206-4.696,12.227-7.176c1.562-0.963,2.194-0.69,3,0.908
	c7.885,15.651,12.321,32.221,13.605,49.682c0.195,2.647-0.596,3.419-3.243,3.276c-4.362-0.233-8.747-0.019-13.122-0.076
	c-3.146-0.042-5.204,1.468-5.279,4.519c-0.075,3.074,1.982,4.72,5.082,4.756c4.5,0.052,9.008,0.169,13.498-0.031
	C388.023,251.356,388.755,252.141,388.579,254.6z"/>
<path fill-rule="evenodd" clip-rule="evenodd" d="M312.058,271.743c-8.841-5.079-17.66-10.196-26.547-15.192
	c-1.768-0.994-2.395-1.942-1.891-4.064c2.741-11.551-3.152-22.738-14.24-26.643c-2.675-0.941-3.188-2.208-3.134-4.714
	c0.152-6.994,0.053-13.994,0.051-20.991c-0.002-7.622,0.03-15.244-0.018-22.865c-0.021-3.364-2.042-5.718-4.772-5.454
	c-3.127,0.302-4.513,2.312-4.515,5.368c0,1-0.006,1.999-0.006,2.999c0,13.495-0.064,26.99,0.053,40.483
	c0.023,2.779-0.472,4.177-3.497,5.329c-9.092,3.464-14.271,10.504-14.687,20.204c-0.401,9.366,3.924,16.652,12.273,21.083
	c8.237,4.371,16.499,3.812,23.822-1.913c2.886-2.255,4.687-1.907,7.404-0.274c8.312,4.994,16.735,9.806,25.166,14.6
	c3.768,2.143,6.856,1.127,7.746-2.346C316.007,274.456,314.218,272.983,312.058,271.743z M261.589,260.268
	c-7.385-0.037-13.274-5.909-13.314-13.277c-0.043-7.634,5.809-13.6,13.342-13.605c7.295-0.006,13.28,5.9,13.442,13.263
	C275.22,253.952,268.938,260.305,261.589,260.268z"/>
<g>
	<path d="M108.724,360.463l13.22,12.548c2.981,2.83,5.037,5.216,6.168,7.155c1.514,2.614,2.27,5.423,2.269,8.426
		c-0.001,3.002-0.697,6.02-2.087,9.051c-1.391,3.031-3.679,6.225-6.864,9.58c-2.799,2.949-5.578,5.143-8.336,6.581
		c-3.371,1.756-6.651,2.651-9.844,2.688c-2.414,0.03-5.013-0.624-7.796-1.966c-2.076-1.01-4.45-2.783-7.121-5.319l-13.611-12.919
		L108.724,360.463z M110.205,373.389l-22.521,23.729l5.401,5.126c2.02,1.917,3.586,3.187,4.699,3.81
		c1.451,0.819,2.896,1.247,4.335,1.28c1.438,0.034,3.164-0.519,5.176-1.66c2.012-1.141,4.332-3.096,6.96-5.865
		s4.402-5.127,5.321-7.073c0.918-1.946,1.332-3.753,1.241-5.419c-0.091-1.666-0.674-3.287-1.747-4.863
		c-0.794-1.188-2.665-3.18-5.614-5.979L110.205,373.389z"/>
	<path d="M117.122,433.697l25.321-42.407l31.444,18.774l-4.283,7.175l-22.881-13.663l-5.614,9.401l21.291,12.713l-4.266,7.145
		l-21.291-12.712l-6.892,11.542l23.691,14.146l-4.266,7.146L117.122,433.697z"/>
	<path d="M165.802,443.042l9.499,2.195c-0.483,3.273-0.122,5.918,1.085,7.935s3.247,3.507,6.122,4.472
		c3.045,1.022,5.555,1.149,7.532,0.38c1.976-0.77,3.254-2.018,3.833-3.742c0.372-1.106,0.363-2.158-0.025-3.153
		c-0.389-0.995-1.295-2.053-2.72-3.171c-0.979-0.755-3.273-2.283-6.883-4.586c-4.646-2.958-7.684-5.695-9.112-8.213
		c-2.009-3.542-2.392-7.165-1.148-10.87c0.801-2.385,2.226-4.389,4.275-6.01c2.049-1.622,4.528-2.549,7.438-2.78
		c2.909-0.231,6.163,0.257,9.761,1.465c5.876,1.974,9.868,4.748,11.973,8.321c2.105,3.574,2.51,7.537,1.215,11.888l-9.593-2.76
		c0.403-2.542,0.116-4.563-0.86-6.064c-0.977-1.5-2.796-2.698-5.458-3.592c-2.747-0.922-5.087-1.08-7.02-0.474
		c-1.244,0.388-2.07,1.188-2.477,2.402c-0.372,1.107-0.222,2.212,0.451,3.314c0.856,1.401,3.402,3.417,7.636,6.048
		c4.234,2.63,7.259,4.896,9.073,6.796s3.006,4.066,3.576,6.496c0.57,2.431,0.358,5.126-0.636,8.085
		c-0.901,2.684-2.49,4.945-4.767,6.787c-2.277,1.842-4.97,2.875-8.078,3.099c-3.108,0.223-6.695-0.348-10.762-1.713
		c-5.919-1.988-10.006-4.883-12.259-8.685C165.216,453.111,164.661,448.487,165.802,443.042z"/>
	<path d="M246.943,459.404l9.313,4.022c-2.018,5.215-4.873,8.95-8.566,11.207s-8.177,3.118-13.451,2.586
		c-6.525-0.66-11.664-3.431-15.414-8.313c-3.751-4.883-5.235-11.19-4.454-18.923c0.827-8.179,3.58-14.317,8.261-18.416
		c4.681-4.099,10.462-5.8,17.346-5.104c6.011,0.607,10.714,2.878,14.11,6.811c2.021,2.326,3.393,5.513,4.113,9.559l-10.059,1.354
		c-0.324-2.606-1.333-4.74-3.027-6.401c-1.695-1.661-3.861-2.625-6.498-2.892c-3.643-0.368-6.73,0.641-9.263,3.026
		c-2.533,2.386-4.094,6.506-4.686,12.36c-0.628,6.213,0.042,10.751,2.011,13.613c1.968,2.862,4.74,4.475,8.315,4.836
		c2.637,0.267,4.989-0.343,7.06-1.826C244.123,465.418,245.752,462.919,246.943,459.404z"/>
	<path d="M314.469,472.426l-10.761,1.376l-5.701-10.581l-19.583,2.505l-2.621,11.646l-10.493,1.343l12.815-51.434l10.46-1.338
		L314.469,472.426z M293.776,455.372l-9.076-17.316l-4.292,19.026L293.776,455.372z"/>
	<path d="M326.537,468.857l-17.383-46.231l9.082-3.415l30.53,23.76l-11.608-30.874l8.673-3.261l17.383,46.231l-9.366,3.521
		l-29.974-23.141l11.336,30.148L326.537,468.857z"/>
	<path d="M374.713,449.379l-4.881-7.557l4.408-40.989l-19.33,12.484l-4.533-7.019l30.367-19.614l4.204,6.51l-4.647,42.669
		l23.604-15.246l4.515,6.991L374.713,449.379z"/>
	<path d="M399.901,403.843c-3.589-3.525-6.074-7.021-7.455-10.487c-1.008-2.563-1.544-5.239-1.608-8.026s0.369-5.344,1.302-7.672
		c1.227-3.107,3.248-6.096,6.066-8.964c5.1-5.191,10.79-7.764,17.072-7.717s12.292,2.888,18.028,8.522
		c5.688,5.588,8.62,11.506,8.795,17.754c0.175,6.249-2.28,11.961-7.363,17.136c-5.147,5.24-10.838,7.837-17.072,7.789
		S405.511,409.352,399.901,403.843z M406.862,396.275c3.99,3.92,7.92,5.97,11.788,6.149c3.869,0.18,7.197-1.148,9.982-3.985
		c2.786-2.836,4.051-6.166,3.795-9.992c-0.257-3.825-2.429-7.745-6.515-11.759c-4.037-3.966-7.92-6.04-11.646-6.221
		c-3.727-0.181-7.029,1.194-9.91,4.127c-2.88,2.932-4.196,6.283-3.948,10.053C400.657,388.418,402.809,392.294,406.862,396.275z"/>
</g>
<path fill-rule="evenodd" clip-rule="evenodd" d="M930.742,240.157c-5.337-32.945-19.588-61.507-42.479-85.611
	c-23.386-24.626-51.896-40.312-85.319-46.824c-2.063-0.402-2.946-0.828-2.249-3.255c1.683-5.852,0.865-11.664-1.466-17.181
	c-0.869-2.057-0.702-3.672,0.07-5.636c4.139-10.525,2.406-20.228-4.343-29.172c-4.421-5.858-10.679-8.706-17.427-10.782
	c-3.75,0-7.501,0-11.251,0c-0.271,0.221-0.511,0.56-0.819,0.644c-18.465,5.037-27.361,22.73-20.132,40.247
	c0.646,1.563,0.554,2.733-0.14,4.174c-2.641,5.487-2.918,11.362-1.885,17.181c0.464,2.61,0.273,3.325-2.453,3.866
	c-29.496,5.851-55.395,18.956-77.411,39.426c-25.556,23.762-41.918,52.772-48.858,87.053c-0.605,2.994,0.138,7.291-2.107,8.669
	c-2.381,1.461-6.286,0.348-9.514,0.546c-1.934,0.119-2.382-0.504-2.535-2.445c-0.446-5.606-4.775-10.255-10.104-10.961
	c-2.457-0.325-5.006,0.089-7.481-0.159c-7.526-0.754-12.989,1.992-16.089,9.036c0,16.503,0,33.005,0,49.508
	c2.316,7.192,6.082,9.918,13.811,9.968c2.625,0.018,5.25,0.044,7.875-0.02c4.592-0.11,8.566-1.961,10.613-5.959
	c2.014-3.934,4.76-4.724,8.733-4.621c3.042,0.079,4.499,0.89,5.004,4.046c0.81,5.052,1.819,10.081,3.194,15.03
	c8.011,28.832,22.574,53.689,44.158,74.556c16.735,16.18,36.012,28.024,57.766,36.024c12.242,4.502,24.881,7.185,37.872,8.244
	c10.252,0,20.503,0,30.755,0c3.786-0.731,7.67-0.386,11.461-0.983c20.887-3.286,40.307-10.544,58.316-21.61
	c17.444-10.72,32.407-24.167,44.692-40.568c15.004-20.031,25.014-42.265,29.871-66.854c1.164-5.893,1.006-11.87,1.93-17.755
	c0-8.001,0-16.002,0-24.003C931.319,249.493,931.487,244.758,930.742,240.157z M591.195,244.271
	c-0.156,6.478-0.045,12.961-0.045,19.442s-0.106,12.965,0.043,19.442c0.08,3.432-1.032,4.991-4.711,4.922
	c-11.732-0.224-10.15,1.154-10.213-10.146c-0.063-11.217-0.026-22.435-0.008-33.652c0.008-4.466,0.399-4.819,4.973-4.848
	c1.744-0.011,3.5,0.125,5.232-0.028C590.126,239.081,591.28,240.813,591.195,244.271z M609.361,277.911
	c-8.856,0.234-8.854,0.296-8.854-8.45c0-4.727,0.092-9.457-0.044-14.18c-0.057-1.988,0.614-2.457,2.529-2.519
	c8.842-0.285,8.837-0.35,8.699,8.475c-0.021,1.367-0.004,2.736-0.004,4.104c0.033,0,0.066,0,0.099,0
	c0,3.358-0.146,6.725,0.054,10.071C611.963,277.461,611.27,277.861,609.361,277.911z M766.07,51.896
	c10.236-3.334,21.432,2.35,24.936,12.642c1.03,3.024,1.04,6.116,0.779,9.243c-0.115,1.39-0.418,2.272-2.012,1.185
	c-12.431-8.478-24.675-7.619-36.738,0.829C749.848,66.064,755.771,55.25,766.07,51.896z M772.417,78.45
	c10.771,0.056,19.596,9.26,19.521,20.361c-0.073,10.927-8.801,19.495-19.838,19.474c-11.109-0.021-19.995-8.826-20.013-19.831
	C752.07,87.438,761.264,78.392,772.417,78.45z M817.754,409.422c-14.837,4.802-30.072,6.867-45.601,7.171
	c-69.015-0.171-129.821-47.22-146.643-113.905c-20.222-80.164,27.073-160.08,104.989-182.719c5.125-1.489,10.348-2.671,15.644-3.526
	c1.69-0.273,2.618-0.082,3.807,1.224c12.278,13.504,31.472,13.645,43.824,0.32c1.339-1.445,2.363-1.938,4.424-1.507
	c62.404,13.028,103.484,50.113,120.019,111.387C939.227,305.723,894.592,384.551,817.754,409.422z"/>
<path fill-rule="evenodd" clip-rule="evenodd" d="M772.104,129.019c-76.932,0.021-135.912,61.256-136.66,136.295
	c0.328,74.195,58.729,136.717,136.597,136.859c76.813,0.142,136.717-61.634,136.597-136.796
	C908.517,190.209,849.101,128.999,772.104,129.019z M899.079,273.046c-1.256,17.595-5.723,34.288-13.715,50.031
	c-0.776,1.529-1.448,1.915-3.089,0.899c-4.015-2.489-8.211-4.686-12.274-7.1c-2.839-1.688-5.253-1.519-7.009,1.422
	c-1.785,2.99-0.194,4.906,2.354,6.392c4.725,2.75,9.447,5.503,14.295,8.328c-10.065,15.858-22.851,28.776-38.422,38.977
	c-1.427,0.935-2.124,0.967-2.997-0.685c-2.093-3.956-4.383-7.809-6.634-11.679c-1.972-3.387-4.386-4.331-6.984-2.811
	c-2.381,1.394-2.794,4.043-1.02,7.209c2.127,3.798,4.254,7.599,6.529,11.308c1.018,1.658,1.267,2.513-0.872,3.565
	c-15.715,7.738-32.228,12.322-49.755,13.246c-2.183,0.115-2.809-0.423-2.733-2.582c0.15-4.37,0.083-8.75,0.03-13.123
	c-0.042-3.55-1.782-5.575-4.729-5.428c-3.245,0.163-4.526,2.238-4.553,5.246c-0.038,4.5-0.06,9,0.008,13.499
	c0.024,1.658-0.275,2.499-2.264,2.404c-18.178-0.862-35.242-5.76-51.449-13.904c-1.494-0.751-1.104-1.504-0.523-2.503
	c2.311-3.98,4.648-7.944,6.907-11.953c1.83-3.249,1.376-5.423-1.328-7.021c-2.58-1.526-4.673-0.763-6.648,2.559
	c-2.226,3.741-4.464,7.48-6.511,11.32c-0.906,1.701-1.553,2.079-3.305,0.904c-14.703-9.863-27.029-22.057-36.762-36.873
	c-0.979-1.49-1.045-2.151,0.664-3.054c3.956-2.089,7.807-4.383,11.666-6.65c2.923-1.718,3.928-4.432,2.641-6.85
	c-1.243-2.335-4.112-2.816-7.215-1.085c-3.801,2.121-7.582,4.284-11.307,6.536c-1.533,0.927-2.391,1.168-3.391-0.819
	c-6.265-12.432-10.439-25.505-12.401-39.274c-0.511-3.577-0.593-7.216-1.138-10.786c-0.354-2.315,0.504-2.82,2.592-2.771
	c4.498,0.104,9,0.098,13.498,0.006c3.588-0.073,5.488-1.829,5.439-4.753c-0.05-2.932-1.938-4.474-5.628-4.5
	c-4.5-0.032-9.001-0.076-13.499,0.022c-1.875,0.041-2.604-0.326-2.463-2.483c1.125-17.354,5.486-33.808,13.109-49.445
	c1.24-2.544,2.189-2.883,4.541-1.327c3.521,2.33,7.334,4.21,10.949,6.403c2.839,1.721,5.212,1.478,7.074-1.338
	c1.564-2.365,0.664-4.856-2.506-6.744c-3.846-2.29-7.717-4.548-11.682-6.619c-1.841-0.961-1.897-1.754-0.809-3.399
	c9.78-14.771,22.08-26.986,36.791-36.843c2.014-1.349,2.709-0.575,3.604,1.07c1.904,3.495,3.893,6.944,5.876,10.395
	c2.262,3.933,4.563,5.146,6.957,3.717c2.758-1.643,3.084-4.386,0.944-8.162c-2.024-3.571-4.021-7.158-6.128-10.68
	c-0.927-1.548-1.07-2.382,0.896-3.365c15.664-7.834,32.151-12.496,49.669-13.516c2.472-0.144,3.294,0.453,3.168,2.993
	c-0.203,4.114-0.086,8.247-0.041,12.372c0.043,4.075,1.85,6.389,4.787,6.267c2.717-0.113,4.487-2.52,4.505-6.194
	c0.021-4.375,0.067-8.751-0.023-13.125c-0.035-1.682,0.273-2.443,2.226-2.348c18.573,0.905,35.983,5.889,52.533,14.582
	c-2.66,4.679-5.249,9.189-7.793,13.724c-1.895,3.376-1.496,6.062,1.262,7.36c3.034,1.428,5.203,0.252,6.771-2.606
	c2.154-3.925,4.555-7.715,6.657-11.667c0.97-1.823,1.765-1.835,3.377-0.758c14.62,9.771,26.79,21.946,36.559,36.576
	c1.398,2.094,0.881,2.78-1.061,3.798c-3.965,2.077-7.779,4.438-11.688,6.626c-2.793,1.563-3.651,3.9-2.083,6.569
	c1.536,2.613,3.93,3.192,6.725,1.505c4.047-2.44,8.206-4.696,12.227-7.176c1.562-0.963,2.194-0.69,3,0.908
	c7.885,15.65,12.321,32.221,13.605,49.682c0.195,2.647-0.596,3.419-3.243,3.276c-4.362-0.233-8.747-0.019-13.122-0.076
	c-3.146-0.042-5.204,1.468-5.279,4.519c-0.075,3.074,1.982,4.72,5.082,4.756c4.5,0.052,9.008,0.169,13.498-0.031
	C898.523,269.803,899.255,270.587,899.079,273.046z"/>
<path fill-rule="evenodd" clip-rule="evenodd" d="M822.558,290.189c-8.841-5.079-17.66-10.196-26.547-15.192
	c-1.768-0.994-2.395-1.942-1.891-4.064c2.741-11.551-3.152-22.738-14.24-26.643c-2.675-0.941-3.188-2.208-3.134-4.714
	c0.152-6.994,0.053-13.994,0.051-20.99c-0.002-7.622,0.03-15.244-0.018-22.866c-0.021-3.364-2.042-5.718-4.772-5.454
	c-3.127,0.302-4.513,2.312-4.515,5.368c0,1-0.006,1.999-0.006,2.999c0,13.495-0.064,26.99,0.053,40.483
	c0.023,2.779-0.472,4.177-3.497,5.329c-9.092,3.464-14.271,10.504-14.687,20.204c-0.402,9.366,3.924,16.652,12.272,21.083
	c8.237,4.371,16.499,3.812,23.822-1.913c2.886-2.255,4.687-1.907,7.404-0.274c8.312,4.994,16.735,9.806,25.166,14.6
	c3.768,2.143,6.856,1.127,7.746-2.346C826.507,292.902,824.718,291.43,822.558,290.189z M772.089,278.714
	c-7.385-0.037-13.274-5.909-13.314-13.277c-0.043-7.634,5.809-13.6,13.342-13.605c7.295-0.006,13.28,5.9,13.442,13.263
	C785.72,272.398,779.438,278.751,772.089,278.714z"/>
<circle fill="none" cx="769" cy="250" r="246"/>
<text transform="matrix(0.7253 0.6884 -0.6884 0.7253 581.6045 411.3008)"><tspan x="0" y="0" font-family="'Arial-BoldMT'" font-size="69">D</tspan><tspan x="56.596" y="-0.955" font-family="'Arial-BoldMT'" font-size="69" rotate="-12.665">E</tspan><tspan x="107.752" y="-13.167" font-family="'Arial-BoldMT'" font-size="69" rotate="-24.943">S</tspan><tspan x="155.502" y="-36.007" font-family="'Arial-BoldMT'" font-size="69" rotate="-37.735">C</tspan><tspan x="199.966" y="-71.421" font-family="'Arial-BoldMT'" font-size="69" rotate="-50.795">A</tspan><tspan x="235.354" y="-116.114" font-family="'Arial-BoldMT'" font-size="69" rotate="-64.112">N</tspan><tspan x="258.947" y="-167.294" font-family="'Arial-BoldMT'" font-size="69" rotate="-76.364">Z</tspan><tspan x="270.381" y="-214.967" font-family="'Arial-BoldMT'" font-size="69" rotate="-89.018">O</tspan></text>
</svg>
